<svg width="367" height="532" viewBox="0 0 367 532" fill="none" xmlns="http://www.w3.org/2000/svg">
<g clip-path="url(#clip0_735_12888)" filter="url(#filter0_d_735_12888)">
<rect x="68.9856" y="10" width="279.347" height="463.482" rx="21.5573" transform="rotate(6 68.9856 10)" fill="#B6F57A"/>
<path d="M101.717 47.3927L96.3999 46.8338L93.5607 73.8472L98.5346 74.37L100.536 55.332L112.341 75.8212L116.629 76.2719L119.468 49.2584L114.495 48.7357L112.602 66.7446L101.717 47.3927ZM131.546 69.5594C131.226 72.6038 128.952 74.4457 126.251 74.1617C124.621 73.9905 123.716 73.115 123.851 71.8287C124.05 69.942 125.677 69.7229 127.956 69.4855L131.596 69.0878L131.546 69.5594ZM136.978 66.1419C137.501 61.168 134.528 58.5146 129.64 58.0008C124.623 57.4735 121.381 59.8639 120.332 63.6554L124.96 64.5754C125.583 62.7767 126.876 61.612 129.02 61.8373C131.207 62.0672 132.186 63.4707 131.965 65.5718L131.92 66.0005L126.624 66.4843C122.246 66.8912 119.172 68.0855 118.794 71.6873C118.451 74.946 120.645 77.1708 124.59 77.5854C127.377 77.8784 130.072 76.9911 131.373 74.9169C131.629 77.0247 132.87 78.4124 135.014 78.6377C136.729 78.818 137.817 78.3687 138.699 77.8112L138.988 75.0669C138.403 75.2656 137.875 75.3402 137.361 75.2861C136.546 75.2005 136.081 74.6747 136.185 73.6885L136.978 66.1419ZM158.051 64.932C157.48 62.531 155.76 60.7462 152.416 60.3946C149.543 60.0927 147.246 61.3252 146.077 63.37L146.401 60.2828L141.256 59.7419L139.268 78.6513L144.414 79.1921L145.477 69.0728C145.811 65.8998 147.528 63.9994 150.015 64.2608C152.502 64.5222 153.27 66.2936 152.963 69.2093L151.832 79.9718L156.977 80.5126L158.041 70.3933C158.374 67.2203 160.091 65.3199 162.578 65.5812C165.108 65.8471 165.833 67.614 165.526 70.5298L164.395 81.2923L169.541 81.8331L170.78 70.0415C171.213 65.9252 169.953 62.2379 164.85 61.7016C161.763 61.3771 159.315 62.8105 158.051 64.932ZM186.404 76.9292C185.45 78.9965 183.836 79.9108 181.306 79.6449C178.519 79.3519 176.54 77.1497 176.661 74.3446L190.854 75.8363L191.048 73.9925C191.588 68.8471 188.866 64.2258 182.692 63.5768C177.032 62.9819 172.336 66.8236 171.71 72.7837C171.083 78.7438 174.893 82.9159 180.725 83.5288C185.57 84.038 189.09 81.8936 190.518 77.7952L186.404 76.9292ZM177.085 71.1377C177.804 68.8289 179.422 67.0481 182.252 67.3456C185.125 67.6475 186.233 69.8883 186.175 72.0931L177.085 71.1377ZM217.85 59.5988L201.513 57.8817C200.916 62.3276 199.238 69.2176 198.16 72.8759L203.351 73.8116C204.361 72.4439 205.988 71.401 208.39 71.6534C211.52 71.9824 213.086 74.4014 212.78 77.3171C212.446 80.4901 210.309 82.2597 207.265 81.9397C203.921 81.5882 202.336 79.3408 202.678 76.082L197.488 75.1463C196.634 81.2125 199.949 85.5494 206.767 86.2659C212.684 86.8879 217.236 83.5946 217.844 77.806C218.38 72.7035 215.683 68.2582 209.465 67.6047C206.764 67.3208 204.817 68.1132 203.585 69.1108C203.968 67.9373 204.818 64.3851 205.001 63.0603L217.35 64.3583L217.85 59.5988ZM223.46 81.1708C223.316 85.8377 226.864 88.3782 231.795 88.8965C236.683 89.4103 240.253 87.6179 240.659 83.7588C241.033 80.1999 238.85 78.2798 234.93 77.2175L231.391 76.2386C230.042 75.88 229.419 75.2076 229.527 74.1785C229.662 72.8922 230.948 72.2037 232.792 72.3974C235.494 72.6814 236.839 73.9066 236.956 76.0865L241.219 76.3612C241.318 72.123 238.436 69.4357 233.205 68.8859C228.402 68.3812 225.096 70.5481 224.718 74.1499C224.348 77.666 226.42 79.4011 230.383 80.4679L233.331 81.2979C235.186 81.7963 235.985 82.4439 235.85 83.7302C235.705 85.1023 234.094 85.5833 232.208 85.385C229.592 85.1101 227.998 83.7721 227.937 81.468L223.46 81.1708ZM246.63 80.398C247.009 76.7963 248.9 74.4806 252.03 74.8096C255.203 75.1431 256.571 77.8013 256.192 81.403C255.818 84.962 253.927 87.2776 250.754 86.9442C247.624 86.6152 246.256 83.957 246.63 80.398ZM261.38 81.9484C261.998 76.074 258.314 71.525 252.44 70.9076C246.608 70.2947 242.059 73.9784 241.442 79.8527C240.825 85.7271 244.513 90.2332 250.344 90.8461C256.219 91.4635 260.763 87.8227 261.38 81.9484ZM268.055 81.9563C268.389 78.7832 270.234 76.8963 272.85 77.1712C275.38 77.4371 276.362 79.2311 276.055 82.1468L274.924 92.9093L280.069 93.4501L281.309 81.6585C281.75 77.4565 280.267 73.8324 275.208 73.3006C272.378 73.0032 269.823 74.2086 268.654 76.2534L268.979 73.1662L263.834 72.6254L261.846 91.5348L266.991 92.0756L268.055 81.9563ZM300.461 82.501C300.573 81.429 300.377 80.4113 299.948 79.5425C300.97 79.3031 302.232 79.2623 303.261 79.3705L303.693 75.2541C301.635 75.0378 299.622 76.0401 298.393 77.4282C296.962 76.194 294.881 75.3684 292.565 75.125C287.592 74.6022 283.776 76.6722 283.352 80.7028C283.136 82.761 283.946 84.5369 285.458 85.823C283.538 86.3581 282.202 87.5183 282.022 89.2334C281.86 90.777 282.616 92.2438 284.273 92.9815C282.011 93.0473 280.323 94.2571 280.121 96.1867C279.751 99.7027 284.071 101.501 289.302 102.05C295.176 102.668 300.872 101.272 301.368 96.5557C301.688 93.5113 299.783 91.0134 295.581 90.5718L288.034 89.7786C286.619 89.6299 286.12 89.0139 286.21 88.1563C286.273 87.556 286.623 87.1159 287.126 86.8653C288.277 87.4632 289.67 87.8263 291.213 87.9885C296.187 88.5113 300.046 86.4458 300.461 82.501ZM284.876 95.9061C285.02 94.534 286.193 94.0937 287.565 94.238L293.868 94.9004C295.584 95.0807 296.563 95.6605 296.432 96.904C296.239 98.7478 293.404 99.3169 289.631 98.9203C286.587 98.6004 284.695 97.6212 284.876 95.9061ZM295.229 81.9512C295 84.138 293.549 85.156 291.576 84.9487C289.647 84.7459 288.439 83.4484 288.669 81.2616C288.899 79.0748 290.35 78.0568 292.279 78.2596C294.252 78.4669 295.459 79.7644 295.229 81.9512ZM301.233 89.3451C301.089 94.012 304.637 96.5525 309.568 97.0708C314.456 97.5845 318.026 95.7921 318.432 91.9331C318.806 88.3742 316.623 86.454 312.703 85.3917L309.164 84.4129C307.815 84.0543 307.192 83.3819 307.3 82.3528C307.435 81.0664 308.721 80.3779 310.565 80.5717C313.267 80.8556 314.612 82.0808 314.729 84.2608L318.992 84.5354C319.091 80.2973 316.209 77.61 310.978 77.0602C306.175 76.5554 302.869 78.7224 302.491 82.3242C302.121 85.8402 304.193 87.5753 308.156 88.6421L311.104 89.4721C312.959 89.9706 313.758 90.6181 313.623 91.9045C313.478 93.2766 311.867 93.7575 309.98 93.5592C307.365 93.2843 305.771 91.9463 305.71 89.6422L301.233 89.3451ZM95.3426 104.327C95.7031 100.897 97.9866 98.9694 100.902 99.2758C104.161 99.6183 105.585 102.152 105.207 105.754C104.833 109.313 102.913 111.496 99.654 111.153C96.7382 110.847 94.9009 108.529 95.266 105.056L95.3426 104.327ZM94.4792 110.479C95.2175 112.941 97.4295 114.994 100.731 115.341C106.391 115.936 109.809 111.874 110.395 106.299C110.981 100.725 108.487 95.9979 102.912 95.412C99.5251 95.056 97.0587 96.6609 95.9578 98.8862L97.1926 87.1375L92.0472 86.5967L89.208 113.61L93.1528 114.025L94.4792 110.479ZM117.729 123.718L131.304 98.9163L126.287 98.389L119.828 110.759L119.656 110.741L115.868 97.2938L110.465 96.726L116.315 116.546L112.669 123.186L117.729 123.718ZM142.697 105.403L143.644 96.3983L148.918 96.9526C152.948 97.3762 154.535 99.1904 154.229 102.106C153.922 105.022 152.002 106.381 147.971 105.957L142.697 105.403ZM142.238 109.776L147.683 110.349C154.587 111.074 158.874 108.23 159.464 102.613C160.055 96.996 156.448 93.3655 149.545 92.6399L138.782 91.5087L135.943 118.522L141.26 119.081L142.238 109.776ZM157.683 114.478C157.539 119.145 161.087 121.685 166.018 122.203C170.906 122.717 174.476 120.925 174.882 117.066C175.256 113.507 173.073 111.587 169.153 110.524L165.614 109.545C164.265 109.187 163.642 108.514 163.75 107.485C163.885 106.199 165.171 105.511 167.015 105.704C169.717 105.988 171.062 107.213 171.179 109.393L175.442 109.668C175.541 105.43 172.659 102.743 167.428 102.193C162.625 101.688 159.319 103.855 158.941 107.457C158.571 110.973 160.643 112.708 164.606 113.775L167.554 114.605C169.409 115.103 170.208 115.751 170.073 117.037C169.928 118.409 168.317 118.89 166.43 118.692C163.815 118.417 162.221 117.079 162.16 114.775L157.683 114.478ZM190.722 115.089C190.357 118.562 188.035 120.442 185.12 120.136C181.904 119.798 180.479 117.264 180.853 113.705C181.232 110.103 183.152 107.921 186.368 108.259C189.284 108.565 191.159 110.93 190.799 114.36L190.722 115.089ZM188.985 131.207L194.13 131.748L196.857 105.806L191.711 105.265L191.328 108.91C190.714 106.504 188.592 104.417 185.248 104.066C179.631 103.475 176.251 107.585 175.665 113.16C175.079 118.734 177.535 123.414 183.152 124.004C186.497 124.356 189.006 122.755 190.102 120.573L188.985 131.207ZM210.939 117.517C210.601 120.733 208.841 122.629 206.311 122.363C203.782 122.097 202.89 120.27 203.192 117.397L204.327 106.591L199.182 106.051L197.938 117.885C197.497 122.087 198.856 125.655 203.872 126.182C206.745 126.484 209.124 125.303 210.34 123.22L210.015 126.307L215.161 126.848L217.148 107.939L212.003 107.398L210.939 117.517ZM229.955 120.123C229.635 123.167 227.361 125.009 224.659 124.725C223.03 124.554 222.125 123.679 222.26 122.392C222.458 120.506 224.085 120.286 226.365 120.049L230.005 119.651L229.955 120.123ZM235.387 116.705C235.909 111.732 232.937 109.078 228.049 108.564C223.032 108.037 219.789 110.427 218.741 114.219L223.369 115.139C223.992 113.34 225.285 112.176 227.429 112.401C229.615 112.631 230.595 114.034 230.374 116.135L230.329 116.564L225.033 117.048C220.655 117.455 217.581 118.649 217.203 122.251C216.86 125.51 219.054 127.734 222.999 128.149C225.786 128.442 228.48 127.555 229.782 125.48C230.038 127.588 231.279 128.976 233.423 129.201C235.138 129.381 236.226 128.932 237.108 128.375L237.396 125.63C236.812 125.829 236.284 125.904 235.769 125.85C234.955 125.764 234.49 125.238 234.593 124.252L235.387 116.705ZM252.716 111.937C252.208 111.407 251.296 111.008 250.138 110.886C247.523 110.611 245.343 112.376 244.432 114.448L244.81 110.846L239.665 110.305L237.677 129.215L242.823 129.756L243.805 120.408C244.166 116.978 246.165 115.281 248.823 115.56C250.067 115.691 250.897 116.038 251.825 116.699L252.716 111.937ZM265.467 125.459C264.513 127.527 262.899 128.441 260.37 128.175C257.582 127.882 255.603 125.68 255.724 122.875L269.917 124.366L270.111 122.523C270.652 117.377 267.929 112.756 261.755 112.107C256.095 111.512 251.399 115.354 250.773 121.314C250.146 127.274 253.956 131.446 259.788 132.059C264.633 132.568 268.153 130.424 269.581 126.325L265.467 125.459ZM256.148 119.668C256.868 117.359 258.485 115.578 261.315 115.876C264.188 116.178 265.297 118.419 265.238 120.623L256.148 119.668Z" fill="#1B2D2A"/>
<g clip-path="url(#clip1_735_12888)">
<path d="M59.9168 448.565C59.4681 447.482 57.6997 444.141 52.7997 443.626C47.9288 443.114 45.5042 445.977 44.8235 446.96C44.7552 447.058 44.7127 447.172 44.7002 447.291C44.6877 447.41 44.7055 447.53 44.752 447.64C45.2134 448.743 46.9895 452.047 51.8608 452.559C56.7606 453.074 59.1851 450.175 59.8491 449.208C59.913 449.115 59.9527 449.008 59.9645 448.895C59.9764 448.783 59.9599 448.669 59.9168 448.565ZM54.1982 448.592L53.014 448.468L53.7622 449.404L53.2986 449.785L52.5504 448.848L52.4243 450.048L51.8319 449.986L51.958 448.786L51.0314 449.546L50.657 449.078L51.5834 448.318L50.3994 448.193L50.4625 447.593L51.6465 447.717L50.8983 446.781L51.3619 446.401L52.1103 447.337L52.2364 446.137L52.8288 446.2L52.7027 447.399L53.6292 446.639L54.0036 447.107L53.0771 447.868L54.2613 447.992L54.1982 448.592Z" fill="white"/>
</g>
<path d="M69.5159 451.552C69.6173 450.587 69.0412 449.985 68.2423 449.749C68.9836 449.708 69.5545 449.226 69.6345 448.465C69.7505 447.361 69.0982 446.555 67.3938 446.376L64.3923 446.061L63.6825 452.814L66.8555 453.148C68.4313 453.313 69.3931 452.721 69.5159 451.552ZM67.013 450.205C67.8491 450.293 68.2182 450.7 68.1585 451.269C68.0999 451.826 67.6553 452.137 66.8192 452.049L65.1041 451.869L65.2979 450.025L67.013 450.205ZM65.5863 447.281L67.1942 447.45C67.9982 447.534 68.3029 447.935 68.25 448.439C68.197 448.942 67.8168 449.26 67.0128 449.176L65.4049 449.007L65.5863 447.281ZM71.5009 451.251C71.5956 450.351 72.0682 449.772 72.8508 449.854C73.644 449.938 73.986 450.602 73.8914 451.503C73.7979 452.392 73.3252 452.971 72.5319 452.888C71.7494 452.806 71.4074 452.141 71.5009 451.251ZM75.1885 451.639C75.3428 450.17 74.4219 449.033 72.9533 448.879C71.4954 448.726 70.3582 449.647 70.2038 451.115C70.0495 452.584 70.9715 453.71 72.4294 453.863C73.898 454.018 75.0341 453.108 75.1885 451.639ZM76.0385 452.899C75.9326 453.906 76.5098 454.292 77.2387 454.369C77.8176 454.43 78.2193 454.32 78.5893 454.099L78.6783 453.252C78.3861 453.352 78.108 453.42 77.8507 453.393C77.4648 453.352 77.3017 453.151 77.3445 452.743L77.5902 450.407L78.8765 450.542L78.9712 449.641L77.6848 449.506L77.8223 448.198L77.0397 448.116L76.822 448.744C76.6687 449.172 76.5152 449.394 76.0464 449.421L75.7192 449.44L75.6392 450.202L76.3145 450.273L76.0385 452.899ZM79.5768 453.271C79.4709 454.278 80.0481 454.664 80.777 454.741C81.3559 454.802 81.7576 454.692 82.1276 454.471L82.2167 453.624C81.9244 453.723 81.6463 453.792 81.389 453.765C81.0031 453.724 80.84 453.523 80.8829 453.115L81.1285 450.779L82.4148 450.914L82.5095 450.013L81.2231 449.878L81.3606 448.57L80.578 448.488L80.3604 449.115C80.207 449.544 80.0535 449.766 79.5847 449.793L79.2575 449.812L79.1775 450.573L79.8528 450.644L79.5768 453.271ZM84.0734 452.573C84.1681 451.672 84.6408 451.093 85.4233 451.176C86.2165 451.259 86.5585 451.924 86.4639 452.824C86.3704 453.714 85.8977 454.293 85.1044 454.209C84.3219 454.127 83.9799 453.463 84.0734 452.573ZM87.761 452.96C87.9153 451.492 86.9944 450.355 85.5258 450.2C84.0679 450.047 82.9307 450.968 82.7763 452.437C82.622 453.905 83.544 455.032 85.0019 455.185C86.4705 455.339 87.6066 454.429 87.761 452.96ZM93.0197 451.974C92.8769 451.374 92.4469 450.928 91.6108 450.84C90.8926 450.764 90.3183 451.072 90.0261 451.584L90.1072 450.812L88.8209 450.677L88.324 455.404L89.6104 455.539L89.8763 453.009C89.9596 452.216 90.3889 451.741 91.0106 451.806C91.6324 451.872 91.8243 452.315 91.7477 453.043L91.4649 455.734L92.7512 455.869L93.0171 453.339C93.1005 452.546 93.5297 452.071 94.1515 452.136C94.7839 452.203 94.9651 452.645 94.8885 453.374L94.6057 456.064L95.8921 456.199L96.2019 453.252C96.3101 452.222 95.9951 451.301 94.7195 451.167C93.9477 451.085 93.3356 451.444 93.0197 451.974ZM96.74 454.706C96.7041 455.873 97.5911 456.508 98.8238 456.638C100.046 456.766 100.938 456.318 101.04 455.353C101.133 454.463 100.588 453.983 99.6076 453.718L98.7229 453.473C98.3855 453.383 98.2298 453.215 98.2568 452.958C98.2906 452.637 98.6122 452.464 99.0731 452.513C99.7485 452.584 100.085 452.89 100.114 453.435L101.18 453.504C101.205 452.444 100.484 451.772 99.1762 451.635C97.9756 451.509 97.1492 452.051 97.0545 452.951C96.9622 453.83 97.4801 454.264 98.4709 454.53L99.2077 454.738C99.6715 454.863 99.8713 455.024 99.8375 455.346C99.8014 455.689 99.3986 455.809 98.9269 455.76C98.273 455.691 97.8747 455.356 97.8594 454.78L96.74 454.706ZM107.011 455.146C106.927 455.95 106.487 456.424 105.854 456.358C105.222 456.291 104.999 455.834 105.074 455.116L105.358 452.415L104.072 452.28L103.761 455.238C103.651 456.289 103.99 457.181 105.245 457.312C105.963 457.388 106.557 457.093 106.861 456.572L106.78 457.344L108.067 457.479L108.564 452.752L107.277 452.616L107.011 455.146ZM110.69 455.273C110.78 454.415 111.351 453.933 112.08 454.01C112.894 454.096 113.25 454.729 113.156 455.63C113.062 456.519 112.582 457.065 111.768 456.979C111.039 456.903 110.579 456.323 110.671 455.455L110.69 455.273ZM110.537 456.828C110.692 457.419 111.211 457.94 112.058 458.029C113.452 458.175 114.306 457.159 114.453 455.766C114.599 454.372 113.976 453.19 112.582 453.044C111.735 452.955 111.119 453.356 110.844 453.913L110.939 453.001L109.653 452.866L108.971 459.352L110.258 459.487L110.537 456.828Z" fill="#1B2D2A"/>
<g clip-path="url(#clip2_735_12888)">
<path d="M310.773 235.917L304.927 291.537L219.418 301.168L225.266 245.53L310.773 235.917Z" fill="white"/>
<path d="M210.266 388.247L219.42 301.148L237.986 299.064L228.831 386.164L210.266 388.247Z" fill="white"/>
<path d="M191.144 421.409C216.464 413.918 233.014 394.403 228.108 377.822C223.203 361.24 198.7 353.87 173.379 361.361C148.059 368.851 131.509 388.366 136.414 404.948C141.32 421.53 165.823 428.899 191.144 421.409Z" fill="white"/>
<path d="M152.833 309.784L137.751 327.957L105.45 311.299L120.55 293.128L152.833 309.784Z" fill="white"/>
<path d="M81.833 339.738L105.449 311.299L112.469 314.913L88.8354 343.351L81.833 339.738Z" fill="white"/>
<path d="M90.5348 340.263C92.6985 333.286 85.8189 324.953 75.1688 321.65C64.5187 318.347 54.1311 321.326 51.9675 328.302C49.8038 335.279 56.6835 343.612 67.3335 346.915C77.9836 350.218 88.3712 347.24 90.5348 340.263Z" fill="white"/>
</g>
</g>
<defs>
<filter id="filter0_d_735_12888" x="-1.76321" y="-1.15086" width="370.867" height="534.746" filterUnits="userSpaceOnUse" color-interpolation-filters="sRGB">
<feFlood flood-opacity="0" result="BackgroundImageFix"/>
<feColorMatrix in="SourceAlpha" type="matrix" values="0 0 0 0 0 0 0 0 0 0 0 0 0 0 0 0 0 0 127 0" result="hardAlpha"/>
<feOffset dy="11.1509"/>
<feGaussianBlur stdDeviation="11.1509"/>
<feColorMatrix type="matrix" values="0 0 0 0 0.105882 0 0 0 0 0.176471 0 0 0 0 0.164706 0 0 0 0.2 0"/>
<feBlend mode="normal" in2="BackgroundImageFix" result="effect1_dropShadow_735_12888"/>
<feBlend mode="normal" in="SourceGraphic" in2="effect1_dropShadow_735_12888" result="shape"/>
</filter>
<clipPath id="clip0_735_12888">
<rect width="279.347" height="463.482" fill="white" transform="translate(68.9856 10) rotate(6)"/>
</clipPath>
<clipPath id="clip1_735_12888">
<rect width="15.3482" height="8.98221" fill="white" transform="translate(45.1698 442.824) rotate(6)"/>
</clipPath>
<clipPath id="clip2_735_12888">
<rect width="247.909" height="202.293" fill="white" transform="translate(64.2214 210.003) rotate(6)"/>
</clipPath>
</defs>
</svg>
