<svg width="320" height="448" viewBox="0 0 320 448" fill="none" xmlns="http://www.w3.org/2000/svg">
<g clip-path="url(#clip0_734_12488)" filter="url(#filter0_d_734_12488)">
<rect x="16.801" y="42.4316" width="231.381" height="383.9" rx="17.8558" transform="rotate(-8.61476 16.801 42.4316)" fill="white"/>
<path d="M65.9594 82.5663L53.6719 84.4279L52.784 78.5666L62.1761 77.1437L61.6251 73.5069L52.233 74.9298L51.4146 69.5276L63.3842 67.7142L62.8279 64.0421L46.5153 66.5135L49.8853 88.7579L66.5157 86.2384L65.9594 82.5663ZM76.2782 84.7594L80.0629 68.2575L75.9318 68.8834L73.4835 80.379L73.3423 80.4004L67.5636 70.1512L63.1147 70.8252L71.6174 85.4655L76.2782 84.7594ZM93.1395 76.6426C92.8068 78.499 91.7047 79.5689 89.6215 79.8845C87.3264 80.2322 85.2796 78.8808 84.7907 76.6072L96.4778 74.8366L96.2478 73.3183C95.6059 69.0812 92.4581 65.9462 87.3737 66.7165C82.7129 67.4226 79.7523 71.4831 80.4958 76.391C81.2394 81.2989 85.165 83.8465 89.967 83.119C93.9569 82.5145 96.3301 80.0601 96.618 76.4768L93.1395 76.6426ZM84.4601 73.9483C84.5543 71.9475 85.4787 70.1821 87.8091 69.829C90.1748 69.4706 91.5315 71.0349 91.9455 72.8143L84.4601 73.9483ZM107.184 64.3654C106.666 64.0466 105.852 63.9171 104.899 64.0615C102.745 64.3878 101.367 66.2581 101.069 68.1091L100.62 65.1432L96.3827 65.7851L98.7418 81.3562L102.979 80.7143L101.813 73.017C101.385 70.1923 102.632 68.4141 104.821 68.0824C105.845 67.9273 106.584 68.0321 107.465 68.3681L107.184 64.3654ZM117.783 84.395L123.48 61.6799L119.348 62.3058L116.757 73.5703L116.616 73.5917L110.768 63.6056L106.32 64.2797L115.151 78.9425L113.616 85.0262L117.783 84.395ZM128.01 68.9759C127.561 66.01 128.592 63.7588 131.17 63.3683C133.782 62.9725 135.434 64.8171 135.884 67.783C136.328 70.7136 135.296 72.9648 132.683 73.3607C130.106 73.7512 128.454 71.9065 128.01 68.9759ZM140.156 67.1358C139.423 62.2985 135.52 59.4224 130.683 60.1552C125.881 60.8827 123.005 64.7859 123.738 69.6232C124.47 74.4604 128.368 77.3012 133.17 76.5737C138.008 75.8409 140.889 71.973 140.156 67.1358ZM145.507 65.7471C145.112 63.1343 146.197 61.2362 148.35 60.9099C150.434 60.5943 151.596 61.8269 151.959 64.2279L153.302 73.0904L157.539 72.4485L156.068 62.7386C155.544 59.2783 153.598 56.6836 149.431 57.3149C147.101 57.6679 145.305 59.168 144.796 61.0511L144.411 58.5089L140.174 59.1508L142.533 74.7219L146.77 74.08L145.507 65.7471ZM170.055 64.9899C169.723 66.8463 168.621 67.9162 166.537 68.2318C164.242 68.5795 162.196 67.2281 161.707 64.9545L173.394 63.1839L173.164 61.6656C172.522 57.4285 169.374 54.2935 164.29 55.0638C159.629 55.7699 156.668 59.8303 157.412 64.7383C158.155 69.6462 162.081 72.1938 166.883 71.4663C170.873 70.8618 173.246 68.4074 173.534 64.8241L170.055 64.9899ZM161.376 62.2956C161.47 60.2948 162.395 58.5294 164.725 58.1763C167.091 57.8179 168.447 59.3822 168.861 61.1616L161.376 62.2956ZM52.7763 116.423C53.6365 120.194 57.0111 121.488 61.0716 120.873C65.0968 120.263 67.5834 118.081 67.102 114.903C66.658 111.972 64.5074 110.889 61.1434 110.857L58.1026 110.812C56.946 110.807 56.3062 110.398 56.1778 109.551C56.0173 108.492 56.9043 107.671 58.4226 107.441C60.647 107.104 61.9812 107.805 62.5312 109.527L66.0053 108.857C65.1986 105.439 62.3269 103.888 58.0192 104.54C54.0647 105.139 51.868 107.567 52.3173 110.533C52.756 113.428 54.7793 114.386 58.1785 114.413L60.7143 114.462C62.3053 114.474 63.0811 114.826 63.2415 115.885C63.4127 117.015 62.2218 117.737 60.6683 117.973C58.5144 118.299 56.9576 117.559 56.427 115.726L52.7763 116.423ZM71.9484 110.268C71.5526 107.655 72.6376 105.757 74.7914 105.431C76.8746 105.115 78.0366 106.348 78.4003 108.749L79.743 117.611L83.98 116.969L82.509 107.259C81.9847 103.799 80.0385 101.204 75.8721 101.836C73.5417 102.189 71.7463 103.689 71.237 105.572L69.8408 96.3562L65.6038 96.9981L68.9738 119.243L73.2109 118.601L71.9484 110.268ZM88.093 108.4C87.6437 105.434 88.6752 103.183 91.2527 102.792C93.8656 102.396 95.5175 104.241 95.9669 107.207C96.4109 110.138 95.3794 112.389 92.7666 112.785C90.189 113.175 88.537 111.33 88.093 108.4ZM100.239 106.56C99.5064 101.722 95.6032 98.8463 90.7659 99.5792C85.964 100.307 83.0878 104.21 83.8207 109.047C84.5535 113.884 88.4514 116.725 93.2533 115.998C98.0906 115.265 100.972 111.397 100.239 106.56ZM111.058 97.155C110.54 96.8362 109.726 96.7067 108.773 96.8511C106.619 97.1774 105.241 99.0477 104.943 100.899L104.494 97.9328L100.257 98.5747L102.616 114.146L106.853 113.504L105.687 105.807C105.259 102.982 106.506 101.204 108.696 100.872C109.72 100.717 110.458 100.822 111.339 101.158L111.058 97.155ZM114.385 108.317C114.888 111.637 117.061 112.391 119.462 112.027C121.369 111.738 122.565 111.051 123.566 110.033L123.144 107.243C122.29 107.806 121.455 108.258 120.608 108.386C119.337 108.579 118.646 108.069 118.442 106.728L117.276 99.0303L121.513 98.3884L121.064 95.4225L116.827 96.0644L116.174 91.7567L113.597 92.1472L113.423 94.3406C113.29 95.8418 112.983 96.6828 111.503 97.1599L110.47 97.497L110.85 100.004L113.074 99.6669L114.385 108.317ZM135.15 103.655C134.817 105.511 133.715 106.581 131.632 106.897C129.337 107.244 127.29 105.893 126.801 103.619L138.488 101.849L138.258 100.33C137.616 96.0933 134.468 92.9583 129.384 93.7285C124.723 94.4346 121.763 98.4951 122.506 103.403C123.25 108.311 127.175 110.859 131.977 110.131C135.967 109.527 138.34 107.072 138.628 103.489L135.15 103.655ZM126.47 100.96C126.565 98.9595 127.489 97.1941 129.819 96.8411C132.185 96.4827 133.542 98.047 133.956 99.8263L126.47 100.96ZM149.194 91.3774C148.676 91.0586 147.862 90.9291 146.909 91.0735C144.755 91.3998 143.377 93.2701 143.079 95.1211L142.63 92.1552L138.393 92.7971L140.752 108.368L144.989 107.726L143.823 100.029C143.395 97.2043 144.643 95.4261 146.832 95.0944C147.856 94.9393 148.594 95.0442 149.476 95.3802L149.194 91.3774ZM156.843 101.885C157.346 105.204 159.519 105.959 161.92 105.595C163.826 105.306 165.023 104.619 166.024 103.6L165.601 100.811C164.748 101.374 163.913 101.825 163.066 101.954C161.794 102.146 161.103 101.637 160.9 100.295L159.734 92.598L163.971 91.9561L163.522 88.9901L159.285 89.6321L158.632 85.3244L156.054 85.7149L155.881 87.9083C155.747 89.4094 155.441 90.2504 153.96 90.7276L152.928 91.0646L153.308 93.5715L155.532 93.2345L156.843 101.885ZM170.07 95.4024C169.674 92.7896 170.759 90.8915 172.913 90.5652C174.996 90.2496 176.158 91.4822 176.522 93.8832L177.865 102.746L182.102 102.104L180.631 92.3939C180.107 88.9336 178.16 86.339 173.994 86.9702C171.664 87.3232 169.868 88.8233 169.359 90.7064L167.963 81.4908L163.726 82.1327L167.096 104.377L171.333 103.735L170.07 95.4024ZM192.372 93.649C192.752 96.1559 191.314 98.1075 189.09 98.4445C187.748 98.6478 186.84 98.1353 186.679 97.076C186.444 95.5224 187.702 95.0067 189.479 94.3402L192.314 93.2606L192.372 93.649ZM196.011 89.7748C195.391 85.679 192.454 84.1735 188.429 84.7833C184.298 85.4092 182.198 88.0027 182.15 91.2607L186.052 91.0307C186.175 89.459 186.968 88.2553 188.734 87.9878C190.534 87.715 191.613 88.6352 191.875 90.3653L191.928 90.7184L187.785 92.2131C184.361 93.4542 182.147 95.0537 182.596 98.0197C183.003 100.703 185.226 102.028 188.475 101.536C190.77 101.188 192.744 99.9136 193.354 97.9792C193.999 99.6151 195.284 100.468 197.049 100.2C198.462 99.9865 199.239 99.3991 199.83 98.7678L199.488 96.5081C199.061 96.7895 198.653 96.9596 198.229 97.0238C197.559 97.1254 197.076 96.8012 196.953 95.9891L196.011 89.7748ZM203.437 90.3475C203.041 87.7346 204.126 85.8365 206.279 85.5102C208.363 85.1946 209.525 86.4272 209.888 88.8282L211.231 97.6907L215.468 97.0488L213.997 87.3389C213.473 83.8787 211.527 81.284 207.36 81.9152C205.03 82.2683 203.234 83.7683 202.725 85.6514L202.34 83.1092L198.103 83.7511L200.462 99.3222L204.699 98.6803L203.437 90.3475ZM66.8898 157.847L72.5866 135.132L68.4555 135.758L65.8639 147.022L65.7226 147.044L59.8755 137.058L55.4266 137.732L64.2578 152.394L62.7234 158.478L66.8898 157.847ZM77.117 142.428C76.6676 139.462 77.6991 137.211 80.2766 136.82C82.8895 136.424 84.5415 138.269 84.9908 141.235C85.4348 144.166 84.4033 146.417 81.7905 146.813C79.2129 147.203 77.5609 145.358 77.117 142.428ZM89.2631 140.588C88.5303 135.75 84.6271 132.874 79.7898 133.607C74.9879 134.335 72.1118 138.238 72.8446 143.075C73.5775 147.912 77.4753 150.753 82.2772 150.026C87.1145 149.293 89.996 145.425 89.2631 140.588ZM100.924 139.363C101.325 142.011 100.311 143.898 98.2276 144.214C96.1444 144.53 95.0477 143.251 94.6893 140.885L93.3413 131.988L89.1043 132.629L90.5807 142.375C91.1049 145.835 92.9398 148.41 97.0709 147.784C99.4366 147.426 101.096 145.983 101.635 144.059L102.021 146.601L106.258 145.959L103.899 130.388L99.6616 131.03L100.924 139.363ZM123.625 135.671C124.058 138.531 122.59 140.523 120.189 140.887C117.541 141.288 115.869 139.555 115.426 136.624C114.976 133.658 116.059 131.508 118.707 131.106C121.108 130.743 123.106 132.246 123.534 135.071L123.625 135.671ZM124.723 143.162L128.96 142.52L125.59 120.275L121.353 120.917L122.819 130.592C121.824 128.792 119.687 127.563 116.933 127.98C112.308 128.681 110.458 132.681 111.153 137.271C111.849 141.862 114.795 145.099 119.421 144.399C122.175 143.981 123.851 142.174 124.274 140.196L124.723 143.162ZM139.494 125.212C138.976 124.893 138.162 124.764 137.209 124.908C135.055 125.235 133.677 127.105 133.379 128.956L132.93 125.99L128.693 126.632L131.052 142.203L135.289 141.561L134.123 133.864C133.695 131.039 134.942 129.261 137.131 128.929C138.155 128.774 138.894 128.879 139.775 129.215L139.494 125.212ZM139.98 124.922L142.339 140.493L146.576 139.851L144.217 124.28L139.98 124.922ZM139.524 122.39L143.867 121.732L143.241 117.601L138.898 118.259L139.524 122.39ZM151.635 130.561C151.239 127.948 152.324 126.05 154.478 125.723C156.561 125.408 157.723 126.64 158.087 129.041L159.429 137.904L163.666 137.262L162.195 127.552C161.671 124.092 159.725 121.497 155.558 122.128C153.228 122.481 151.433 123.981 150.923 125.865L150.538 123.322L146.301 123.964L148.66 139.535L152.897 138.893L151.635 130.561ZM169.037 131.03L170.586 129.098L177.007 135.241L181.844 134.508L173.335 126.262L179.238 118.974L174.118 119.75L168.427 127.005L166.469 114.082L162.232 114.724L165.602 136.969L169.839 136.327L169.037 131.03ZM179.909 129.528C180.769 133.298 184.143 134.593 188.204 133.978C192.229 133.368 194.716 131.185 194.234 128.008C193.79 125.077 191.64 123.994 188.276 123.962L185.235 123.917C184.078 123.912 183.439 123.503 183.31 122.656C183.15 121.596 184.037 120.776 185.555 120.546C187.779 120.209 189.114 120.909 189.664 122.632L193.138 121.961C192.331 118.544 189.459 116.992 185.152 117.645C181.197 118.244 179 120.672 179.45 123.638C179.888 126.533 181.912 127.491 185.311 127.517L187.847 127.567C189.438 127.578 190.213 127.931 190.374 128.99C190.545 130.12 189.354 130.842 187.801 131.077C185.647 131.404 184.09 130.664 183.559 128.83L179.909 129.528ZM200.379 131.7L205.111 130.983L204.394 126.252L199.662 126.969L200.379 131.7Z" fill="#1B2D2A"/>
<g clip-path="url(#clip1_734_12488)">
<path d="M223.823 340.55L262.827 334.641L263.348 284.05L207.839 292.46L223.823 340.55Z" fill="#94B6FF"/>
<path d="M131.494 354.539L92.4903 360.448L76.5062 312.357L132.028 303.946L131.494 354.539Z" fill="#94B6FF"/>
<path d="M128.922 267.318L200.447 256.482L200.61 259.482L129.654 270.232L128.922 267.318Z" fill="#94B6FF"/>
<path d="M127.812 262.922L124.642 250.334L199.504 238.993L200.205 251.955L127.812 262.922Z" fill="#94B6FF"/>
<path d="M200.868 264.021L205.176 343.375L150.128 351.715L130.753 274.644L200.868 264.021Z" fill="#94B6FF"/>
</g>
<g clip-path="url(#clip2_734_12488)">
<path d="M101.19 395.835C100.604 395.061 98.4883 392.753 94.4534 393.365C90.4423 393.972 89.0974 396.774 88.7572 397.703C88.7229 397.796 88.7127 397.896 88.7276 397.995C88.7424 398.093 88.7819 398.185 88.8421 398.264C89.4424 399.051 91.5566 401.328 95.5678 400.721C99.6026 400.109 100.94 397.279 101.27 396.365C101.302 396.278 101.311 396.183 101.297 396.09C101.283 395.998 101.246 395.91 101.19 395.835V395.835ZM96.6122 397.053L95.637 397.2L96.4324 397.795L96.1403 398.196L95.345 397.602L95.4946 398.59L95.0068 398.664L94.8571 397.676L94.2734 398.479L93.8754 398.182L94.459 397.379L93.484 397.527L93.4091 397.032L94.3841 396.885L93.5888 396.291L93.8809 395.889L94.6764 396.483L94.5267 395.495L95.0145 395.421L95.1642 396.409L95.7479 395.606L96.1459 395.903L95.5622 396.706L96.5373 396.558L96.6122 397.053Z" fill="#C4B8FF"/>
</g>
<path d="M109.564 396.594C109.444 395.799 108.856 395.437 108.166 395.415C108.752 395.227 109.109 394.721 109.014 394.094C108.876 393.185 108.185 392.676 106.781 392.888L104.31 393.263L105.152 398.824L107.765 398.428C109.063 398.232 109.71 397.556 109.564 396.594ZM107.276 396.037C107.965 395.933 108.346 396.182 108.417 396.65C108.486 397.109 108.195 397.451 107.506 397.555L106.094 397.769L105.864 396.251L107.276 396.037ZM105.522 393.991L106.846 393.791C107.508 393.69 107.836 393.948 107.899 394.363C107.961 394.777 107.723 395.112 107.061 395.212L105.737 395.412L105.522 393.991ZM111.092 395.938C110.98 395.196 111.238 394.633 111.882 394.536C112.535 394.437 112.948 394.898 113.06 395.639C113.171 396.372 112.914 396.935 112.26 397.034C111.616 397.131 111.203 396.67 111.092 395.938ZM114.129 395.478C113.945 394.268 112.97 393.549 111.76 393.732C110.56 393.914 109.841 394.89 110.024 396.099C110.207 397.309 111.182 398.019 112.382 397.837C113.591 397.654 114.312 396.687 114.129 395.478ZM115.073 396.31C115.199 397.139 115.742 397.328 116.342 397.237C116.819 397.165 117.118 396.993 117.368 396.738L117.263 396.041C117.049 396.182 116.841 396.295 116.629 396.327C116.311 396.375 116.138 396.248 116.087 395.912L115.796 393.988L116.855 393.827L116.743 393.086L115.684 393.246L115.52 392.169L114.876 392.267L114.833 392.815C114.799 393.191 114.723 393.401 114.353 393.52L114.094 393.605L114.189 394.231L114.745 394.147L115.073 396.31ZM117.987 395.868C118.112 396.698 118.656 396.887 119.256 396.796C119.733 396.723 120.032 396.552 120.282 396.297L120.176 395.6C119.963 395.74 119.754 395.853 119.542 395.885C119.225 395.934 119.052 395.806 119.001 395.471L118.71 393.546L119.769 393.386L119.656 392.645L118.597 392.805L118.434 391.728L117.79 391.826L117.746 392.374C117.713 392.749 117.636 392.96 117.266 393.079L117.008 393.163L117.103 393.79L117.659 393.706L117.987 395.868ZM121.445 394.369C121.333 393.628 121.59 393.065 122.235 392.967C122.888 392.868 123.301 393.329 123.413 394.071C123.524 394.804 123.267 395.366 122.613 395.465C121.969 395.563 121.556 395.102 121.445 394.369ZM124.481 393.909C124.298 392.7 123.322 391.981 122.113 392.164C120.913 392.346 120.194 393.322 120.377 394.531C120.56 395.74 121.535 396.45 122.735 396.269C123.944 396.085 124.665 395.118 124.481 393.909ZM128.49 392.02C128.25 391.568 127.812 391.301 127.124 391.405C126.532 391.494 126.137 391.861 126.009 392.332L125.913 391.697L124.854 391.857L125.443 395.75L126.503 395.589L126.187 393.506C126.088 392.853 126.333 392.383 126.845 392.305C127.357 392.227 127.603 392.542 127.694 393.142L128.03 395.358L129.089 395.198L128.773 393.114C128.675 392.461 128.919 391.991 129.431 391.913C129.952 391.834 130.19 392.15 130.281 392.751L130.616 394.966L131.675 394.806L131.308 392.378C131.179 391.531 130.734 390.858 129.684 391.017C129.048 391.113 128.633 391.528 128.49 392.02ZM132.043 393.432C132.258 394.374 133.102 394.698 134.117 394.544C135.123 394.392 135.745 393.846 135.624 393.052C135.513 392.319 134.976 392.048 134.135 392.04L133.375 392.029C133.085 392.028 132.925 391.926 132.893 391.714C132.853 391.449 133.075 391.244 133.455 391.186C134.011 391.102 134.344 391.277 134.482 391.708L135.35 391.54C135.149 390.686 134.431 390.298 133.354 390.461C132.365 390.611 131.816 391.218 131.928 391.959C132.038 392.683 132.544 392.922 133.394 392.929L134.027 392.941C134.425 392.944 134.619 393.032 134.659 393.297C134.702 393.58 134.404 393.76 134.016 393.819C133.478 393.901 133.088 393.716 132.956 393.257L132.043 393.432ZM140.367 391.638C140.468 392.3 140.214 392.772 139.693 392.851C139.172 392.93 138.898 392.61 138.809 392.018L138.472 389.794L137.412 389.954L137.782 392.391C137.913 393.256 138.371 393.9 139.404 393.743C139.996 393.654 140.41 393.293 140.545 392.812L140.641 393.447L141.701 393.287L141.111 389.394L140.052 389.555L140.367 391.638ZM143.342 390.97C143.235 390.264 143.592 389.759 144.192 389.668C144.863 389.566 145.281 390 145.393 390.741C145.504 391.474 145.233 392.011 144.563 392.113C143.962 392.204 143.473 391.836 143.365 391.121L143.342 390.97ZM143.545 392.249C143.792 392.69 144.318 392.999 145.015 392.893C146.162 392.719 146.635 391.727 146.461 390.579C146.287 389.432 145.541 388.615 144.393 388.789C143.696 388.894 143.285 389.345 143.181 389.848L143.067 389.098L142.008 389.258L142.817 394.599L143.876 394.438L143.545 392.249Z" fill="#1B2D2A"/>
</g>
<defs>
<filter id="filter0_d_734_12488" x="-1.733" y="-1.49354" width="323.343" height="451.294" filterUnits="userSpaceOnUse" color-interpolation-filters="sRGB">
<feFlood flood-opacity="0" result="BackgroundImageFix"/>
<feColorMatrix in="SourceAlpha" type="matrix" values="0 0 0 0 0 0 0 0 0 0 0 0 0 0 0 0 0 0 127 0" result="hardAlpha"/>
<feOffset dy="9.26698"/>
<feGaussianBlur stdDeviation="9.26698"/>
<feColorMatrix type="matrix" values="0 0 0 0 0.105882 0 0 0 0 0.176471 0 0 0 0 0.164706 0 0 0 0.2 0"/>
<feBlend mode="normal" in2="BackgroundImageFix" result="effect1_dropShadow_734_12488"/>
<feBlend mode="normal" in="SourceGraphic" in2="effect1_dropShadow_734_12488" result="shape"/>
</filter>
<clipPath id="clip0_734_12488">
<rect width="231.381" height="383.9" fill="white" transform="translate(16.801 42.4316) rotate(-8.61476)"/>
</clipPath>
<clipPath id="clip1_734_12488">
<rect width="188.974" height="104.054" fill="white" transform="translate(68.4007 258.854) rotate(-8.61476)"/>
</clipPath>
<clipPath id="clip2_734_12488">
<rect width="12.7129" height="7.43991" fill="white" transform="translate(88.1705 394.316) rotate(-8.61476)"/>
</clipPath>
</defs>
</svg>
