<svg width="367" height="497" viewBox="0 0 367 497" fill="none" xmlns="http://www.w3.org/2000/svg">
<g filter="url(#filter0_d_756_13558)">
<rect x="102.208" y="5" width="256.579" height="425.706" rx="19.8003" transform="rotate(12 102.208 5)" fill="white"/>
<g clip-path="url(#clip0_756_13558)">
<path d="M200.264 63.4937C199.958 62.4613 198.663 59.24 194.237 58.2991C189.836 57.3638 187.347 59.7461 186.63 60.5785C186.559 60.6614 186.509 60.7614 186.486 60.869C186.463 60.9766 186.468 61.0882 186.5 61.1932C186.815 62.2449 188.121 65.4338 192.521 66.3692C196.948 67.3101 199.441 64.8938 200.14 64.0751C200.207 63.9963 200.254 63.9017 200.275 63.8001C200.297 63.6984 200.293 63.593 200.264 63.4937ZM195.037 62.9699L193.967 62.7425L194.561 63.6696L194.101 63.9725L193.507 63.0455L193.277 64.1292L192.742 64.0154L192.972 62.9317L192.053 63.5371L191.756 63.0734L192.675 62.4678L191.605 62.2404L191.721 61.6982L192.79 61.9255L192.197 60.9984L192.657 60.6955L193.25 61.6227L193.481 60.5389L194.016 60.6526L193.786 61.7365L194.705 61.1309L195.002 61.5947L194.083 62.2002L195.152 62.4276L195.037 62.9699Z" fill="#F4F449"/>
</g>
<path d="M208.801 68.5515L206.834 64.5201L209.894 62.4075L208.48 62.107L205.289 64.3131L205.875 61.5533L204.665 61.296L203.368 67.3968L204.579 67.6541L205.009 65.6301L205.776 65.1151L207.348 68.2428L208.801 68.5515ZM210.897 66.6085C211.05 65.8919 211.516 65.5053 212.107 65.6308C212.678 65.7523 212.86 66.1855 212.72 66.844L212.203 69.2747L213.365 69.5217L213.931 66.8586C214.133 65.9096 213.881 65.0464 212.738 64.8035C212.099 64.6677 211.487 64.8816 211.171 65.3205L211.319 64.6233L210.157 64.3763L209.249 68.6469L210.412 68.8939L210.897 66.6085ZM215.672 67.7854C215.845 66.9719 216.333 66.4885 217.039 66.6387C217.756 66.7911 218.005 67.4309 217.832 68.2444C217.661 69.0481 217.174 69.5316 216.457 69.3793C215.75 69.229 215.501 68.5891 215.672 67.7854ZM219.003 68.4934C219.285 67.1668 218.553 66.0395 217.227 65.7575C215.91 65.4776 214.783 66.2096 214.501 67.5363C214.219 68.863 214.953 69.9806 216.27 70.2605C217.596 70.5425 218.721 69.8201 219.003 68.4934ZM223.494 67.2111L222.554 67.0114L221.175 69.6938L221.136 69.6856L220.85 66.6491L219.698 66.4042L220.146 70.9629L221.279 71.2038L222.652 68.5504L222.691 68.5587L222.867 71.5413L223.99 71.7801L226.254 67.7977L225.198 67.5734L223.712 70.2331L223.673 70.2248L223.494 67.2111ZM228.941 66.4559L227.644 72.5567L228.854 72.814L230.151 66.7132L228.941 66.4559ZM230.27 71.9812C230.076 72.8915 230.566 73.2994 231.225 73.4393C231.748 73.5505 232.125 73.489 232.484 73.3225L232.647 72.5574C232.371 72.6201 232.11 72.6558 231.878 72.6064C231.529 72.5323 231.399 72.3327 231.478 71.9647L231.926 69.8536L233.088 70.1006L233.261 69.2872L232.099 69.0402L232.35 67.8588L231.643 67.7085L231.384 68.2607C231.203 68.6372 231.042 68.8255 230.611 68.8048L230.31 68.7915L230.164 69.479L230.774 69.6087L230.27 71.9812ZM238.161 68.4157L234.394 73.9916L235.615 74.2509L236.526 72.8658L239.122 73.4175L239.411 75.0578L240.699 75.3316L239.507 68.7018L238.161 68.4157ZM238.478 69.9205L238.517 69.9287L238.951 72.4096L237.092 72.0144L238.478 69.9205ZM242.548 69.3483L241.251 75.4491L242.414 75.6961L243.71 69.5953L242.548 69.3483ZM244.685 69.8026L243.389 75.9034L244.551 76.1504L245.848 70.0496L244.685 69.8026Z" fill="#1B2D2A"/>
<path d="M250.149 75.4477C250.227 75.1302 250.413 74.9674 250.81 74.7683C251.54 74.4276 252.185 74.0587 252.36 73.2355C252.574 72.2284 252.016 71.2392 250.573 70.9325C249.217 70.6443 248.151 71.2781 247.879 72.5563C247.84 72.7403 247.828 72.9402 247.826 73.1421L249.006 73.4437C249.003 73.2708 249.009 73.1 249.052 72.8967C249.202 72.1897 249.64 71.797 250.347 71.9472C250.957 72.0769 251.175 72.5281 251.072 73.0123C250.946 73.603 250.488 73.8091 249.989 74.0575C249.435 74.3343 249.154 74.6998 249.036 75.211L250.149 75.4477ZM248.544 76.9992L249.832 77.273L250.108 75.9754L248.82 75.7016L248.544 76.9992Z" fill="#F4F449"/>
<path d="M170.939 89.1474L167.969 88.5162L162.277 99.8028L162.174 99.7808L161.72 87.1878L158.492 86.5017L159.243 103.665L162.781 104.417L168.372 93.352L168.475 93.374L169.056 105.751L172.62 106.508L180.287 91.1344L177.188 90.4757L171.672 101.827L171.568 101.805L170.939 89.1474ZM181.925 102.117C182.331 100.206 183.576 99.1748 185.151 99.5096C186.675 99.8335 187.158 100.989 186.785 102.745L185.407 109.226L188.506 109.885L190.015 102.784C190.553 100.253 189.882 97.9511 186.835 97.3034C185.13 96.9411 183.498 97.5117 182.655 98.6821L184.088 91.9422L180.989 91.2835L177.531 107.552L180.63 108.211L181.925 102.117ZM198.082 106.765C197.692 108.599 196.189 109.575 194.562 109.229C193.581 109.021 193.086 108.43 193.251 107.655C193.492 106.519 194.497 106.489 195.9 106.491L198.142 106.481L198.082 106.765ZM201.608 105.032C202.245 102.036 200.605 100.23 197.661 99.6045C194.639 98.9623 192.512 100.21 191.63 102.452L194.39 103.309C194.884 102.253 195.746 101.627 197.038 101.901C198.355 102.181 198.861 103.099 198.592 104.364L198.537 104.622L195.281 104.578C192.589 104.545 190.641 105.076 190.18 107.245C189.763 109.208 190.956 110.703 193.332 111.208C195.011 111.565 196.708 111.197 197.634 110.017C197.654 111.317 198.321 112.241 199.613 112.516C200.646 112.735 201.337 112.531 201.91 112.248L202.261 110.596C201.892 110.679 201.566 110.691 201.256 110.625C200.765 110.521 200.516 110.171 200.642 109.577L201.608 105.032ZM203.348 110.017C202.832 112.444 204.139 113.532 205.895 113.905C207.289 114.202 208.296 114.038 209.254 113.594L209.688 111.554C208.95 111.721 208.255 111.816 207.636 111.684C206.706 111.487 206.36 110.954 206.569 109.973L207.765 104.343L210.864 105.002L211.325 102.833L208.226 102.174L208.896 99.0238L207.011 98.6231L206.32 100.096C205.837 101.1 205.406 101.602 204.257 101.547L203.455 101.511L203.065 103.344L204.692 103.69L203.348 110.017ZM216.316 103.894L213.895 115.282L216.994 115.941L219.415 104.552L216.316 103.894ZM216.66 102.023L219.836 102.699L220.478 99.6773L217.302 99.0021L216.66 102.023ZM218.763 112.376C218.377 115.209 220.375 116.983 223.344 117.614C226.288 118.24 228.577 117.377 229.071 115.053C229.526 112.909 228.32 111.6 226.001 110.703L223.909 109.88C223.11 109.575 222.773 109.126 222.905 108.506C223.07 107.731 223.897 107.394 225.008 107.63C226.634 107.976 227.375 108.809 227.307 110.144L229.886 110.584C230.217 108.009 228.634 106.188 225.483 105.518C222.591 104.904 220.439 106.012 219.978 108.181C219.528 110.298 220.679 111.488 223.024 112.391L224.766 113.085C225.864 113.507 226.309 113.953 226.144 114.728C225.968 115.554 224.956 115.744 223.82 115.502C222.245 115.167 221.36 114.251 221.47 112.843L218.763 112.376ZM234.341 116.605C233.825 119.032 235.132 120.12 236.888 120.493C238.283 120.789 239.289 120.626 240.247 120.181L240.681 118.141C239.943 118.308 239.249 118.404 238.629 118.272C237.699 118.074 237.353 117.542 237.562 116.561L238.759 110.931L241.857 111.59L242.318 109.421L239.22 108.762L239.889 105.612L238.004 105.211L237.313 106.683C236.83 107.687 236.399 108.19 235.251 108.134L234.448 108.099L234.059 109.932L235.686 110.278L234.341 116.605ZM245.45 115.619C245.856 113.708 247.101 112.677 248.676 113.012C250.199 113.336 250.683 114.491 250.309 116.247L248.932 122.729L252.03 123.388L253.54 116.286C254.078 113.756 253.407 111.454 250.359 110.806C248.655 110.444 247.022 111.014 246.18 112.185L247.612 105.445L244.514 104.786L241.055 121.055L244.154 121.714L245.45 115.619ZM262.901 121.542C262.188 122.74 261.147 123.193 259.623 122.869C257.945 122.513 256.88 121.045 257.134 119.344L265.681 121.161L265.917 120.051C266.576 116.952 265.214 113.963 261.495 113.173C258.087 112.448 254.981 114.487 254.218 118.077C253.455 121.666 255.508 124.451 259.02 125.197C261.939 125.818 264.219 124.737 265.351 122.333L262.901 121.542ZM257.597 117.419C258.183 116.059 259.282 115.078 260.986 115.44C262.717 115.808 263.248 117.243 263.072 118.582L257.597 117.419ZM122.326 116.461C121.557 120.076 123.557 122.985 127.069 123.731C130.452 124.45 132.783 122.625 133.623 119.942L131.064 119.155C130.464 120.836 129.278 121.718 127.574 121.355C125.87 120.993 124.951 119.475 125.45 117.125C125.955 114.75 127.412 113.737 129.116 114.099C130.821 114.461 131.551 115.723 131.421 117.477L134.068 117.85C134.391 115.058 133.004 112.442 129.621 111.723C126.109 110.977 123.094 112.846 122.326 116.461ZM138.137 119.39C138.543 117.479 139.788 116.448 141.363 116.783C142.887 117.107 143.37 118.262 142.997 120.018L141.619 126.5L144.718 127.159L146.227 120.057C146.765 117.526 146.094 115.225 143.047 114.577C141.342 114.215 139.71 114.785 138.867 115.956L140.3 109.216L137.201 108.557L133.743 124.826L136.842 125.484L138.137 119.39ZM155.589 125.313C154.875 126.511 153.834 126.964 152.311 126.64C150.632 126.283 149.568 124.816 149.821 123.115L158.369 124.932L158.605 123.822C159.263 120.723 157.901 117.734 154.183 116.944C150.774 116.219 147.669 118.258 146.906 121.848C146.143 125.437 148.196 128.222 151.708 128.968C154.626 129.588 156.907 128.508 158.039 126.103L155.589 125.313ZM150.284 121.189C150.87 119.829 151.969 118.849 153.674 119.211C155.404 119.579 155.936 121.014 155.759 122.353L150.284 121.189ZM170.824 122.937C170.629 121.438 169.696 120.241 167.682 119.813C165.952 119.445 164.474 120.049 163.631 121.219L164.027 119.36L160.928 118.701L158.507 130.09L161.606 130.748L162.901 124.654C163.308 122.743 164.475 121.696 165.973 122.014C167.47 122.332 167.824 123.46 167.451 125.216L166.073 131.698L169.172 132.357L170.468 126.262C170.874 124.351 172.041 123.304 173.539 123.622C175.062 123.946 175.391 125.068 175.017 126.824L173.64 133.306L176.739 133.965L178.248 126.863C178.775 124.384 178.244 122.058 175.171 121.405C173.311 121.01 171.729 121.726 170.824 122.937ZM180.825 122.931L178.404 134.319L181.503 134.978L183.924 123.589L180.825 122.931ZM181.169 121.06L184.345 121.736L184.987 118.714L181.811 118.039L181.169 121.06ZM183.833 129.535C183.064 133.15 185.064 136.058 188.576 136.805C191.959 137.524 194.29 135.698 195.131 133.016L192.572 132.229C191.972 133.91 190.786 134.791 189.081 134.429C187.377 134.067 186.458 132.549 186.957 130.199C187.462 127.823 188.919 126.81 190.624 127.173C192.328 127.535 193.058 128.797 192.929 130.551L195.575 130.924C195.899 128.132 194.512 125.516 191.129 124.797C187.617 124.05 184.601 125.92 183.833 129.535ZM203.142 134.422C202.752 136.255 201.249 137.231 199.622 136.886C198.641 136.677 198.146 136.086 198.31 135.311C198.552 134.175 199.557 134.146 200.96 134.147L203.202 134.138L203.142 134.422ZM206.668 132.688C207.305 129.693 205.664 127.887 202.721 127.261C199.699 126.619 197.572 127.867 196.69 130.109L199.45 130.965C199.944 129.91 200.806 129.283 202.097 129.558C203.414 129.838 203.921 130.755 203.652 132.02L203.597 132.279L200.341 132.234C197.649 132.202 195.701 132.732 195.24 134.901C194.822 136.864 196.016 138.359 198.392 138.864C200.07 139.221 201.768 138.853 202.694 137.673C202.714 138.973 203.381 139.898 204.672 140.172C205.705 140.392 206.397 140.188 206.969 139.905L207.321 138.252C206.952 138.336 206.626 138.347 206.316 138.281C205.825 138.177 205.576 137.827 205.702 137.233L206.668 132.688ZM210.989 124.241L207.531 140.51L210.63 141.169L214.088 124.9L210.989 124.241ZM216.232 138.419C215.846 141.252 217.844 143.026 220.813 143.657C223.757 144.283 226.046 143.42 226.54 141.096C226.996 138.952 225.789 137.643 223.47 136.746L221.378 135.923C220.579 135.618 220.243 135.169 220.374 134.549C220.539 133.774 221.366 133.437 222.477 133.673C224.104 134.019 224.844 134.851 224.777 136.187L227.355 136.627C227.686 134.052 226.103 132.231 222.953 131.561C220.06 130.947 217.909 132.055 217.448 134.224C216.997 136.341 218.148 137.531 220.493 138.434L222.235 139.128C223.333 139.55 223.778 139.996 223.613 140.77C223.438 141.597 222.426 141.787 221.289 141.545C219.714 141.21 218.829 140.293 218.94 138.886L216.232 138.419ZM230.726 149.867L240.58 135.632L237.559 134.99L232.833 142.11L232.73 142.088L231.283 133.656L228.03 132.964L230.324 145.409L227.679 149.219L230.726 149.867ZM251.068 139.994C250.874 138.495 249.941 137.298 247.926 136.87C246.196 136.502 244.718 137.105 243.876 138.276L244.271 136.417L241.172 135.758L238.752 147.146L241.85 147.805L243.146 141.71C243.552 139.799 244.719 138.752 246.217 139.07C247.715 139.389 248.069 140.517 247.696 142.273L246.318 148.754L249.417 149.413L250.712 143.319C251.118 141.408 252.286 140.36 253.783 140.679C255.307 141.003 255.635 142.125 255.262 143.881L253.884 150.363L256.983 151.021L258.492 143.92C259.019 141.441 258.488 139.115 255.415 138.461C253.556 138.066 251.973 138.782 251.068 139.994ZM262.979 146.115C263.418 144.049 264.932 143.021 266.688 143.395C268.65 143.812 269.356 145.446 268.895 147.615C268.439 149.759 267.13 150.965 265.167 150.548C263.411 150.175 262.441 148.646 262.885 146.554L262.979 146.115ZM262.059 149.806C262.351 151.353 263.567 152.745 265.555 153.167C268.964 153.892 271.306 151.637 272.019 148.28C272.733 144.922 271.516 141.884 268.159 141.17C266.119 140.737 264.515 141.556 263.702 142.841L265.206 135.765L262.107 135.107L258.649 151.375L261.025 151.88L262.059 149.806ZM275.7 149.062C276.162 146.893 277.461 145.604 279.346 146.004C281.257 146.411 281.92 148.117 281.459 150.286C281.004 152.429 279.704 153.719 277.793 153.312C275.908 152.912 275.245 151.205 275.7 149.062ZM284.584 150.95C285.336 147.412 283.384 144.406 279.846 143.654C276.334 142.908 273.328 144.86 272.576 148.398C271.824 151.936 273.781 154.916 277.293 155.662C280.831 156.414 283.832 154.488 284.584 150.95ZM287.981 140.606L284.523 156.875L287.622 157.534L291.08 141.265L287.981 140.606ZM154.378 146.157L152.418 155.376L155.491 156.029L157.451 146.81L160.498 147.458L160.959 145.289L157.912 144.641L158.164 143.453C158.389 142.395 158.956 141.759 159.912 141.962C160.712 142.133 161.099 142.728 161.203 143.506L163.329 143.283C163.222 141.371 162.166 140.12 160.1 139.681C157.543 139.138 155.607 140.373 155.042 143.033L154.839 143.988L153.16 143.631L152.699 145.8L154.378 146.157ZM162.575 151.597C163.036 149.428 164.336 148.139 166.221 148.54C168.132 148.946 168.795 150.652 168.334 152.821C167.878 154.965 166.578 156.254 164.668 155.848C162.782 155.447 162.119 153.741 162.575 151.597ZM171.458 153.485C172.21 149.948 170.258 146.942 166.72 146.19C163.208 145.443 160.202 147.395 159.45 150.933C158.698 154.471 160.656 157.451 164.168 158.198C167.706 158.95 170.706 157.023 171.458 153.485ZM181.661 149.851C181.386 149.496 180.856 149.194 180.159 149.046C178.584 148.711 177.143 149.647 176.456 150.85L176.917 148.681L173.818 148.022L171.397 159.41L174.496 160.069L175.693 154.439C176.132 152.374 177.458 151.468 179.059 151.808C179.808 151.967 180.291 152.232 180.814 152.694L181.661 149.851ZM190.971 163.895C193.295 164.389 195.527 163.918 196.712 162.281L196.201 164.683L199.068 165.292L200.813 157.08L193.479 155.521L192.969 157.923L197.281 158.839C196.377 160.806 194.419 161.767 192.121 161.278C188.944 160.603 187.454 157.965 188.195 154.479C188.919 151.07 191.297 149.281 194.266 149.913C196.978 150.489 198.244 152.404 197.94 154.85L201.118 155.39C201.655 151.213 199.493 148.054 194.793 147.056C190.222 146.084 185.903 148.756 184.838 153.765C183.767 158.801 186.426 162.929 190.971 163.895ZM204.538 160.517C204.999 158.348 206.299 157.058 208.184 157.459C210.095 157.865 210.758 159.572 210.297 161.741C209.841 163.884 208.542 165.173 206.631 164.767C204.746 164.367 204.083 162.66 204.538 160.517ZM213.421 162.405C214.173 158.867 212.221 155.861 208.684 155.109C205.172 154.363 202.166 156.315 201.414 159.853C200.662 163.39 202.619 166.371 206.131 167.117C209.669 167.869 212.67 165.943 213.421 162.405ZM216.818 152.061L213.36 168.33L216.459 168.989L219.917 152.72L216.818 152.061ZM227.835 165.685C227.39 167.776 225.856 168.773 224.1 168.399C222.163 167.988 221.458 166.353 221.914 164.21C222.375 162.041 223.684 160.835 225.62 161.246C227.376 161.62 228.367 163.18 227.928 165.246L227.835 165.685ZM226.645 171.154L229.744 171.812L233.202 155.544L230.103 154.885L228.599 161.961C228.379 160.456 227.221 159.049 225.207 158.621C221.824 157.902 219.503 160.189 218.789 163.546C218.075 166.903 219.272 169.91 222.654 170.629C224.669 171.057 226.299 170.243 227.106 168.985L226.645 171.154ZM243.065 169.597C243.272 168.75 243.769 168.316 244.826 167.785C246.774 166.876 248.495 165.892 248.961 163.697C249.532 161.012 248.041 158.374 244.194 157.556C240.578 156.788 237.736 158.478 237.012 161.886C236.907 162.377 236.875 162.91 236.868 163.448L240.017 164.253C240.007 163.792 240.023 163.336 240.138 162.794C240.539 160.909 241.706 159.861 243.592 160.262C245.218 160.608 245.799 161.811 245.525 163.102C245.19 164.677 243.967 165.227 242.638 165.889C241.159 166.627 240.412 167.602 240.095 168.965L243.065 169.597ZM238.785 173.734L242.219 174.464L242.955 171.004L239.52 170.274L238.785 173.734Z" fill="#1B2D2A"/>
<path d="M147.288 434.583L152.309 427.148L150.682 426.803L149.467 428.649L146.006 427.914L145.621 425.727L143.904 425.362L145.493 434.202L147.288 434.583ZM146.864 432.577L146.812 432.566L146.234 429.258L148.713 429.785L146.864 432.577ZM138.909 427.067C139.115 426.098 139.711 425.577 140.473 425.739C141.235 425.901 141.448 426.486 141.264 427.351L140.572 430.605L142.122 430.934L142.879 427.371C143.148 426.105 142.849 424.976 141.338 424.654C140.473 424.471 139.711 424.754 139.274 425.349L139.472 424.42L137.922 424.09L136.712 429.784L138.261 430.114L138.909 427.067Z" fill="#1B2D2A"/>
<g clip-path="url(#clip1_756_13558)">
<path d="M156.119 370.398C191.611 377.942 226.498 355.286 234.043 319.794C241.587 284.302 218.93 249.415 183.438 241.871C147.947 234.327 113.059 256.983 105.515 292.475C97.9711 327.966 120.627 362.854 156.119 370.398Z" fill="url(#paint0_linear_756_13558)"/>
<path d="M183.372 242.183C196.02 244.872 207.587 251.251 216.61 260.513C225.633 269.776 231.707 281.506 234.063 294.22C236.42 306.934 234.953 320.062 229.849 331.943C224.744 343.824 216.232 353.924 205.387 360.967C194.542 368.01 181.852 371.678 168.922 371.509C155.993 371.34 143.403 367.34 132.747 360.016C122.09 352.692 113.844 342.372 109.053 330.362C104.261 318.351 103.138 305.19 105.827 292.541C109.432 275.58 119.627 260.746 134.17 251.302C148.712 241.858 166.411 238.578 183.372 242.183ZM183.501 241.576C170.732 238.862 157.446 239.995 145.321 244.832C133.197 249.669 122.779 257.993 115.385 268.751C107.991 279.509 103.954 292.218 103.783 305.271C103.612 318.323 107.316 331.134 114.425 342.081C121.535 353.029 131.731 361.623 143.725 366.776C155.718 371.929 168.971 373.409 181.806 371.03C194.641 368.652 206.483 362.52 215.833 353.411C225.184 344.302 231.623 332.625 234.337 319.857C237.957 302.737 234.637 284.88 225.107 270.204C215.576 255.528 200.613 245.232 183.501 241.576V241.576Z" fill="#F4F449"/>
<path d="M177.048 272.019C176.689 271.943 176.315 272.012 176.007 272.212C175.699 272.412 175.483 272.726 175.407 273.085C175.09 274.117 174.422 275.006 173.517 275.596C172.613 276.186 171.53 276.44 170.458 276.314C170.28 276.268 170.094 276.26 169.913 276.29C169.731 276.32 169.558 276.387 169.404 276.487C169.25 276.587 169.118 276.718 169.017 276.872C168.916 277.026 168.848 277.199 168.817 277.38C168.769 277.557 168.759 277.741 168.786 277.922C168.814 278.103 168.88 278.277 168.978 278.431C169.077 278.585 169.207 278.717 169.36 278.818C169.513 278.919 169.685 278.987 169.865 279.018C170.907 279.312 171.799 279.987 172.365 280.909C172.982 281.8 173.237 282.891 173.077 283.963C173.005 284.321 173.077 284.694 173.276 285C173.475 285.307 173.786 285.524 174.143 285.604C174.501 285.676 174.874 285.604 175.18 285.405C175.487 285.206 175.704 284.895 175.784 284.538C176.074 283.495 176.75 282.601 177.676 282.038C178.568 281.426 179.658 281.172 180.729 281.327C180.907 281.37 181.092 281.376 181.273 281.345C181.453 281.314 181.625 281.246 181.779 281.147C181.933 281.047 182.064 280.917 182.166 280.765C182.268 280.612 182.337 280.441 182.371 280.261C182.416 280.084 182.424 279.9 182.395 279.72C182.366 279.54 182.3 279.368 182.202 279.214C182.104 279.061 181.975 278.929 181.823 278.827C181.672 278.726 181.501 278.656 181.322 278.623C180.293 278.302 179.41 277.629 178.827 276.723C178.243 275.816 177.997 274.734 178.132 273.664C178.208 273.305 178.138 272.931 177.939 272.623C177.739 272.315 177.425 272.099 177.066 272.023L177.048 272.019ZM142.262 287.534C141.903 287.463 141.531 287.534 141.224 287.733C140.918 287.932 140.701 288.243 140.621 288.6C140.301 289.628 139.631 290.512 138.728 291.099C137.825 291.686 136.745 291.938 135.675 291.811C135.497 291.769 135.312 291.763 135.132 291.793C134.951 291.824 134.779 291.892 134.626 291.992C134.472 292.091 134.34 292.221 134.239 292.374C134.137 292.526 134.067 292.697 134.034 292.877C133.989 293.054 133.981 293.238 134.01 293.418C134.039 293.598 134.104 293.77 134.203 293.924C134.301 294.077 134.43 294.209 134.581 294.311C134.733 294.413 134.903 294.482 135.083 294.515C136.114 294.839 137 295.512 137.588 296.418C138.177 297.325 138.431 298.408 138.308 299.481C138.268 299.658 138.263 299.84 138.295 300.019C138.326 300.197 138.392 300.367 138.49 300.519C138.587 300.672 138.714 300.803 138.863 300.906C139.012 301.009 139.179 301.081 139.356 301.119C139.713 301.19 140.084 301.118 140.388 300.918C140.692 300.717 140.905 300.405 140.98 300.049C141.308 299.011 141.99 298.12 142.907 297.532C143.824 296.945 144.918 296.698 145.999 296.835C146.358 296.912 146.732 296.842 147.04 296.642C147.348 296.442 147.564 296.128 147.64 295.769C147.716 295.41 147.647 295.036 147.447 294.728C147.247 294.42 146.933 294.204 146.574 294.128C145.554 293.818 144.674 293.164 144.082 292.277C143.49 291.391 143.223 290.327 143.327 289.266C143.394 288.905 143.319 288.532 143.117 288.225C142.915 287.918 142.602 287.702 142.244 287.621L142.262 287.534ZM202.482 300.334C202.123 300.258 201.748 300.327 201.441 300.527C201.133 300.727 200.917 301.041 200.841 301.4C200.546 302.441 199.871 303.334 198.949 303.9C198.059 304.517 196.967 304.771 195.896 304.612C195.717 304.569 195.533 304.563 195.352 304.594C195.172 304.625 194.999 304.692 194.846 304.792C194.692 304.892 194.56 305.022 194.459 305.174C194.357 305.326 194.287 305.498 194.254 305.678C194.203 305.854 194.191 306.04 194.217 306.222C194.244 306.404 194.309 306.578 194.408 306.733C194.507 306.888 194.639 307.02 194.793 307.121C194.947 307.221 195.121 307.287 195.303 307.315C196.33 307.642 197.211 308.316 197.797 309.221C198.382 310.127 198.634 311.207 198.51 312.278C198.439 312.636 198.51 313.009 198.71 313.315C198.909 313.622 199.22 313.839 199.576 313.919C199.935 313.991 200.307 313.919 200.614 313.72C200.921 313.521 201.137 313.21 201.218 312.853C201.54 311.825 202.21 310.94 203.113 310.351C204.016 309.762 205.095 309.505 206.167 309.624C206.345 309.67 206.53 309.678 206.712 309.648C206.893 309.619 207.067 309.551 207.221 309.451C207.375 309.351 207.507 309.22 207.608 309.066C207.709 308.913 207.777 308.74 207.808 308.559C207.851 308.38 207.857 308.196 207.826 308.015C207.795 307.835 207.728 307.662 207.628 307.509C207.528 307.355 207.398 307.223 207.246 307.122C207.094 307.02 206.922 306.95 206.742 306.917C205.698 306.627 204.804 305.951 204.242 305.025C203.63 304.133 203.376 303.043 203.531 301.972C203.607 301.613 203.538 301.238 203.338 300.931C203.138 300.623 202.824 300.407 202.465 300.331L202.482 300.334ZM162.285 290.702C161.871 290.65 161.451 290.729 161.083 290.927C160.716 291.125 160.42 291.433 160.236 291.808L152.706 307.095L185.02 313.963L184.428 296.95C184.41 296.504 184.243 296.076 183.954 295.735C183.665 295.395 183.27 295.16 182.833 295.069L162.285 290.702ZM139.658 310.452C139.242 310.406 138.822 310.489 138.455 310.69C138.087 310.891 137.791 311.2 137.605 311.576L129.176 328.702L162.462 335.778L161.717 316.755C161.694 316.309 161.526 315.882 161.239 315.54C160.952 315.197 160.561 314.957 160.125 314.857L139.658 310.452ZM174.922 317.948C174.506 317.902 174.086 317.985 173.719 318.186C173.352 318.387 173.055 318.696 172.87 319.071L164.441 336.198L197.796 343.288L197.051 324.265C197.027 323.819 196.86 323.392 196.572 323.05C196.285 322.708 195.894 322.468 195.459 322.367L174.922 317.948Z" fill="white"/>
</g>
</g>
<defs>
<filter id="filter0_d_756_13558" x="-2.97029" y="-3.48514" width="372.266" height="502.091" filterUnits="userSpaceOnUse" color-interpolation-filters="sRGB">
<feFlood flood-opacity="0" result="BackgroundImageFix"/>
<feColorMatrix in="SourceAlpha" type="matrix" values="0 0 0 0 0 0 0 0 0 0 0 0 0 0 0 0 0 0 127 0" result="hardAlpha"/>
<feOffset dy="8.48514"/>
<feGaussianBlur stdDeviation="8.48514"/>
<feColorMatrix type="matrix" values="0 0 0 0 0.105882 0 0 0 0 0.176471 0 0 0 0 0.164706 0 0 0 0.2 0"/>
<feBlend mode="normal" in2="BackgroundImageFix" result="effect1_dropShadow_756_13558"/>
<feBlend mode="normal" in="SourceGraphic" in2="effect1_dropShadow_756_13558" result="shape"/>
</filter>
<linearGradient id="paint0_linear_756_13558" x1="149.324" y1="402.365" x2="182.254" y2="247.441" gradientUnits="userSpaceOnUse">
<stop offset="0.02" stop-color="#FDFDD8"/>
<stop offset="0.25" stop-color="#FAFAA7"/>
<stop offset="0.48" stop-color="#F7F77E"/>
<stop offset="0.69" stop-color="#F6F661"/>
<stop offset="0.87" stop-color="#F4F44F"/>
<stop offset="1" stop-color="#F4F449"/>
</linearGradient>
<clipPath id="clip0_756_13558">
<rect width="14.0973" height="8.25012" fill="white" transform="translate(187.344 56.834) rotate(12)"/>
</clipPath>
<clipPath id="clip1_756_13558">
<rect width="132.002" height="132.002" fill="white" transform="translate(118.941 227.853) rotate(12)"/>
</clipPath>
</defs>
</svg>
