<svg width="345" height="467" viewBox="0 0 345 467" fill="none" xmlns="http://www.w3.org/2000/svg">
<g filter="url(#filter0_d_756_13550)">
<rect x="13" y="55.125" width="241.085" height="400" rx="18.6047" transform="rotate(-12 13 55.125)" fill="white"/>
<path d="M56.9779 86.1606L48.6886 77.7657L43.6295 78.8411L55.5041 91.0388L57.384 99.883L61.8244 98.9392L59.9445 90.0949L65.8312 74.122L60.9177 75.1664L56.9779 86.1606ZM69.7869 88.8778C69.1371 85.8205 70.0714 83.4156 72.7283 82.8508C75.4217 82.2783 77.2534 84.0953 77.9033 87.1526C78.5454 90.1735 77.611 92.5785 74.9177 93.1509C72.2608 93.7157 70.429 91.8987 69.7869 88.8778ZM82.3072 86.2165C81.2473 81.2302 77.0106 78.4789 72.0244 79.5388C67.0745 80.5909 64.3231 84.8276 65.383 89.8139C66.4428 94.8002 70.6718 97.5151 75.6217 96.463C80.608 95.4031 83.3671 91.2028 82.3072 86.2165ZM94.3605 84.2251C94.9408 86.9548 94.0018 88.9804 91.8545 89.4368C89.7071 89.8932 88.4877 88.6308 87.9694 86.1922L86.0199 77.0204L81.6523 77.9488L83.7875 87.9941C84.5457 91.5609 86.6127 94.1268 90.871 93.2216C93.3096 92.7033 94.9469 91.1 95.3895 89.0658L95.9465 91.6863L100.314 90.758L96.9023 74.7073L92.5348 75.6356L94.3605 84.2251ZM67.4353 124.442C68.0619 127.39 66.6576 129.552 64.1826 130.078C61.4529 130.658 59.608 128.958 58.9659 125.937C58.316 122.88 59.31 120.577 62.0397 119.996C64.5146 119.47 66.6849 120.911 67.3038 123.823L67.4353 124.442ZM69.039 132.165L73.4065 131.237L68.5327 108.307L64.1651 109.236L66.2849 119.208C65.1392 117.398 62.8411 116.25 60.0022 116.854C55.2343 117.867 53.5562 122.142 54.5619 126.874C55.5676 131.605 58.8317 134.791 63.5996 133.778C66.4385 133.175 68.0712 131.192 68.3891 129.108L69.039 132.165ZM83.2979 112.587C82.7396 112.287 81.8848 112.202 80.9021 112.411C78.6819 112.883 77.3635 114.913 77.168 116.857L76.5182 113.8L72.1506 114.728L75.5623 130.779L79.9299 129.85L78.2434 121.916C77.6245 119.004 78.8127 117.078 81.0693 116.598C82.1248 116.374 82.8991 116.438 83.8368 116.733L83.2979 112.587ZM83.7851 112.255L87.1968 128.306L91.5643 127.377L88.1526 111.327L83.7851 112.255ZM83.1553 109.65L87.632 108.698L86.7269 104.44L82.2501 105.392L83.1553 109.65ZM96.2548 117.403C95.6823 114.709 96.694 112.668 98.9142 112.197C101.062 111.74 102.346 112.951 102.872 115.426L104.814 124.561L109.181 123.633L107.054 113.624C106.296 110.057 104.112 107.478 99.8171 108.391C97.4149 108.901 95.6398 110.572 95.2259 112.562L94.6689 109.942L90.3013 110.87L93.713 126.921L98.0806 125.992L96.2548 117.403ZM114.384 116.821L115.876 114.716L122.933 120.71L127.919 119.65L118.561 111.596L124.252 103.653L118.975 104.775L113.502 112.672L110.67 99.3507L106.303 100.279L111.177 123.209L115.544 122.28L114.384 116.821ZM127.986 119.636L132.863 118.599L131.826 113.722L126.949 114.759L127.986 119.636Z" fill="#1B2D2A"/>
<g clip-path="url(#clip0_756_13550)">
<path d="M122.518 417.514C121.861 416.745 119.519 414.475 115.359 415.359C111.225 416.238 109.998 419.234 109.702 420.222C109.672 420.321 109.667 420.426 109.689 420.527C109.71 420.628 109.757 420.722 109.824 420.8C110.497 421.582 112.836 423.82 116.971 422.942C121.13 422.057 122.347 419.031 122.634 418.061C122.662 417.967 122.666 417.868 122.645 417.773C122.625 417.677 122.581 417.588 122.518 417.514ZM117.832 419.062L116.827 419.276L117.69 419.845L117.411 420.28L116.547 419.712L116.764 420.73L116.261 420.837L116.045 419.818L115.487 420.689L115.055 420.405L115.612 419.534L114.607 419.747L114.499 419.238L115.504 419.024L114.64 418.455L114.919 418.02L115.783 418.588L115.567 417.57L116.07 417.463L116.286 418.482L116.844 417.61L117.276 417.895L116.718 418.766L117.723 418.553L117.832 419.062Z" fill="#C4B8FF"/>
</g>
<path d="M131.213 417.5C131.039 416.681 130.406 416.34 129.687 416.36C130.285 416.128 130.625 415.58 130.487 414.934C130.288 413.997 129.538 413.51 128.091 413.817L125.544 414.359L126.762 420.091L129.455 419.519C130.793 419.234 131.424 418.492 131.213 417.5ZM128.8 417.062C129.51 416.911 129.921 417.147 130.024 417.629C130.124 418.102 129.842 418.476 129.133 418.627L127.677 418.936L127.344 417.371L128.8 417.062ZM126.849 415.042L128.214 414.752C128.896 414.607 129.253 414.854 129.344 415.282C129.435 415.71 129.208 416.072 128.525 416.217L127.16 416.507L126.849 415.042ZM132.763 416.724C132.6 415.959 132.834 415.358 133.498 415.217C134.171 415.074 134.629 415.528 134.792 416.292C134.952 417.047 134.719 417.649 134.045 417.792C133.381 417.933 132.923 417.479 132.763 416.724ZM135.893 416.058C135.628 414.812 134.568 414.124 133.322 414.389C132.084 414.652 131.397 415.711 131.662 416.958C131.927 418.204 132.984 418.883 134.221 418.62C135.468 418.355 136.158 417.305 135.893 416.058ZM136.926 416.866C137.108 417.721 137.685 417.884 138.304 417.752C138.795 417.648 139.095 417.451 139.34 417.17L139.187 416.452C138.974 416.611 138.764 416.741 138.546 416.788C138.218 416.857 138.03 416.736 137.957 416.39L137.535 414.406L138.627 414.174L138.465 413.41L137.373 413.642L137.137 412.532L136.473 412.673L136.461 413.246C136.45 413.638 136.383 413.862 136.005 414.009L135.742 414.112L135.879 414.758L136.452 414.636L136.926 416.866ZM139.93 416.227C140.112 417.083 140.688 417.245 141.307 417.114C141.798 417.009 142.099 416.812 142.344 416.532L142.191 415.813C141.977 415.973 141.767 416.103 141.549 416.149C141.221 416.219 141.034 416.097 140.96 415.751L140.539 413.768L141.631 413.536L141.468 412.771L140.376 413.003L140.14 411.893L139.476 412.035L139.465 412.608C139.453 413 139.386 413.223 139.009 413.37L138.745 413.474L138.883 414.12L139.456 413.998L139.93 416.227ZM143.434 414.455C143.272 413.691 143.506 413.09 144.17 412.948C144.843 412.805 145.301 413.26 145.463 414.024C145.624 414.779 145.39 415.38 144.717 415.523C144.053 415.665 143.595 415.21 143.434 414.455ZM146.564 413.79C146.299 412.543 145.24 411.855 143.994 412.12C142.756 412.383 142.068 413.443 142.333 414.689C142.598 415.936 143.656 416.615 144.893 416.351C146.14 416.087 146.829 415.036 146.564 413.79ZM150.618 411.578C150.34 411.123 149.869 410.872 149.159 411.023C148.549 411.152 148.16 411.558 148.056 412.056L147.917 411.401L146.825 411.633L147.678 415.645L148.77 415.413L148.314 413.266C148.171 412.593 148.396 412.088 148.924 411.976C149.452 411.864 149.727 412.176 149.859 412.795L150.344 415.079L151.436 414.847L150.98 412.699C150.837 412.026 151.062 411.521 151.59 411.409C152.127 411.295 152.393 411.609 152.525 412.228L153.01 414.512L154.102 414.28L153.57 411.778C153.385 410.904 152.88 410.232 151.798 410.462C151.142 410.601 150.736 411.058 150.618 411.578ZM154.4 412.828C154.682 413.795 155.579 414.08 156.625 413.858C157.663 413.637 158.276 413.031 158.102 412.212C157.941 411.457 157.365 411.209 156.49 411.252L155.699 411.287C155.398 411.304 155.225 411.207 155.179 410.989C155.121 410.716 155.339 410.489 155.73 410.406C156.303 410.284 156.661 410.446 156.83 410.885L157.724 410.657C157.461 409.781 156.691 409.422 155.581 409.658C154.561 409.874 154.028 410.539 154.19 411.304C154.349 412.05 154.889 412.268 155.774 412.222L156.434 412.196C156.848 412.175 157.055 412.254 157.113 412.527C157.175 412.818 156.876 413.025 156.476 413.11C155.921 413.228 155.505 413.059 155.339 412.591L154.4 412.828ZM162.948 410.45C163.093 411.133 162.858 411.639 162.321 411.753C161.785 411.867 161.48 411.552 161.35 410.942L160.863 408.649L159.771 408.881L160.305 411.392C160.494 412.284 161.011 412.926 162.076 412.699C162.685 412.57 163.095 412.169 163.205 411.66L163.344 412.315L164.436 412.083L163.583 408.071L162.492 408.303L162.948 410.45ZM166.001 409.573C165.846 408.845 166.186 408.297 166.805 408.166C167.496 408.019 167.958 408.444 168.12 409.208C168.281 409.963 168.032 410.539 167.341 410.686C166.722 410.818 166.19 410.465 166.034 409.728L166.001 409.573ZM166.29 410.89C166.575 411.334 167.14 411.623 167.859 411.47C169.042 411.218 169.473 410.157 169.221 408.974C168.97 407.791 168.143 406.987 166.96 407.239C166.241 407.392 165.842 407.885 165.764 408.415L165.6 407.642L164.508 407.874L165.678 413.379L166.77 413.147L166.29 410.89Z" fill="#1B2D2A"/>
<g clip-path="url(#clip1_756_13550)">
<path d="M277.77 229.747L250.22 146.561L101.461 178.181L109.266 271.001L109.976 279.567C110.562 286.536 111.587 293.469 113.044 300.319C114.063 305.346 116.805 309.829 120.706 312.848C124.607 315.867 129.373 317.194 134.025 316.557C136.437 316.177 138.735 315.266 140.779 313.881C142.823 312.495 144.571 310.663 145.917 308.496C147.263 306.328 148.179 303.871 148.609 301.273C149.039 298.674 148.975 295.989 148.42 293.38L150.126 301.409C151.146 306.434 153.887 310.914 157.788 313.931C161.689 316.947 166.454 318.27 171.104 317.629C173.516 317.246 175.813 316.333 177.857 314.946C179.901 313.558 181.649 311.724 182.994 309.555C184.34 307.387 185.255 304.929 185.685 302.329C186.115 299.73 186.05 297.044 185.495 294.435L187.599 304.336C188.133 306.869 189.119 309.28 190.501 311.433C191.883 313.585 193.633 315.436 195.651 316.879C197.67 318.322 199.917 319.329 202.263 319.843C204.61 320.356 207.01 320.366 209.327 319.871C213.997 318.873 218.045 315.893 220.583 311.582C223.121 307.271 223.941 301.983 222.864 296.876L235.573 356.665C236.05 359.258 236.999 361.739 238.364 363.961C239.728 366.184 241.481 368.102 243.517 369.603C245.554 371.105 247.833 372.158 250.22 372.7C252.607 373.243 255.052 373.264 257.412 372.763C259.771 372.261 261.997 371.247 263.956 369.781C265.916 368.314 267.57 366.425 268.82 364.225C270.07 362.026 270.89 359.56 271.233 356.975C271.576 354.389 271.434 351.737 270.815 349.174L254.483 272.34C258.842 271.689 262.981 270.005 266.61 267.406C270.24 264.807 273.271 261.357 275.49 257.297C277.71 253.237 279.064 248.666 279.458 243.907C279.852 239.147 279.276 234.314 277.77 229.747Z" fill="#FFC654"/>
</g>
</g>
<defs>
<filter id="filter0_d_756_13550" x="-3" y="-2.99902" width="350.981" height="473.383" filterUnits="userSpaceOnUse" color-interpolation-filters="sRGB">
<feFlood flood-opacity="0" result="BackgroundImageFix"/>
<feColorMatrix in="SourceAlpha" type="matrix" values="0 0 0 0 0 0 0 0 0 0 0 0 0 0 0 0 0 0 127 0" result="hardAlpha"/>
<feOffset dy="8"/>
<feGaussianBlur stdDeviation="8"/>
<feColorMatrix type="matrix" values="0 0 0 0 0.105882 0 0 0 0 0.176471 0 0 0 0 0.164706 0 0 0 0.2 0"/>
<feBlend mode="normal" in2="BackgroundImageFix" result="effect1_dropShadow_756_13550"/>
<feBlend mode="normal" in="SourceGraphic" in2="effect1_dropShadow_756_13550" result="shape"/>
</filter>
<clipPath id="clip0_756_13550">
<rect width="13.246" height="7.75194" fill="white" transform="translate(108.883 416.735) rotate(-12)"/>
</clipPath>
<clipPath id="clip1_756_13550">
<rect width="176.01" height="222.163" fill="white" transform="translate(87.7041 181.105) rotate(-12)"/>
</clipPath>
</defs>
</svg>
