<svg width="307" height="438" viewBox="0 0 307 438" fill="none" xmlns="http://www.w3.org/2000/svg">
<g filter="url(#filter0_d_750_14171)">
<rect x="10" y="36.7051" width="234.504" height="389.081" rx="18.0968" transform="rotate(-8 10 36.7051)" fill="white"/>
<g clip-path="url(#clip0_750_14171)">
<path d="M111.752 56.3959C111.167 55.6048 109.048 53.2429 104.952 53.8185C100.88 54.3907 99.4868 57.215 99.132 58.1538C99.0963 58.2474 99.0848 58.3489 99.0988 58.4484C99.1128 58.548 99.1518 58.6424 99.212 58.7225C99.8118 59.5271 101.93 61.858 106.001 61.2857C110.097 60.7101 111.483 57.8556 111.828 56.9338C111.861 56.8451 111.871 56.7493 111.858 56.6553C111.845 56.5612 111.808 56.472 111.752 56.3959V56.3959ZM107.1 57.5797L106.11 57.7188L106.909 58.3295L106.609 58.7334L105.809 58.1229L105.95 59.1256L105.455 59.1952L105.314 58.1924L104.714 58.9998L104.314 58.6943L104.914 57.8869L103.924 58.026L103.854 57.5242L104.843 57.3851L104.044 56.7744L104.344 56.3705L105.144 56.9812L105.003 55.9783L105.498 55.9087L105.639 56.9116L106.239 56.1042L106.64 56.4096L106.039 57.2171L107.029 57.078L107.1 57.5797Z" fill="#FFC654"/>
</g>
<path d="M120.749 58.6679L117.799 55.8204L119.767 53.0493L118.459 53.2332L116.407 56.1256L116.049 53.5719L114.928 53.7293L115.722 59.3743L116.842 59.2169L116.579 57.3442L117.077 56.662L119.405 58.8568L120.749 58.6679ZM121.942 56.3438C121.849 55.6807 122.129 55.2028 122.675 55.1259C123.204 55.0516 123.495 55.3671 123.581 55.9764L123.897 58.2254L124.972 58.0743L124.626 55.6102C124.502 54.7321 124.016 54.0694 122.959 54.218C122.367 54.3012 121.908 54.6763 121.774 55.152L121.684 54.5069L120.608 54.658L121.164 58.6095L122.239 58.4584L121.942 56.3438ZM126.411 55.8619C126.305 55.1092 126.572 54.5417 127.226 54.4498C127.889 54.3566 128.303 54.8284 128.409 55.5811C128.513 56.3248 128.246 56.8924 127.583 56.9855C126.929 57.0775 126.515 56.6056 126.411 55.8619ZM129.493 55.4287C129.32 54.2012 128.339 53.4619 127.112 53.6344C125.893 53.8056 125.154 54.7867 125.326 56.0143C125.499 57.2419 126.479 57.9722 127.697 57.8009C128.925 57.6284 129.665 56.6563 129.493 55.4287ZM132.949 52.9237L132.079 53.0459L131.733 55.7809L131.697 55.786L130.502 53.2675L129.436 53.4174L131.246 57.1926L132.294 57.0452L132.645 54.337L132.681 54.332L133.764 56.8387L134.803 56.6926L135.502 52.5648L134.526 52.7021L134.08 55.451L134.045 55.4561L132.949 52.9237ZM137.391 50.5725L138.184 56.2175L139.304 56.0601L138.511 50.4151L137.391 50.5725ZM140.259 54.9025C140.377 55.7447 140.926 55.9418 141.535 55.8561C142.019 55.7881 142.324 55.6174 142.581 55.362L142.481 54.6541C142.263 54.7944 142.051 54.9065 141.836 54.9368C141.513 54.9821 141.339 54.8512 141.291 54.5107L141.017 52.5573L142.092 52.4062L141.986 51.6535L140.911 51.8047L140.757 50.7115L140.103 50.8034L140.053 51.3587C140.015 51.7386 139.936 51.9509 139.559 52.0678L139.297 52.1503L139.386 52.7865L139.951 52.7072L140.259 54.9025ZM145.922 49.3735L144.43 55.3396L145.559 55.181L145.909 53.7063L148.311 53.3689L149.072 54.6873L150.263 54.5198L147.167 49.1985L145.922 49.3735ZM146.665 50.5665L146.701 50.5615L147.849 52.5565L146.129 52.7983L146.665 50.5665ZM149.982 48.8029L150.775 54.448L151.85 54.2968L151.057 48.6518L149.982 48.8029ZM151.959 48.525L152.752 54.17L153.828 54.0189L153.034 48.3739L151.959 48.525Z" fill="#1B2D2A"/>
<path d="M158.416 51.6653C158.384 51.3684 158.493 51.1703 158.771 50.8753C159.292 50.3544 159.731 49.8359 159.624 49.0742C159.493 48.1424 158.704 47.4675 157.368 47.6551C156.114 47.8314 155.397 48.7089 155.563 49.8917C155.587 50.0619 155.639 50.2373 155.7 50.4115L156.808 50.3014C156.751 50.1541 156.703 50.0056 156.676 49.8174C156.584 49.1633 156.838 48.6891 157.492 48.5972C158.056 48.5179 158.384 48.8373 158.447 49.2853C158.524 49.8319 158.195 50.1523 157.844 50.5213C157.454 50.9325 157.328 51.334 157.386 51.8102L158.416 51.6653ZM157.523 53.4996L158.715 53.3321L158.546 52.1314L157.354 52.2989L157.523 53.4996Z" fill="#FFC654"/>
<path d="M67.1407 90.9096L64.3929 91.2958L63.0326 102.769L62.937 102.782L58.6105 92.1085L55.6237 92.5282L61.6341 107.034L64.9076 106.574L66.2503 95.3232L66.3459 95.3098L70.7139 105.758L74.0113 105.295L75.7904 89.694L72.9231 90.097L71.7334 101.57L71.6379 101.584L67.1407 90.9096ZM80.6301 98.6141C80.3816 96.8459 81.1284 95.5714 82.5859 95.3665C83.9957 95.1684 84.7718 96.0096 85.0002 97.6344L85.843 103.632L88.7104 103.229L87.7869 96.658C87.4578 94.3164 86.1617 92.5492 83.3421 92.9455C81.7651 93.1671 80.5412 94.1676 80.1835 95.4362L79.307 89.1998L76.4397 89.6027L78.5553 104.656L81.4226 104.253L80.6301 98.6141ZM95.9597 97.5561C96.1981 99.2526 95.2123 100.561 93.707 100.772C92.799 100.9 92.189 100.547 92.0883 99.8302C91.9405 98.7789 92.7944 98.4396 93.9999 98.0021L95.9227 97.2933L95.9597 97.5561ZM98.4463 94.965C98.0568 92.1932 96.0834 91.1548 93.3594 91.5376C90.5638 91.9305 89.1267 93.6676 89.0705 95.8684L91.7085 95.7413C91.8031 94.6803 92.3475 93.8728 93.5422 93.7049C94.7608 93.5336 95.4828 94.1632 95.6474 95.334L95.6809 95.5729L92.8703 96.5527C90.5481 97.3664 89.0408 98.4311 89.3229 100.438C89.5781 102.254 91.0706 103.165 93.2689 102.856C94.822 102.638 96.165 101.791 96.5911 100.489C97.0151 101.599 97.8771 102.184 99.0719 102.016C100.028 101.882 100.557 101.491 100.961 101.069L100.746 99.5394C100.456 99.7264 100.179 99.8384 99.8923 99.8787C99.4383 99.9425 99.1146 99.7199 99.0374 99.1704L98.4463 94.965ZM101.498 98.7026C101.814 100.949 103.277 101.474 104.902 101.246C106.192 101.064 107.005 100.609 107.689 99.9281L107.424 98.0404C106.843 98.4145 106.276 98.7135 105.702 98.7941C104.842 98.915 104.379 98.5659 104.251 97.6579L103.519 92.4489L106.386 92.046L106.104 90.0388L103.237 90.4418L102.827 87.5267L101.083 87.7719L100.95 89.2525C100.849 90.2658 100.636 90.8317 99.632 91.1434L98.932 91.3636L99.1704 93.0601L100.676 92.8486L101.498 98.7026ZM110.722 89.3898L112.203 99.9272L115.071 99.5242L113.59 88.9869L110.722 89.3898ZM110.433 87.6762L113.372 87.2631L112.979 84.4675L110.04 84.8805L110.433 87.6762ZM115.475 95.9099C116.029 98.4636 118.3 99.3628 121.047 98.9766C123.771 98.5938 125.467 97.1372 125.165 94.9867C124.886 93.0034 123.441 92.2563 121.169 92.2102L119.114 92.1577C118.333 92.1457 117.904 91.8649 117.823 91.2915C117.722 90.5746 118.328 90.0266 119.355 89.8822C120.86 89.6707 121.757 90.1538 122.116 91.3217L124.468 90.8936C123.948 88.5789 122.019 87.5098 119.104 87.9195C116.427 88.2956 114.926 89.9199 115.208 91.927C115.483 93.8864 116.843 94.5481 119.14 94.5908L120.853 94.6425C121.927 94.662 122.449 94.9054 122.55 95.6223C122.657 96.3869 121.847 96.8662 120.796 97.0139C119.338 97.2188 118.292 96.708 117.947 95.4651L115.475 95.9099ZM130.176 94.6722C130.492 96.9183 131.955 97.4437 133.579 97.2154C134.87 97.034 135.683 96.5786 136.367 95.8977L136.102 94.0101C135.521 94.3841 134.954 94.6831 134.38 94.7637C133.52 94.8846 133.057 94.5355 132.929 93.6275L132.197 88.4185L135.064 88.0156L134.782 86.0084L131.915 86.4114L131.505 83.4963L129.761 83.7415L129.628 85.2221C129.527 86.2354 129.314 86.8014 128.31 87.113L127.61 87.3332L127.848 89.0297L129.354 88.8182L130.176 94.6722ZM139.409 90.3533C139.161 88.5851 139.907 87.3106 141.365 87.1057C142.775 86.9076 143.551 87.7488 143.779 89.3736L144.622 95.371L147.489 94.9681L146.566 88.3972C146.237 86.0555 144.941 84.2884 142.121 84.6846C140.544 84.9063 139.32 85.9067 138.962 87.1753L138.086 80.9389L135.219 81.3419L137.334 96.3953L140.202 95.9923L139.409 90.3533ZM156.249 89.9846C156.01 91.2364 155.258 91.9513 153.848 92.1494C152.295 92.3677 150.922 91.4398 150.608 89.9002L158.517 88.7886L158.373 87.7612C157.97 84.8939 155.866 82.7529 152.425 83.2365C149.271 83.6798 147.241 86.4017 147.708 89.723C148.175 93.0443 150.809 94.794 154.058 94.3373C156.758 93.9578 158.38 92.3167 158.6 89.8978L156.249 89.9846ZM150.404 88.1014C150.482 86.7502 151.12 85.5642 152.697 85.3426C154.298 85.1176 155.203 86.1843 155.47 87.3894L150.404 88.1014ZM165.87 86.6344C165.622 84.8662 166.368 83.5917 167.826 83.3869C169.236 83.1887 170.012 84.0299 170.24 85.6547L171.083 91.6522L173.95 91.2492L173.027 84.6783C172.698 82.3367 171.402 80.5695 168.582 80.9658C167.005 81.1874 165.781 82.1879 165.423 83.4565L165.182 81.7361L162.314 82.1391L163.795 92.6764L166.663 92.2734L165.87 86.6344ZM181.2 85.5765C181.438 87.2729 180.452 88.5811 178.947 88.7926C178.039 88.9202 177.429 88.5674 177.328 87.8505C177.18 86.7992 178.034 86.4599 179.24 86.0224L181.163 85.3136L181.2 85.5765ZM183.686 82.9853C183.297 80.2136 181.323 79.1751 178.599 79.5579C175.804 79.9508 174.367 81.6879 174.31 83.8887L176.948 83.7617C177.043 82.7006 177.587 81.8931 178.782 81.7252C180.001 81.554 180.723 82.1835 180.887 83.3543L180.921 83.5932L178.11 84.573C175.788 85.3867 174.281 86.4514 174.563 88.4585C174.818 90.2745 176.311 91.1855 178.509 90.8766C180.062 90.6583 181.405 89.8117 181.831 88.5091C182.255 89.6191 183.117 90.2046 184.312 90.0367C185.268 89.9023 185.797 89.5111 186.201 89.0889L185.986 87.5597C185.696 87.7467 185.419 87.8587 185.132 87.899C184.678 87.9628 184.355 87.7402 184.277 87.1907L183.686 82.9853ZM195.215 79.4401C194.58 78.2136 193.404 77.4773 191.54 77.7392C189.939 77.9642 188.859 78.9445 188.501 80.2131L188.259 78.4927L185.392 78.8957L186.873 89.4331L189.74 89.0301L188.948 83.3911C188.699 81.6229 189.374 80.3584 190.76 80.1637C192.146 79.9689 192.803 80.8269 193.031 82.4517L193.874 88.4492L196.741 88.0462L195.949 82.4071C195.7 80.639 196.375 79.3745 197.761 79.1797C199.171 78.9816 199.804 79.843 200.032 81.4678L200.875 87.4652L203.742 87.0623L202.819 80.4913C202.496 78.1975 201.313 76.3658 198.469 76.7654C196.749 77.0072 195.614 78.117 195.215 79.4401ZM212.484 82.0812C212.246 83.333 211.494 84.0479 210.084 84.2461C208.531 84.4643 207.158 83.5365 206.844 81.9968L214.753 80.8852L214.608 79.8578C214.205 76.9905 212.101 74.8495 208.661 75.3331C205.507 75.7764 203.477 78.4983 203.944 81.8196C204.41 85.1409 207.044 86.8906 210.294 86.4339C212.994 86.0544 214.615 84.4133 214.836 81.9944L212.484 82.0812ZM206.64 80.198C206.718 78.8469 207.355 77.6608 208.932 77.4392C210.533 77.2142 211.438 78.2809 211.705 79.4861L206.64 80.198ZM68.5394 124.939C68.2573 122.932 68.9705 121.418 70.7148 121.173C72.483 120.925 73.5857 122.183 73.8678 124.19C74.1465 126.173 73.4333 127.687 71.6651 127.935C69.9209 128.181 68.8181 126.922 68.5394 124.939ZM76.759 123.784C76.2989 120.51 73.6827 118.539 70.4092 118.999C67.1596 119.456 65.1881 122.072 65.6482 125.345C66.1082 128.619 68.7211 130.566 71.9707 130.11C75.2442 129.65 77.2191 127.057 76.759 123.784ZM77.766 120.304L78.9649 128.834L81.8083 128.435L80.6094 119.905L83.4289 119.508L83.1469 117.501L80.3273 117.897L80.1729 116.798C80.0352 115.819 80.3235 115.096 81.2076 114.972C81.9483 114.868 82.4661 115.258 82.799 115.893L84.5549 115.037C83.8659 113.428 82.5675 112.685 80.6559 112.954C78.2904 113.286 77.0138 114.952 77.3597 117.413L77.4839 118.297L75.9308 118.515L76.2129 120.522L77.766 120.304ZM88.598 124.752C88.9137 126.998 90.3764 127.523 92.0012 127.295C93.2915 127.113 94.1047 126.658 94.7887 125.977L94.5234 124.089C93.9424 124.463 93.3753 124.762 92.8018 124.843C91.9417 124.964 91.4784 124.615 91.3508 123.707L90.6187 118.498L93.486 118.095L93.2039 116.088L90.3366 116.491L89.9269 113.576L88.1826 113.821L88.0496 115.301C87.9483 116.315 87.7355 116.881 86.7315 117.192L86.0315 117.413L86.2699 119.109L87.7753 118.897L88.598 124.752ZM97.8308 120.433C97.5823 118.664 98.3291 117.39 99.7866 117.185C101.196 116.987 101.972 117.828 102.201 119.453L103.044 125.45L105.911 125.047L104.988 118.476C104.658 116.135 103.362 114.368 100.543 114.764C98.9658 114.986 97.7419 115.986 97.3841 117.255L96.5077 111.018L93.6404 111.421L95.756 126.475L98.6233 126.072L97.8308 120.433ZM114.67 120.064C114.432 121.316 113.68 122.031 112.27 122.229C110.717 122.447 109.344 121.519 109.03 119.979L116.939 118.868L116.795 117.84C116.392 114.973 114.288 112.832 110.847 113.316C107.693 113.759 105.663 116.481 106.13 119.802C106.597 123.124 109.23 124.873 112.48 124.417C115.18 124.037 116.801 122.396 117.022 119.977L114.67 120.064ZM108.826 118.181C108.904 116.83 109.541 115.643 111.118 115.422C112.719 115.197 113.625 116.264 113.891 117.469L108.826 118.181ZM120.857 117.586C121.327 120.931 123.954 122.804 127.203 122.347C130.334 121.907 131.765 119.611 131.648 117.044L129.205 117.168C129.215 118.8 128.471 119.927 126.894 120.149C125.317 120.371 124.054 119.354 123.748 117.18C123.439 114.982 124.374 113.656 125.951 113.435C127.528 113.213 128.55 114.069 128.986 115.615L131.376 115.109C130.781 112.61 128.772 110.797 125.642 111.236C122.392 111.693 120.387 114.241 120.857 117.586ZM134.902 115.612C134.62 113.605 135.333 112.092 137.077 111.847C138.846 111.598 139.948 112.856 140.23 114.864C140.509 116.847 139.796 118.36 138.028 118.609C136.283 118.854 135.181 117.596 134.902 115.612ZM143.122 114.457C142.661 111.184 140.045 109.212 136.772 109.672C133.522 110.129 131.551 112.745 132.011 116.019C132.471 119.292 135.084 121.24 138.333 120.783C141.607 120.323 143.582 117.731 143.122 114.457ZM151.59 107.882L149.272 108.208L148.348 115.501L148.252 115.515L145.067 108.799L142.223 109.199L147.049 119.266L149.845 118.873L150.779 111.651L150.875 111.638L153.764 118.322L156.535 117.933L158.4 106.925L155.795 107.291L154.608 114.622L154.513 114.635L151.59 107.882ZM162.49 111.516C162.221 109.604 163.2 108.248 164.825 108.02C166.641 107.765 167.757 108.948 168.039 110.955C168.318 112.938 167.571 114.384 165.755 114.639C164.13 114.867 162.819 113.858 162.547 111.922L162.49 111.516ZM162.854 114.973C163.588 116.21 165.067 117.026 166.907 116.767C170.061 116.324 171.367 113.655 170.931 110.549C170.494 107.443 168.499 105.213 165.393 105.65C163.505 105.915 162.383 107.121 162.087 108.478L161.167 101.931L158.3 102.334L160.415 117.387L162.613 117.078L162.854 114.973ZM174.337 110.07C174.055 108.063 174.768 106.55 176.512 106.304C178.28 106.056 179.383 107.314 179.665 109.321C179.944 111.305 179.231 112.818 177.463 113.067C175.718 113.312 174.615 112.053 174.337 110.07ZM182.556 108.915C182.096 105.641 179.48 103.67 176.207 104.13C172.957 104.587 170.985 107.203 171.446 110.477C171.906 113.75 174.518 115.698 177.768 115.241C181.042 114.781 183.016 112.189 182.556 108.915ZM189.141 117.346L193.154 102.041L190.358 102.434L188.526 110.025L188.43 110.039L184.552 103.25L181.542 103.673L187.402 113.643L186.321 117.743L189.141 117.346ZM197.249 101.465L198.73 112.003L201.597 111.6L200.116 101.062L197.249 101.465ZM196.959 99.7515L199.898 99.3385L199.506 96.5428L196.567 96.9559L196.959 99.7515ZM205.332 105.324C205.083 103.556 205.83 102.282 207.287 102.077C208.697 101.879 209.473 102.72 209.702 104.345L210.545 110.342L213.412 109.939L212.488 103.368C212.159 101.027 210.863 99.2594 208.044 99.6557C206.467 99.8773 205.243 100.878 204.885 102.146L204.643 100.426L201.776 100.829L203.257 111.366L206.124 110.963L205.332 105.324ZM99.8237 150.139L98.0573 137.57L103.457 136.811L103.108 134.326L89.3929 136.254L89.7421 138.739L95.0705 137.99L96.8369 150.559L99.8237 150.139ZM105.539 143.975C105.257 141.968 105.97 140.454 107.715 140.209C109.483 139.961 110.585 141.219 110.868 143.226C111.146 145.209 110.433 146.723 108.665 146.971C106.921 147.216 105.818 145.958 105.539 143.975ZM113.759 142.82C113.299 139.546 110.682 137.575 107.409 138.035C104.159 138.492 102.188 141.108 102.648 144.381C103.108 147.655 105.721 149.602 108.971 149.146C112.244 148.686 114.219 146.093 113.759 142.82ZM120.343 151.251L124.357 135.945L121.561 136.338L119.728 143.93L119.633 143.944L115.755 137.154L112.744 137.577L118.604 147.548L117.523 151.647L120.343 151.251ZM128.463 140.656C128.974 144.288 132.051 145.902 135.922 145.358C139.315 144.881 141.647 142.921 141.231 139.958C140.888 137.521 139.304 136.306 136.264 136.172L133.422 136.06C132.023 135.989 131.181 135.717 131.026 134.618C130.845 133.328 131.737 132.398 133.506 132.15C135.561 131.861 137.05 132.748 137.434 134.79L140.168 134.308C139.651 130.969 137.143 129.251 133.2 129.805C129.688 130.299 127.721 132.427 128.117 135.246C128.467 137.731 130.273 138.793 132.675 138.894L135.616 139.017C137.237 139.106 138.205 139.408 138.366 140.555C138.544 141.822 137.454 142.73 135.59 142.992C133.487 143.288 131.643 142.475 131.194 140.15L128.463 140.656ZM143.075 141.331C143.391 143.577 144.854 144.103 146.478 143.874C147.769 143.693 148.582 143.238 149.266 142.557L149.001 140.669C148.42 141.043 147.852 141.342 147.279 141.423C146.419 141.543 145.955 141.194 145.828 140.286L145.096 135.077L147.963 134.674L147.681 132.667L144.814 133.07L144.404 130.155L142.66 130.4L142.527 131.881C142.425 132.894 142.213 133.46 141.209 133.772L140.509 133.992L140.747 135.689L142.252 135.477L143.075 141.331ZM151.718 137.485C151.436 135.478 152.149 133.964 153.893 133.719C155.661 133.471 156.764 134.729 157.046 136.736C157.325 138.719 156.612 140.233 154.843 140.481C153.099 140.726 151.996 139.468 151.718 137.485ZM159.937 136.33C159.477 133.056 156.861 131.085 153.587 131.545C150.338 132.002 148.366 134.618 148.826 137.891C149.286 141.165 151.899 143.112 155.149 142.656C158.422 142.196 160.397 139.603 159.937 136.33ZM167.564 130.019C167.216 129.8 166.667 129.707 166.022 129.797C164.564 130.002 163.62 131.256 163.405 132.504L163.123 130.497L160.256 130.9L161.737 141.437L164.604 141.034L163.872 135.826C163.603 133.914 164.459 132.722 165.941 132.513C166.634 132.416 167.132 132.492 167.725 132.726L167.564 130.019ZM174.828 143.594L178.842 128.288L176.046 128.681L174.214 136.273L174.118 136.286L170.24 129.497L167.229 129.92L173.09 139.891L172.009 143.99L174.828 143.594ZM189.954 132.915C189.868 132.123 190.159 131.595 190.901 130.809C192.29 129.419 193.46 128.037 193.174 126.006C192.825 123.521 190.72 121.721 187.16 122.221C183.815 122.691 181.902 125.031 182.345 128.185C182.409 128.639 182.548 129.107 182.711 129.572L185.667 129.278C185.514 128.885 185.385 128.489 185.315 127.987C185.069 126.243 185.745 124.979 187.489 124.734C188.994 124.522 189.869 125.374 190.037 126.568C190.242 128.026 189.363 128.88 188.429 129.865C187.389 130.961 187.053 132.032 187.207 133.301L189.954 132.915ZM187.572 137.807L190.75 137.36L190.3 134.158L187.122 134.605L187.572 137.807Z" fill="#1B2D2A"/>
<g clip-path="url(#clip1_750_14171)">
<path d="M170.521 333.672C203.361 329.056 226.242 298.693 221.627 265.852C217.011 233.012 186.648 210.131 153.807 214.747C120.967 219.362 98.0861 249.726 102.701 282.566C107.317 315.406 137.681 338.287 170.521 333.672Z" fill="url(#paint0_linear_750_14171)"/>
<path d="M153.848 215.035C165.551 213.39 177.48 215.253 188.125 220.387C198.769 225.522 207.653 233.697 213.651 243.88C219.649 254.064 222.493 265.797 221.823 277.596C221.153 289.396 216.999 300.731 209.887 310.17C202.774 319.609 193.023 326.726 181.865 330.623C170.707 334.519 158.645 335.019 147.203 332.06C135.761 329.101 125.453 322.816 117.583 313.998C109.714 305.181 104.635 294.228 102.991 282.525C100.785 266.831 104.904 250.904 114.442 238.247C123.979 225.59 138.154 217.241 153.848 215.035M153.769 214.473C141.954 216.133 130.897 221.26 121.996 229.204C113.095 237.149 106.75 247.554 103.763 259.105C100.776 270.656 101.281 282.833 105.214 294.096C109.148 305.36 116.333 315.204 125.861 322.384C135.389 329.564 146.833 333.758 158.744 334.434C170.656 335.111 182.5 332.24 192.78 326.184C203.06 320.129 211.314 311.161 216.497 300.415C221.68 289.669 223.56 277.628 221.9 265.813C219.657 249.978 211.224 235.679 198.451 226.054C185.678 216.429 169.609 212.264 153.769 214.473V214.473Z" fill="#FFC654"/>
<path d="M163.385 282.896C170.702 281.728 177.879 279.803 184.799 277.152C181.983 264.922 178.4 254.929 172.726 254.286C169.397 253.902 167.189 254.966 164.539 257.434L164.003 257.935C163.084 259.144 161.725 259.941 160.221 260.152C158.717 260.364 157.191 259.972 155.974 259.063C155.755 258.965 155.543 258.852 155.338 258.727C152.034 257.128 149.698 256.703 146.469 258.074C141.107 260.236 140.509 270.784 141.155 283.302C148.558 283.958 156.011 283.822 163.385 282.896V282.896Z" fill="white"/>
<path d="M202.044 278.102C201.889 277.77 201.67 277.472 201.4 277.224C201.129 276.977 200.813 276.785 200.468 276.66C200.124 276.535 199.758 276.48 199.392 276.496C199.026 276.513 198.666 276.601 198.334 276.756C195.263 278.203 192.164 279.458 189.052 280.616C180.998 283.906 172.593 286.263 164.003 287.64C156.542 288.571 149.004 288.714 141.514 288.066V288.066C137.006 287.847 132.513 287.386 128.056 286.683C127.335 286.591 126.608 286.783 126.027 287.219C125.447 287.655 125.059 288.3 124.946 289.017C124.834 289.735 125.006 290.468 125.425 291.06C125.844 291.653 126.478 292.059 127.192 292.191C139.138 294.152 151.303 294.383 163.314 292.879L166.044 292.495C178.005 290.63 189.635 287.055 200.577 281.878C200.928 281.735 201.246 281.521 201.512 281.251C201.778 280.981 201.986 280.659 202.123 280.305C202.26 279.952 202.324 279.574 202.311 279.196C202.297 278.817 202.206 278.444 202.044 278.102V278.102Z" fill="white"/>
</g>
<path d="M192.643 390.345L194.017 390.152L194.698 384.416L194.745 384.409L196.909 389.746L198.402 389.536L195.397 382.283L193.76 382.513L193.089 388.138L193.041 388.145L190.857 382.921L189.208 383.153L188.319 390.953L189.752 390.752L190.347 385.015L190.395 385.008L192.643 390.345ZM186.112 386.268C186.253 387.272 185.897 388.028 185.025 388.151C184.14 388.275 183.589 387.646 183.448 386.643C183.309 385.651 183.665 384.894 184.549 384.77C185.422 384.647 185.973 385.276 186.112 386.268ZM182.002 386.846C182.232 388.482 183.541 389.468 185.177 389.238C186.802 389.01 187.788 387.702 187.558 386.065C187.328 384.428 186.021 383.454 184.397 383.683C182.76 383.913 181.772 385.209 182.002 386.846ZM179.929 387.137C180.07 388.141 179.713 388.897 178.841 389.02C177.957 389.144 177.406 388.515 177.264 387.512C177.125 386.52 177.482 385.763 178.366 385.639C179.238 385.516 179.789 386.146 179.929 387.137ZM175.819 387.715C176.049 389.351 177.357 390.337 178.994 390.107C180.619 389.879 181.604 388.571 181.374 386.934C181.144 385.297 179.838 384.323 178.213 384.552C176.576 384.782 175.589 386.078 175.819 387.715ZM170.972 388.298C170.836 387.331 171.339 386.663 172.151 386.549C173.047 386.423 173.606 387.015 173.745 388.006C173.886 389.01 173.513 389.732 172.617 389.858C171.804 389.972 171.135 389.457 171 388.502L170.972 388.298ZM170.628 385.764L169.194 385.965L170.252 393.492L171.686 393.291L171.226 390.017C171.555 390.629 172.273 391.052 173.204 390.921C174.77 390.701 175.409 389.356 175.191 387.803C174.972 386.25 173.989 385.145 172.424 385.365C171.492 385.496 170.919 386.101 170.769 386.768L170.628 385.764ZM165.503 384.486L163.496 392.139L164.894 391.943L165.811 388.147L165.858 388.14L167.797 391.535L169.303 391.323L166.373 386.338L166.913 384.288L165.503 384.486Z" fill="#1B2D2A"/>
</g>
<defs>
<filter id="filter0_d_750_14171" x="-2.06454" y="-1.96391" width="310.501" height="442.061" filterUnits="userSpaceOnUse" color-interpolation-filters="sRGB">
<feFlood flood-opacity="0" result="BackgroundImageFix"/>
<feColorMatrix in="SourceAlpha" type="matrix" values="0 0 0 0 0 0 0 0 0 0 0 0 0 0 0 0 0 0 127 0" result="hardAlpha"/>
<feOffset dy="6.03227"/>
<feGaussianBlur stdDeviation="6.03227"/>
<feColorMatrix type="matrix" values="0 0 0 0 0.105882 0 0 0 0 0.176471 0 0 0 0 0.164706 0 0 0 0.2 0"/>
<feBlend mode="normal" in2="BackgroundImageFix" result="effect1_dropShadow_750_14171"/>
<feBlend mode="normal" in="SourceGraphic" in2="effect1_dropShadow_750_14171" result="shape"/>
</filter>
<linearGradient id="paint0_linear_750_14171" x1="170.999" y1="337.076" x2="154.737" y2="221.362" gradientUnits="userSpaceOnUse">
<stop offset="0.02" stop-color="#FFEBC2"/>
<stop offset="0.12" stop-color="#FFE5B1"/>
<stop offset="0.39" stop-color="#FFD889"/>
<stop offset="0.63" stop-color="#FFCE6C"/>
<stop offset="0.85" stop-color="#FFC85A"/>
<stop offset="1" stop-color="#FFC654"/>
</linearGradient>
<clipPath id="clip0_750_14171">
<rect width="12.8845" height="7.54034" fill="white" transform="translate(98.5742 54.7148) rotate(-8)"/>
</clipPath>
<clipPath id="clip1_750_14171">
<rect width="120.645" height="120.645" fill="white" transform="translate(94.0336 222.87) rotate(-8)"/>
</clipPath>
</defs>
</svg>
