<svg width="353" height="518" viewBox="0 0 353 518" fill="none" xmlns="http://www.w3.org/2000/svg">
<g filter="url(#filter0_d_750_14185)">
<rect x="61.7904" y="6" width="280.181" height="464.866" rx="21.6217" transform="rotate(6 61.7904 6)" fill="white"/>
<g clip-path="url(#clip0_750_14185)">
<path d="M174.059 58.2363C173.609 57.15 171.835 53.7994 166.921 53.2829C162.035 52.7694 159.603 55.6408 158.921 56.6265C158.852 56.7247 158.809 56.839 158.797 56.9585C158.784 57.078 158.802 57.1986 158.849 57.3089C159.312 58.4151 161.093 61.7293 165.979 62.2428C170.893 62.7594 173.325 59.8508 173.991 58.8818C174.055 58.7886 174.095 58.6805 174.107 58.5676C174.119 58.4548 174.102 58.3408 174.059 58.2363ZM168.323 58.264L167.135 58.1391L167.886 59.0782L167.421 59.4597L166.67 58.5207L166.544 59.7239L165.95 59.6614L166.076 58.4582L165.147 59.2206L164.771 58.7509L165.701 57.9883L164.513 57.8635L164.576 57.2614L165.764 57.3863L165.013 56.4471L165.478 56.0657L166.229 57.0049L166.356 55.8015L166.95 55.864L166.823 57.0673L167.753 56.3048L168.128 56.7745L167.199 57.5371L168.386 57.6619L168.323 58.264Z" fill="#FF8585"/>
</g>
<path d="M183.87 63.1083L181.274 58.9547L184.356 56.3111L182.786 56.1461L179.572 58.9063L179.894 55.8421L178.55 55.7009L177.838 62.4744L179.182 62.6156L179.418 60.3686L180.193 59.7216L182.257 62.9388L183.87 63.1083ZM185.925 60.7589C186.009 59.9633 186.471 59.4902 187.127 59.5591C187.762 59.6258 188.008 60.0756 187.931 60.8067L187.647 63.5053L188.937 63.641L189.248 60.6843C189.359 59.6306 188.987 58.7219 187.718 58.5885C187.009 58.514 186.368 58.8162 186.075 59.3289L186.157 58.5548L184.866 58.4192L184.368 63.1607L185.658 63.2963L185.925 60.7589ZM191.245 61.492C191.34 60.5888 191.814 60.0082 192.599 60.0907C193.394 60.1743 193.737 60.8408 193.642 61.744C193.549 62.6364 193.075 63.217 192.279 63.1334C191.494 63.0509 191.151 62.3844 191.245 61.492ZM194.943 61.8807C195.098 60.4077 194.175 59.2671 192.702 59.1123C191.239 58.9586 190.099 59.8823 189.944 61.3552C189.789 62.8282 190.714 63.9581 192.176 64.1118C193.649 64.2666 194.789 63.3537 194.943 61.8807ZM199.674 59.9755L198.631 59.8659L197.438 62.9365L197.395 62.932L196.738 59.667L195.459 59.5325L196.466 64.4322L197.724 64.5644L198.913 61.5261L198.956 61.5306L199.487 64.7498L200.734 64.8808L202.738 60.2976L201.566 60.1744L200.255 63.2325L200.212 63.228L199.674 59.9755ZM205.503 58.5337L204.791 65.3072L206.135 65.4485L206.847 58.6749L205.503 58.5337ZM207.577 64.3825C207.47 65.3932 208.049 65.7801 208.78 65.857C209.361 65.918 209.764 65.8082 210.135 65.5863L210.224 64.7369C209.931 64.8365 209.652 64.9051 209.394 64.8779C209.007 64.8372 208.844 64.6353 208.886 64.2267L209.133 61.8828L210.423 62.0185L210.518 61.1153L209.228 60.9797L209.366 59.668L208.581 59.5855L208.362 60.2148C208.209 60.6443 208.055 60.8673 207.584 60.894L207.256 60.9138L207.176 61.6772L207.853 61.7484L207.577 64.3825ZM215.739 59.6096L212.286 66.095L213.64 66.2373L214.472 64.629L217.354 64.9319L217.855 66.6803L219.285 66.8306L217.234 59.7667L215.739 59.6096ZM216.256 61.2075L216.299 61.212L217.054 63.8568L214.99 63.6398L216.256 61.2075ZM220.611 60.1216L219.899 66.8951L221.189 67.0307L221.901 60.2572L220.611 60.1216ZM222.984 60.371L222.272 67.1445L223.562 67.2801L224.274 60.5066L222.984 60.371Z" fill="#1B2D2A"/>
<path d="M229.562 65.878C229.61 65.5243 229.794 65.3262 230.202 65.0647C230.956 64.6114 231.614 64.1371 231.71 63.2232C231.828 62.105 231.108 61.0945 229.506 60.9261C228.001 60.7679 226.916 61.5778 226.766 62.997C226.745 63.2013 226.755 63.4197 226.775 63.6393L228.092 63.832C228.068 63.6447 228.055 63.4586 228.079 63.2328C228.161 62.4479 228.592 61.9714 229.377 62.0539C230.054 62.1251 230.342 62.5902 230.286 63.1278C230.217 63.7836 229.742 64.0598 229.229 64.3864C228.658 64.7503 228.396 65.1793 228.325 65.748L229.562 65.878ZM227.996 67.7461L229.426 67.8964L229.577 66.4557L228.147 66.3054L227.996 67.7461Z" fill="#FF8585"/>
<path d="M145.648 88.9318L142.351 88.5853L137.458 101.492L137.343 101.48L135.412 87.856L131.829 87.4794L134.603 106.033L138.531 106.446L143.34 93.7911L143.455 93.8032L145.498 107.178L149.455 107.594L156.027 90.0227L152.586 89.6611L147.891 102.618L147.776 102.606L145.648 88.9318ZM159.059 101.763C159.282 99.6409 160.516 98.3792 162.265 98.563C163.957 98.7408 164.613 99.9404 164.408 101.89L163.652 109.086L167.093 109.448L167.921 101.563C168.217 98.7537 167.225 96.3305 163.842 95.9749C161.949 95.776 160.241 96.5821 159.46 97.9493L160.246 90.4662L156.806 90.1046L154.907 108.167L158.348 108.529L159.059 101.763ZM177.136 104.967C176.922 107.003 175.401 108.234 173.595 108.044C172.506 107.93 171.9 107.344 171.991 106.484C172.123 105.223 173.211 105.076 174.735 104.918L177.169 104.652L177.136 104.967ZM180.768 102.682C181.118 99.356 179.13 97.5818 175.861 97.2382C172.507 96.8857 170.339 98.484 169.638 101.019L172.733 101.634C173.149 100.432 174.013 99.6529 175.447 99.8036C176.909 99.9572 177.564 100.896 177.417 102.301L177.386 102.587L173.845 102.911C170.917 103.183 168.862 103.981 168.609 106.39C168.38 108.569 169.847 110.056 172.485 110.334C174.349 110.53 176.15 109.936 177.021 108.549C177.191 109.959 178.021 110.887 179.455 111.037C180.602 111.158 181.329 110.857 181.919 110.485L182.112 108.65C181.721 108.782 181.368 108.832 181.024 108.796C180.479 108.739 180.168 108.387 180.238 107.728L180.768 102.682ZM183.226 107.897C182.943 110.592 184.487 111.624 186.436 111.829C187.984 111.992 189.059 111.699 190.049 111.107L190.287 108.842C189.505 109.108 188.761 109.291 188.073 109.218C187.041 109.11 186.605 108.571 186.719 107.482L187.376 101.231L190.817 101.593L191.07 99.1845L187.629 98.8229L187.997 95.3251L185.904 95.1051L185.322 96.7832C184.911 97.9285 184.501 98.5231 183.247 98.5943L182.372 98.6472L182.158 100.683L183.964 100.873L183.226 107.897ZM196.611 99.7669L195.282 112.411L198.722 112.772L200.051 100.129L196.611 99.7669ZM196.77 97.6966L200.297 98.0673L200.65 94.7128L197.123 94.3421L196.77 97.6966ZM200.236 108.699C200.14 111.82 202.513 113.519 205.81 113.865C209.078 114.209 211.465 113.01 211.736 110.43C211.987 108.05 210.527 106.766 207.906 106.056L205.54 105.401C204.637 105.162 204.221 104.712 204.293 104.024C204.384 103.164 205.244 102.703 206.476 102.833C208.283 103.023 209.182 103.842 209.261 105.3L212.111 105.483C212.177 102.65 210.25 100.853 206.752 100.485C203.541 100.147 201.331 101.596 201.078 104.005C200.83 106.356 202.216 107.516 204.866 108.229L206.836 108.784C208.077 109.118 208.611 109.551 208.521 110.411C208.424 111.328 207.347 111.65 206.085 111.517C204.337 111.333 203.271 110.439 203.23 108.898L200.236 108.699ZM217.637 111.514C217.353 114.209 218.897 115.241 220.847 115.446C222.395 115.608 223.47 115.315 224.459 114.724L224.697 112.459C223.916 112.725 223.172 112.907 222.484 112.835C221.452 112.726 221.015 112.188 221.13 111.098L221.787 104.848L225.227 105.21L225.481 102.801L222.04 102.44L222.408 98.9418L220.315 98.7218L219.732 100.4C219.322 101.545 218.912 102.14 217.658 102.211L216.783 102.264L216.569 104.3L218.375 104.489L217.637 111.514ZM229.589 109.176C229.812 107.054 231.046 105.792 232.795 105.976C234.486 106.154 235.143 107.353 234.938 109.303L234.182 116.499L237.622 116.861L238.451 108.976C238.746 106.167 237.754 103.743 234.371 103.388C232.479 103.189 230.771 103.995 229.989 105.362L230.776 97.8791L227.335 97.5175L225.437 115.58L228.877 115.942L229.589 109.176ZM249.217 113.616C248.579 114.998 247.5 115.609 245.809 115.431C243.945 115.236 242.621 113.763 242.703 111.887L252.193 112.885L252.322 111.652C252.684 108.211 250.864 105.121 246.735 104.687C242.95 104.29 239.811 106.858 239.392 110.844C238.973 114.829 241.521 117.619 245.42 118.028C248.66 118.369 251.013 116.935 251.968 114.195L249.217 113.616ZM242.986 109.743C243.467 108.199 244.549 107.008 246.441 107.207C248.362 107.409 249.103 108.908 249.064 110.382L242.986 109.743ZM93.3846 126.629C93.2886 129.749 95.6609 131.448 98.9581 131.794C102.227 132.138 104.614 130.939 104.885 128.359C105.135 125.979 103.676 124.695 101.054 123.985L98.6882 123.331C97.7858 123.091 97.3692 122.641 97.4415 121.953C97.5319 121.093 98.392 120.633 99.6248 120.762C101.431 120.952 102.331 121.771 102.409 123.229L105.26 123.413C105.326 120.579 103.398 118.782 99.9006 118.414C96.6895 118.077 94.479 119.526 94.2259 121.934C93.9788 124.285 95.3642 125.445 98.0141 126.159L99.9849 126.714C101.225 127.047 101.76 127.48 101.669 128.34C101.573 129.257 100.495 129.579 99.2339 129.446C97.4849 129.263 96.4195 128.368 96.3785 126.827L93.3846 126.629ZM118.321 122.988C117.939 121.383 116.789 120.189 114.553 119.954C112.632 119.752 111.096 120.576 110.314 121.944L110.531 119.879L107.091 119.518L105.762 132.162L109.202 132.523L109.913 125.757C110.136 123.635 111.285 122.364 112.947 122.539C114.61 122.714 115.124 123.899 114.919 125.848L114.162 133.045L117.603 133.406L118.314 126.64C118.537 124.518 119.685 123.247 121.348 123.422C123.04 123.6 123.524 124.781 123.319 126.731L122.563 133.928L126.003 134.289L126.832 126.405C127.121 123.652 126.279 121.187 122.867 120.828C120.803 120.611 119.166 121.57 118.321 122.988ZM136.026 129.806C135.812 131.842 134.291 133.073 132.485 132.883C131.396 132.769 130.791 132.183 130.881 131.323C131.014 130.062 132.101 129.915 133.626 129.756L136.059 129.491L136.026 129.806ZM139.658 127.521C140.008 124.195 138.02 122.421 134.752 122.077C131.397 121.725 129.229 123.323 128.528 125.858L131.623 126.473C132.039 125.271 132.903 124.492 134.337 124.642C135.799 124.796 136.454 125.735 136.307 127.14L136.276 127.426L132.735 127.75C129.808 128.022 127.752 128.82 127.499 131.229C127.27 133.408 128.737 134.895 131.375 135.173C133.239 135.368 135.04 134.775 135.911 133.388C136.081 134.798 136.911 135.725 138.345 135.876C139.492 135.997 140.219 135.696 140.809 135.323L141.002 133.489C140.611 133.621 140.258 133.671 139.914 133.635C139.369 133.578 139.058 133.226 139.128 132.567L139.658 127.521ZM143.387 117.854L141.488 135.917L144.929 136.278L146.827 118.216L143.387 117.854ZM148.819 118.425L146.92 136.488L150.361 136.849L152.259 118.786L148.819 118.425ZM162.077 133.616C161.439 134.999 160.36 135.61 158.668 135.432C156.805 135.236 155.481 133.764 155.562 131.888L165.052 132.886L165.182 131.653C165.544 128.212 163.723 125.122 159.595 124.688C155.81 124.29 152.67 126.859 152.251 130.845C151.833 134.83 154.38 137.619 158.279 138.029C161.519 138.37 163.873 136.936 164.828 134.195L162.077 133.616ZM155.846 129.744C156.327 128.2 157.409 127.009 159.301 127.208C161.222 127.41 161.963 128.908 161.924 130.383L155.846 129.744ZM165.37 134.195C165.274 137.315 167.646 139.014 170.944 139.36C174.212 139.704 176.599 138.505 176.87 135.925C177.12 133.545 175.661 132.261 173.04 131.551L170.674 130.897C169.771 130.657 169.355 130.207 169.427 129.519C169.517 128.659 170.377 128.199 171.61 128.328C173.417 128.518 174.316 129.337 174.395 130.795L177.245 130.979C177.311 128.145 175.384 126.348 171.886 125.98C168.675 125.643 166.464 127.092 166.211 129.5C165.964 131.851 167.35 133.011 170 133.724L171.97 134.279C173.211 134.613 173.745 135.046 173.655 135.906C173.558 136.823 172.481 137.145 171.219 137.012C169.47 136.829 168.405 135.934 168.364 134.393L165.37 134.195ZM178.515 136.562C178.231 139.257 179.775 140.289 181.725 140.494C183.273 140.656 184.347 140.363 185.337 139.772L185.575 137.507C184.794 137.772 184.05 137.955 183.362 137.883C182.33 137.774 181.893 137.236 182.008 136.146L182.665 129.896L186.105 130.257L186.358 127.849L182.918 127.487L183.286 123.99L181.193 123.77L180.61 125.448C180.2 126.593 179.79 127.188 178.536 127.259L177.661 127.312L177.447 129.347L179.253 129.537L178.515 136.562ZM194.673 134.868C194.914 132.575 196.441 131.286 198.39 131.491C200.569 131.72 201.522 133.414 201.268 135.822C201.018 138.202 199.734 139.662 197.555 139.433C195.606 139.228 194.377 137.678 194.621 135.356L194.673 134.868ZM194.264 139.029C194.678 140.608 196.068 142.001 198.333 142.239C202.06 142.631 204.346 139.914 204.738 136.187C205.129 132.46 203.461 129.299 199.734 128.907C197.469 128.669 195.82 129.742 195.084 131.23L195.34 128.793L191.9 128.432L190.076 145.777L193.517 146.139L194.264 139.029ZM207.253 124.566L205.354 142.629L208.795 142.991L210.693 124.928L207.253 124.566ZM218.959 138.523C218.745 140.558 217.225 141.79 215.418 141.6C214.329 141.485 213.724 140.9 213.814 140.04C213.947 138.778 215.035 138.632 216.559 138.473L218.992 138.207L218.959 138.523ZM222.591 136.237C222.941 132.912 220.953 131.137 217.685 130.794C214.33 130.441 212.162 132.04 211.461 134.575L214.556 135.19C214.972 133.987 215.836 133.208 217.27 133.359C218.732 133.513 219.387 134.451 219.24 135.856L219.209 136.143L215.668 136.466C212.741 136.738 210.685 137.537 210.432 139.945C210.203 142.124 211.67 143.612 214.308 143.889C216.172 144.085 217.973 143.492 218.844 142.105C219.014 143.514 219.845 144.442 221.278 144.593C222.425 144.713 223.152 144.413 223.742 144.04L223.935 142.205C223.544 142.338 223.191 142.388 222.847 142.352C222.302 142.294 221.991 141.943 222.061 141.283L222.591 136.237ZM228.573 138.229C228.796 136.107 230.03 134.845 231.779 135.029C233.471 135.207 234.127 136.406 233.922 138.356L233.166 145.552L236.607 145.914L237.435 138.029C237.731 135.22 236.739 132.796 233.356 132.441C231.463 132.242 229.755 133.048 228.974 134.415L229.191 132.351L225.75 131.989L224.421 144.633L227.862 144.995L228.573 138.229ZM248.202 142.669C247.564 144.051 246.485 144.662 244.793 144.484C242.93 144.289 241.606 142.816 241.687 140.94L251.177 141.938L251.307 140.705C251.669 137.264 249.848 134.174 245.72 133.74C241.935 133.343 238.795 135.911 238.376 139.897C237.958 143.882 240.505 146.672 244.404 147.081C247.644 147.422 249.998 145.988 250.953 143.248L248.202 142.669ZM241.971 138.796C242.452 137.252 243.533 136.062 245.426 136.26C247.347 136.462 248.088 137.961 248.049 139.435L241.971 138.796ZM252.684 144.357C252.401 147.052 253.945 148.084 255.894 148.289C257.442 148.452 258.517 148.159 259.507 147.567L259.745 145.302C258.963 145.568 258.219 145.751 257.531 145.678C256.499 145.57 256.063 145.031 256.177 143.942L256.834 137.691L260.275 138.053L260.528 135.645L257.087 135.283L257.455 131.785L255.362 131.565L254.78 133.243C254.37 134.389 253.959 134.983 252.705 135.054L251.83 135.107L251.616 137.143L253.422 137.333L252.684 144.357ZM266.069 136.227L264.74 148.871L268.181 149.233L269.509 136.589L266.069 136.227ZM266.229 134.157L269.755 134.527L270.108 131.173L266.581 130.802L266.229 134.157ZM274.324 143.037C274.546 140.915 275.781 139.654 277.53 139.838C279.221 140.015 279.878 141.215 279.673 143.165L278.916 150.361L282.357 150.723L283.186 142.838C283.481 140.028 282.489 137.605 279.106 137.249C277.214 137.051 275.506 137.857 274.724 139.224L274.941 137.16L271.501 136.798L270.172 149.442L273.612 149.803L274.324 143.037ZM87.5385 156.159C87.2553 158.854 88.7991 159.886 90.7487 160.091C92.297 160.254 93.3713 159.961 94.3611 159.369L94.5992 157.104C93.8176 157.37 93.0737 157.553 92.3856 157.481C91.3534 157.372 90.9172 156.833 91.0317 155.744L91.6887 149.494L95.1292 149.855L95.3823 147.447L91.9418 147.085L92.3094 143.587L90.2165 143.367L89.6343 145.045C89.224 146.191 88.8137 146.785 87.5597 146.857L86.6845 146.91L86.4706 148.945L88.2768 149.135L87.5385 156.159ZM99.4903 153.821C99.7133 151.699 100.947 150.438 102.696 150.622C104.388 150.799 105.045 151.999 104.84 153.949L104.083 161.145L107.524 161.507L108.353 153.622C108.648 150.812 107.656 148.389 104.273 148.033C102.381 147.835 100.673 148.641 99.8911 150.008L100.678 142.525L97.2371 142.163L95.3387 160.226L98.7792 160.587L99.4903 153.821ZM119.119 158.261C118.481 159.643 117.402 160.255 115.71 160.077C113.847 159.881 112.523 158.409 112.604 156.533L122.095 157.53L122.224 156.297C122.586 152.857 120.765 149.767 116.637 149.333C112.852 148.935 109.712 151.504 109.294 155.489C108.875 159.474 111.422 162.264 115.322 162.674C118.561 163.015 120.915 161.581 121.87 158.84L119.119 158.261ZM112.888 154.389C113.369 152.845 114.451 151.654 116.343 151.853C118.264 152.055 119.005 153.553 118.966 155.027L112.888 154.389ZM126.612 159.281C126.516 162.401 128.888 164.1 132.185 164.446C135.454 164.79 137.841 163.591 138.112 161.011C138.362 158.631 136.903 157.348 134.282 156.637L131.916 155.983C131.013 155.743 130.597 155.293 130.669 154.605C130.759 153.745 131.619 153.285 132.852 153.414C134.658 153.604 135.558 154.423 135.637 155.881L138.487 156.065C138.553 153.231 136.626 151.434 133.128 151.066C129.917 150.729 127.706 152.178 127.453 154.586C127.206 156.937 128.592 158.097 131.241 158.811L133.212 159.366C134.453 159.699 134.987 160.132 134.897 160.992C134.8 161.909 133.723 162.231 132.461 162.098C130.712 161.915 129.647 161.02 129.606 159.479L126.612 159.281ZM142.404 158.795C142.657 156.387 143.921 154.839 146.014 155.059C148.136 155.282 149.051 157.059 148.797 159.467C148.547 161.847 147.283 163.395 145.161 163.172C143.068 162.952 142.154 161.175 142.404 158.795ZM152.267 159.832C152.679 155.904 150.216 152.862 146.288 152.449C142.389 152.04 139.347 154.503 138.935 158.431C138.522 162.359 140.988 165.372 144.887 165.781C148.815 166.194 151.854 163.76 152.267 159.832ZM154.775 148.211L152.877 166.273L156.317 166.635L158.216 148.572L154.775 148.211ZM166.482 162.167C166.268 164.202 164.747 165.434 162.941 165.244C161.851 165.129 161.246 164.544 161.336 163.684C161.469 162.422 162.557 162.276 164.081 162.117L166.515 161.851L166.482 162.167ZM170.114 159.881C170.463 156.556 168.475 154.781 165.207 154.438C161.852 154.085 159.684 155.684 158.983 158.219L162.078 158.834C162.494 157.631 163.359 156.853 164.792 157.003C166.255 157.157 166.91 158.095 166.762 159.5L166.732 159.787L163.19 160.11C160.263 160.383 158.208 161.181 157.955 163.589C157.726 165.768 159.193 167.256 161.83 167.533C163.694 167.729 165.496 167.136 166.366 165.749C166.537 167.158 167.367 168.086 168.801 168.237C169.947 168.357 170.675 168.057 171.265 167.684L171.457 165.849C171.067 165.982 170.714 166.032 170.369 165.996C169.825 165.939 169.514 165.587 169.583 164.928L170.114 159.881ZM181.999 156.725C181.66 156.37 181.05 156.103 180.276 156.022C178.527 155.838 177.07 157.018 176.46 158.403L176.713 155.995L173.273 155.633L171.944 168.277L175.384 168.639L176.041 162.389C176.282 160.095 177.619 158.96 179.397 159.147C180.228 159.234 180.784 159.467 181.404 159.909L181.999 156.725ZM185.186 165.437C185.09 168.558 187.462 170.256 190.759 170.603C194.028 170.946 196.415 169.748 196.686 167.167C196.936 164.788 195.477 163.504 192.856 162.794L190.489 162.139C189.587 161.899 189.17 161.45 189.243 160.762C189.333 159.901 190.193 159.441 191.426 159.571C193.232 159.76 194.132 160.58 194.211 162.037L197.061 162.221C197.127 159.387 195.2 157.59 191.702 157.223C188.491 156.885 186.28 158.334 186.027 160.742C185.78 163.093 187.165 164.254 189.815 164.967L191.786 165.522C193.027 165.855 193.561 166.288 193.47 167.148C193.374 168.066 192.297 168.387 191.035 168.255C189.286 168.071 188.221 167.176 188.18 165.636L185.186 165.437ZM202.233 176.215L211.31 159.631L207.955 159.279L203.636 167.55L203.522 167.538L200.988 158.547L197.376 158.167L201.288 171.42L198.85 175.859L202.233 176.215ZM210.105 168.056C210.009 171.177 212.381 172.875 215.678 173.222C218.947 173.565 221.334 172.367 221.605 169.787C221.855 167.407 220.396 166.123 217.775 165.413L215.409 164.758C214.506 164.518 214.09 164.069 214.162 163.381C214.252 162.521 215.112 162.06 216.345 162.19C218.151 162.38 219.051 163.199 219.13 164.656L221.98 164.84C222.046 162.006 220.119 160.209 216.621 159.842C213.41 159.504 211.199 160.953 210.946 163.362C210.699 165.713 212.085 166.873 214.734 167.586L216.705 168.141C217.946 168.474 218.48 168.907 218.39 169.767C218.293 170.685 217.216 171.007 215.954 170.874C214.205 170.69 213.14 169.795 213.099 168.255L210.105 168.056ZM223.25 170.423C222.966 173.118 224.51 174.15 226.46 174.355C228.008 174.518 229.082 174.225 230.072 173.633L230.31 171.368C229.529 171.634 228.785 171.817 228.097 171.744C227.065 171.636 226.628 171.097 226.743 170.008L227.4 163.757L230.84 164.119L231.093 161.711L227.653 161.349L228.021 157.851L225.928 157.631L225.345 159.309C224.935 160.455 224.525 161.049 223.271 161.12L222.396 161.173L222.182 163.209L223.988 163.399L223.25 170.423ZM240.719 171.042C240.08 172.424 239.002 173.035 237.31 172.858C235.446 172.662 234.123 171.189 234.204 169.314L243.694 170.311L243.824 169.078C244.185 165.638 242.365 162.548 238.236 162.114C234.452 161.716 231.312 164.285 230.893 168.27C230.474 172.255 233.022 175.045 236.921 175.455C240.161 175.795 242.515 174.361 243.47 171.621L240.719 171.042ZM234.487 167.169C234.969 165.625 236.05 164.435 237.943 164.634C239.864 164.836 240.605 166.334 240.566 167.808L234.487 167.169ZM256.993 166.723C256.611 165.117 255.461 163.924 253.224 163.689C251.303 163.487 249.767 164.311 248.986 165.678L249.203 163.614L245.762 163.252L244.433 175.896L247.874 176.258L248.585 169.492C248.808 167.37 249.956 166.099 251.619 166.274C253.282 166.449 253.795 167.633 253.59 169.583L252.834 176.779L256.274 177.141L256.986 170.375C257.209 168.253 258.357 166.982 260.02 167.157C261.711 167.335 262.196 168.516 261.991 170.466L261.234 177.662L264.675 178.024L265.504 170.139C265.793 167.387 264.951 164.921 261.539 164.563C259.474 164.346 257.837 165.304 256.993 166.723ZM278.741 174.082C278.869 173.138 279.359 172.61 280.447 171.913C282.459 170.704 284.215 169.439 284.471 167.002C284.784 164.02 282.865 161.326 278.593 160.877C274.579 160.455 271.685 162.614 271.287 166.399C271.23 166.944 271.255 167.526 271.31 168.112L274.821 168.626C274.758 168.126 274.723 167.63 274.786 167.028C275.006 164.935 276.154 163.664 278.247 163.884C280.054 164.074 280.822 165.314 280.671 166.748C280.488 168.497 279.222 169.233 277.855 170.104C276.332 171.075 275.632 172.218 275.444 173.735L278.741 174.082ZM274.565 179.063L278.378 179.464L278.782 175.622L274.969 175.221L274.565 179.063Z" fill="#1B2D2A"/>
<g clip-path="url(#clip1_750_14185)">
<path d="M162.044 396.669C201.449 400.81 236.751 372.223 240.893 332.818C245.035 293.412 216.448 258.111 177.042 253.969C137.637 249.827 102.335 278.414 98.1932 317.82C94.0515 357.225 122.638 392.527 162.044 396.669Z" fill="url(#paint0_linear_750_14185)"/>
<path d="M177.006 254.316C191.049 255.792 204.339 261.399 215.195 270.429C226.052 279.458 233.987 291.503 237.997 305.042C242.008 318.581 241.913 333.005 237.726 346.491C233.539 359.976 225.447 371.917 214.473 380.803C203.499 389.689 190.137 395.122 176.076 396.414C162.015 397.706 147.886 394.799 135.477 388.062C123.068 381.324 112.935 371.058 106.36 358.562C99.7855 346.065 97.0641 331.9 98.5401 317.857C100.519 299.026 109.898 281.752 124.613 269.836C139.329 257.92 158.175 252.337 177.006 254.316ZM177.077 253.642C162.9 252.152 148.6 254.899 135.985 261.536C123.37 268.174 113.007 278.402 106.205 290.93C99.4031 303.457 96.4689 317.719 97.7733 331.914C99.0776 346.109 104.562 359.598 113.532 370.676C122.503 381.754 134.557 389.923 148.171 394.15C161.784 398.377 176.345 398.472 190.013 394.424C203.68 390.375 215.84 382.365 224.955 371.405C234.07 360.446 239.731 347.029 241.221 332.853C243.198 313.847 237.554 294.833 225.529 279.983C213.504 265.133 196.078 255.66 177.077 253.642V253.642Z" fill="#FF8585"/>
<path d="M203.547 328.932C202.596 337.934 198.11 346.191 191.075 351.887C184.04 357.584 175.032 360.255 166.028 359.314C160.002 358.693 154.255 356.461 149.389 352.851C158.793 347.092 167.806 340.718 176.369 333.771C184.963 326.81 193.093 319.296 200.708 311.276C203.21 316.804 204.19 322.899 203.547 328.932Z" fill="white"/>
<path d="M200.708 311.275C200.226 310.191 199.687 309.133 199.093 308.105C205.931 300.506 208.796 295.488 208.108 294.247C206.999 293.312 201.515 295.074 192.698 300.186C195.217 302.488 197.373 305.158 199.093 308.105C191.406 316.396 183.088 324.08 174.216 331.089C165.517 338.284 156.274 344.796 146.571 350.567C144.05 348.26 141.889 345.59 140.156 342.646C133.342 350.209 130.434 355.26 131.141 356.504C132.231 357.436 137.756 355.66 146.571 350.567C147.456 351.382 148.399 352.133 149.393 352.811C141.914 357.246 135.066 360.306 131.116 359.891C130.114 359.823 129.176 359.368 128.503 358.622C127.072 356.855 126.357 353.273 136.094 342.004C136.827 341.146 137.626 340.217 138.455 339.369C135.307 332.492 134.537 324.762 136.265 317.399C137.994 310.035 142.123 303.456 148.002 298.697C153.881 293.939 161.176 291.271 168.738 291.115C176.3 290.958 183.699 293.322 189.77 297.833C190.812 297.183 191.847 296.61 192.86 296.054C205.911 288.834 209.302 290.301 210.693 292.084C213.4 295.427 208.272 303.07 200.708 311.275Z" fill="white"/>
</g>
<path d="M175.11 460.788L172.198 467.671L172.141 467.665L172.888 460.555L171.082 460.365L170.133 469.396L172.899 469.687L175.467 463.319L175.51 463.323L176.799 470.097L179.623 470.393L180.572 461.362L178.909 461.187L178.162 468.298L178.104 468.292L176.644 460.949L175.11 460.788ZM164.693 461.925C165.012 461.234 165.552 460.928 166.398 461.017C167.329 461.115 167.991 461.852 167.951 462.789L163.206 462.291L163.141 462.907C162.96 464.627 163.87 466.172 165.934 466.389C167.827 466.588 169.397 465.304 169.606 463.311C169.815 461.319 168.542 459.924 166.592 459.719C164.972 459.549 163.795 460.266 163.318 461.636L164.693 461.925ZM167.809 463.862C167.568 464.633 167.028 465.229 166.081 465.129C165.121 465.028 164.75 464.279 164.77 463.542L167.809 463.862ZM157.36 465.227C157.53 465.405 157.835 465.538 158.222 465.579C159.096 465.671 159.825 465.081 160.13 464.388L160.003 465.592L161.724 465.773L162.388 459.451L160.668 459.27L160.339 462.395C160.219 463.542 159.55 464.11 158.662 464.016C158.246 463.972 157.968 463.856 157.658 463.635L157.36 465.227ZM157.403 462.116C157.614 460.109 156.362 458.644 154.413 458.439C152.535 458.241 151.373 459.366 151.07 460.87L152.504 461.151C152.734 460.205 153.328 459.658 154.274 459.758C155.22 459.857 155.806 460.629 155.669 461.933C155.53 463.252 154.797 463.885 153.851 463.786C152.905 463.686 152.436 463.043 152.406 462.083L150.948 462.031C150.932 463.566 151.834 464.907 153.712 465.105C155.662 465.31 157.192 464.123 157.403 462.116ZM145.755 460.674C145.868 459.599 146.456 458.965 147.302 459.054C148.148 459.143 148.446 459.754 148.345 460.714L147.965 464.327L149.686 464.508L150.102 460.551C150.249 459.146 149.795 457.953 148.118 457.777C147.157 457.676 146.362 458.071 145.955 458.767L146.064 457.735L144.344 457.554L143.679 463.876L145.399 464.057L145.755 460.674ZM137.859 463.178C138.029 463.355 138.334 463.488 138.721 463.529C139.595 463.621 140.324 463.031 140.629 462.338L140.502 463.542L142.222 463.723L142.887 457.401L141.166 457.22L140.838 460.346C140.717 461.492 140.049 462.06 139.16 461.966C138.745 461.923 138.467 461.807 138.157 461.586L137.859 463.178ZM135.162 454.212L130.624 462.504L132.301 462.68L134.46 458.545L134.518 458.551L135.784 463.047L137.591 463.236L135.635 456.61L136.854 454.39L135.162 454.212Z" fill="#1B2D2A"/>
</g>
<defs>
<filter id="filter0_d_750_14185" x="-1.25142" y="-1.20722" width="356.306" height="520.795" filterUnits="userSpaceOnUse" color-interpolation-filters="sRGB">
<feFlood flood-opacity="0" result="BackgroundImageFix"/>
<feColorMatrix in="SourceAlpha" type="matrix" values="0 0 0 0 0 0 0 0 0 0 0 0 0 0 0 0 0 0 127 0" result="hardAlpha"/>
<feOffset dy="7.20722"/>
<feGaussianBlur stdDeviation="7.20722"/>
<feColorMatrix type="matrix" values="0 0 0 0 0.105882 0 0 0 0 0.176471 0 0 0 0 0.164706 0 0 0 0.2 0"/>
<feBlend mode="normal" in2="BackgroundImageFix" result="effect1_dropShadow_750_14185"/>
<feBlend mode="normal" in="SourceGraphic" in2="effect1_dropShadow_750_14185" result="shape"/>
</filter>
<linearGradient id="paint0_linear_750_14185" x1="161.615" y1="400.753" x2="176.208" y2="261.907" gradientUnits="userSpaceOnUse">
<stop offset="0.02" stop-color="#FFEBEB"/>
<stop offset="0.07" stop-color="#FFE2E2"/>
<stop offset="0.36" stop-color="#FFBABA"/>
<stop offset="0.61" stop-color="#FF9D9D"/>
<stop offset="0.84" stop-color="#FF8B8B"/>
<stop offset="1" stop-color="#FF8585"/>
</linearGradient>
<clipPath id="clip0_750_14185">
<rect width="15.3941" height="9.00903" fill="white" transform="translate(159.268 52.4785) rotate(6)"/>
</clipPath>
<clipPath id="clip1_750_14185">
<rect width="144.144" height="144.144" fill="white" transform="translate(105.4 246.108) rotate(6)"/>
</clipPath>
</defs>
</svg>
