<svg width="36" height="48" viewBox="0 0 36 48" fill="none" xmlns="http://www.w3.org/2000/svg">
<g clip-path="url(#clip0_741_12429)">
<path d="M30.8372 37.0898H32.1388V47.3489C32.1388 47.4344 32.122 47.519 32.0893 47.598C32.0566 47.677 32.0086 47.7487 31.9482 47.8091C31.8878 47.8696 31.816 47.9175 31.737 47.9502C31.6581 47.9829 31.5735 47.9998 31.488 47.9998V47.9998C31.3154 47.9998 31.1498 47.9312 31.0278 47.8091C30.9057 47.6871 30.8372 47.5216 30.8372 47.3489V37.0898V37.0898Z" fill="white"/>
<path d="M28.8848 37.0898H30.1864V45.5552C30.1864 45.7278 30.1178 45.8933 29.9958 46.0154C29.8737 46.1374 29.7082 46.206 29.5356 46.206C29.363 46.206 29.1974 46.1374 29.0754 46.0154C28.9533 45.8933 28.8848 45.7278 28.8848 45.5552V37.0898V37.0898Z" fill="white"/>
<path d="M33.8062 37.0898C32.5827 40.299 30.4132 43.0607 27.585 45.0092C24.7569 46.9577 21.4035 48.001 17.9691 48.001C14.5346 48.001 11.1813 46.9577 8.35309 45.0092C5.52492 43.0607 3.35542 40.299 2.13196 37.0898H33.8062Z" fill="white"/>
<path d="M30.9499 29.3009H27.222C25.8932 29.3008 24.6144 29.8079 23.6468 30.7187C22.6792 31.6295 22.0957 32.8752 22.0154 34.2016L21.8475 37.0901L21.4543 42.3151L21.0541 47.7286C19.0069 48.1058 16.9081 48.1058 14.8609 47.7286L14.4608 42.3151L14.0744 37.0901L13.8996 34.2016C13.8194 32.8752 13.2359 31.6295 12.2683 30.7187C11.3006 29.8079 10.0219 29.3008 8.69305 29.3009H4.96749C4.60564 29.301 4.24772 29.2258 3.91654 29.08C3.58535 28.9343 3.28816 28.7211 3.04391 28.4541C2.79965 28.1871 2.61368 27.8722 2.49784 27.5294C2.382 27.1866 2.33883 26.8234 2.37109 26.463L4.62253 1.18896C4.65128 0.864226 4.80063 0.562038 5.04114 0.34196C5.28165 0.121882 5.59587 -0.000120013 5.92188 8.85885e-08H29.9955C30.3215 -0.000120013 30.6357 0.121882 30.8762 0.34196C31.1167 0.562038 31.2661 0.864226 31.2948 1.18896L33.5463 26.463C33.5785 26.8234 33.5354 27.1866 33.4195 27.5294C33.3037 27.8722 33.1177 28.1871 32.8734 28.4541C32.6292 28.7211 32.332 28.9343 32.0008 29.08C31.6696 29.2258 31.3117 29.301 30.9499 29.3009V29.3009Z" fill="#1B2D2A"/>
<path d="M21.8407 37.0898L21.4543 42.3033H14.4608L14.0745 37.0898H21.8407Z" fill="#B6F57A"/>
<path d="M10.1189 26.2923L8.2469 26.7522L7.25342 22.7668L9.02421 22.3253C10.0315 22.0746 10.5696 22.3966 10.7306 23.0497C10.7856 23.2546 10.7621 23.4726 10.6647 23.6611C10.5673 23.8496 10.403 23.9949 10.204 24.0685C10.4504 24.0333 10.7011 24.093 10.9051 24.2356C11.1092 24.3782 11.2515 24.593 11.3032 24.8366C11.4734 25.5265 11.0503 26.06 10.1189 26.2923ZM8.43778 24.2363L9.38757 24.0064C9.86131 23.8891 10.0131 23.6292 9.9372 23.3325C9.86131 23.0359 9.60834 22.8726 9.1323 22.9876L8.18481 23.2176L8.43778 24.2363ZM8.58726 24.8389L8.85863 25.9266L9.87051 25.676C10.365 25.5518 10.5604 25.2827 10.4707 24.9539C10.3811 24.625 10.0936 24.464 9.59914 24.5859L8.58726 24.8389Z" fill="white"/>
<path d="M12.3518 24.3128C11.9598 24.2975 11.5889 24.1311 11.3169 23.8483C11.045 23.5656 10.8931 23.1885 10.8931 22.7961C10.8931 22.4038 11.045 22.0267 11.3169 21.744C11.5889 21.4612 11.9598 21.2947 12.3518 21.2795C12.556 21.2715 12.7596 21.3049 12.9506 21.3775C13.1415 21.4501 13.3158 21.5606 13.4631 21.7022C13.6103 21.8438 13.7274 22.0137 13.8075 22.2017C13.8875 22.3897 13.9287 22.5918 13.9287 22.7961C13.9287 23.0004 13.8875 23.2026 13.8075 23.3906C13.7274 23.5786 13.6103 23.7485 13.4631 23.8901C13.3158 24.0317 13.1415 24.1421 12.9506 24.2148C12.7596 24.2874 12.556 24.3208 12.3518 24.3128ZM12.3518 23.7172C12.8348 23.7172 13.0808 23.34 13.0808 22.7973C13.0808 22.2546 12.8348 21.8774 12.3518 21.8774C11.8689 21.8774 11.6274 22.2546 11.6274 22.7973C11.6274 23.34 11.8758 23.7172 12.3518 23.7172Z" fill="white"/>
<path d="M14.2929 23.5958L13.9019 23.4694L14.0445 23.0301L14.24 23.0577C14.5228 23.1014 14.6401 22.9887 14.785 22.7541L14.992 22.4092L15.4519 22.5564L15.2082 23.313L15.9533 23.5429L15.7831 24.065L15.038 23.835L14.601 25.1896C14.5781 25.2323 14.5657 25.2799 14.5648 25.3285C14.5639 25.377 14.5745 25.4251 14.5959 25.4686C14.6172 25.5122 14.6486 25.5501 14.6875 25.5792C14.7264 25.6082 14.7717 25.6276 14.8195 25.6357C14.9855 25.679 15.1588 25.686 15.3277 25.6564L15.1691 26.1462C14.9 26.243 14.6056 26.243 14.3366 26.1462C13.9134 26.0106 13.6213 25.7093 13.8099 25.1275L14.2929 23.5958Z" fill="white"/>
<path d="M16.2155 23.0525L15.8084 23.1054L15.7487 22.6455L15.9395 22.588C16.2109 22.5075 16.2707 22.358 16.3006 22.082L16.342 21.6819L16.8019 21.6221L16.9031 22.4109L17.6919 22.3074L17.7609 22.8524L16.9859 22.9513L17.1653 24.3611C17.1975 24.6071 17.3217 24.7037 17.5539 24.6738C17.7192 24.6402 17.8758 24.5729 18.0139 24.476L18.0783 24.9866C17.8744 25.1872 17.6067 25.3101 17.3217 25.3338C16.8801 25.3913 16.4869 25.2441 16.4018 24.6439L16.2155 23.0525Z" fill="white"/>
<path d="M19.741 26.1548C19.4407 26.1543 19.1473 26.0648 18.8979 25.8975C18.6485 25.7303 18.4543 25.4928 18.3399 25.2151C18.2255 24.9375 18.1961 24.6321 18.2553 24.3377C18.3144 24.0433 18.4596 23.7731 18.6725 23.5613C18.8853 23.3494 19.1562 23.2054 19.4508 23.1476C19.7455 23.0897 20.0507 23.1206 20.3278 23.2362C20.605 23.3519 20.8416 23.5471 21.0077 23.7973C21.1738 24.0475 21.262 24.3413 21.2611 24.6416C21.2707 24.8434 21.2379 25.045 21.1648 25.2334C21.0917 25.4218 20.9799 25.5928 20.8367 25.7354C20.6935 25.878 20.522 25.9889 20.3333 26.0612C20.1446 26.1334 19.9428 26.1653 19.741 26.1548V26.1548ZM19.741 25.5615C20.2239 25.5615 20.47 25.1843 20.47 24.6416C20.47 24.0988 20.2239 23.7217 19.741 23.7217C19.258 23.7217 19.0166 24.1011 19.0166 24.6416C19.0166 25.182 19.2649 25.5615 19.741 25.5615Z" fill="white"/>
<path d="M24.4186 23.9171C25.1292 23.6067 25.5685 23.9976 25.8191 24.5725L26.5344 26.2191L25.8168 26.5296L25.1637 25.0279C24.9866 24.6208 24.7613 24.4438 24.4071 24.5955C24.053 24.7473 23.9748 25.1245 24.1771 25.5683L24.7912 26.9804L24.0737 27.2931L23.4205 25.7914C23.2434 25.3843 23.0112 25.2073 22.6639 25.359C22.3167 25.5108 22.2316 25.888 22.4339 26.3295L23.048 27.7416L22.3075 28.0566L21.1576 25.4188L21.8751 25.1061L22.0637 25.5361C22.0676 25.3474 22.128 25.1642 22.237 25.01C22.3461 24.8559 22.4988 24.738 22.6754 24.6714C22.8495 24.5753 23.0509 24.5407 23.247 24.5732C23.4432 24.6058 23.6226 24.7036 23.7563 24.8508C23.7623 24.6472 23.8284 24.4499 23.9462 24.2838C24.0641 24.1176 24.2284 23.9901 24.4186 23.9171V23.9171Z" fill="white"/>
<path d="M26.7137 24.5744C26.7574 24.9193 27.0196 25.0964 27.4175 25.0964C27.7049 25.0964 27.9395 24.9975 27.9395 24.7883C27.9395 24.579 27.8084 24.5077 27.5209 24.4617L27.061 24.3835C26.447 24.2869 26.1089 24.0592 26.1089 23.5234C26.1089 22.9876 26.5689 22.6035 27.3025 22.6035C28.0982 22.6035 28.5742 22.9623 28.6248 23.6016L27.9809 23.6269C27.928 23.3026 27.7072 23.1394 27.291 23.1394C27.0104 23.1394 26.831 23.2635 26.831 23.459C26.831 23.6154 26.9368 23.7074 27.1461 23.7396L27.6934 23.8293C28.3006 23.9282 28.6593 24.1834 28.6593 24.7239C28.6593 25.3103 28.1488 25.6438 27.406 25.6438C26.6631 25.6438 26.0813 25.3172 26.0261 24.6135L26.7137 24.5744Z" fill="white"/>
<path d="M14.4653 29.2991L13.9156 26.8476L14.7045 26.6705L15.2357 29.0392C15.3921 29.7291 15.7646 30.0235 16.3856 29.8809C17.0065 29.7383 17.2365 29.3175 17.0755 28.6299L16.558 26.2542L17.3537 26.0771L17.9034 28.5172C18.1656 29.6877 17.5055 30.3248 16.5465 30.5409C15.5876 30.7571 14.7298 30.4696 14.4653 29.2991Z" fill="white"/>
<path d="M18.4807 32.6241L17.7057 32.5092L18.2806 28.5996L19.0556 28.7123L18.9751 29.2619C19.0802 29.0789 19.2404 28.9337 19.4328 28.847C19.6252 28.7602 19.8401 28.7365 20.0468 28.779C20.8862 28.9032 21.2335 29.6322 21.1093 30.4716C20.9851 31.311 20.4447 31.9043 19.6053 31.7801C19.3959 31.7614 19.1976 31.6777 19.0381 31.5408C18.8785 31.404 18.7657 31.2207 18.7153 31.0166L18.4807 32.6241ZM18.8303 30.1956C18.7544 30.72 19.0165 31.081 19.4558 31.1454C19.9456 31.2167 20.2515 30.8993 20.3297 30.3635C20.4079 29.8277 20.2101 29.4298 19.7203 29.3585C19.281 29.2941 18.9222 29.5701 18.8464 30.0875L18.8303 30.1956Z" fill="white"/>
<path d="M31.7652 4.40957L29.9208 4.55712C28.9263 4.63668 28.1846 5.50737 28.2642 6.50186L28.2644 6.50416C28.3439 7.49866 29.2146 8.24036 30.2091 8.1608L32.0535 8.01325C33.048 7.93369 33.7897 7.06299 33.7101 6.0685L33.7099 6.0662C33.6304 5.07171 32.7597 4.33001 31.7652 4.40957Z" fill="white"/>
<path d="M33.1873 14.8168L31.1971 14.9706C30.2055 15.0472 29.4639 15.9132 29.5405 16.9047L29.5407 16.907C29.6173 17.8985 30.4833 18.6402 31.4748 18.5636L33.465 18.4097C34.4566 18.3331 35.1982 17.4672 35.1216 16.4756L35.1214 16.4733C35.0448 15.4818 34.1788 14.7401 33.1873 14.8168Z" fill="white"/>
<path d="M33.2112 7.86344L30.1066 8.10341C29.1151 8.18006 28.3734 9.04599 28.4501 10.0375L28.4502 10.0398C28.5269 11.0314 29.3928 11.773 30.3843 11.6964L33.4889 11.4564C34.4805 11.3798 35.2221 10.5138 35.1455 9.52229L35.1453 9.52C35.0687 8.52846 34.2027 7.7868 33.2112 7.86344Z" fill="white"/>
<path d="M2.16952 22.3779L2.86864 22.4338C4.14129 22.5356 5.25551 21.5865 5.35732 20.3138C5.45913 19.0412 4.50998 17.927 3.23734 17.8252L2.53822 17.7692C1.26557 17.6674 0.151351 18.6166 0.0495391 19.8892C-0.0522726 21.1619 0.896877 22.2761 2.16952 22.3779Z" fill="white"/>
<path d="M33.9764 11.271L30.4086 11.5468C29.4171 11.6234 28.6754 12.4893 28.7521 13.4809L28.7522 13.4832C28.8289 14.4747 29.6948 15.2164 30.6863 15.1397L34.2541 14.864C35.2456 14.7873 35.9873 13.9214 35.9106 12.9299L35.9105 12.9276C35.8338 11.936 34.9679 11.1944 33.9764 11.271Z" fill="white"/>
<path d="M7.51332 2.98944H7.20056V2.36621H7.49493C7.65591 2.36621 7.7249 2.4329 7.7249 2.53869C7.72566 2.57037 7.71451 2.60118 7.69364 2.62503C7.67277 2.64888 7.64371 2.66403 7.61221 2.66748C7.6492 2.67152 7.68329 2.68942 7.70761 2.71759C7.73193 2.74575 7.74468 2.78207 7.7433 2.81926C7.7433 2.92735 7.66051 2.98944 7.51332 2.98944ZM7.35924 2.61918H7.49033C7.55472 2.61918 7.58232 2.58929 7.58232 2.55249C7.58232 2.51569 7.55472 2.4858 7.49033 2.4858H7.35924V2.61918ZM7.35924 2.73187V2.86985H7.50413C7.57082 2.86985 7.60071 2.84456 7.60071 2.80086C7.60071 2.75717 7.57082 2.73187 7.50183 2.73187H7.35924Z" fill="white"/>
<path d="M8.02392 3.00389C7.97843 3.00389 7.93397 2.9904 7.89615 2.96513C7.85833 2.93986 7.82886 2.90395 7.81145 2.86193C7.79405 2.8199 7.78949 2.77366 7.79836 2.72905C7.80724 2.68444 7.82914 2.64347 7.8613 2.6113C7.89347 2.57914 7.93444 2.55724 7.97905 2.54836C8.02366 2.53949 8.0699 2.54404 8.11193 2.56145C8.15395 2.57886 8.18986 2.60833 8.21513 2.64615C8.2404 2.68397 8.25389 2.72843 8.25389 2.77392C8.25389 2.83491 8.22966 2.89341 8.18653 2.93653C8.14341 2.97966 8.08491 3.00389 8.02392 3.00389ZM8.02392 2.8958C8.08831 2.8958 8.11821 2.84521 8.11821 2.77162C8.11821 2.69803 8.08831 2.64743 8.02392 2.64743C7.95953 2.64743 7.93193 2.69803 7.93193 2.77162C7.93193 2.84521 7.96183 2.8958 8.02392 2.8958Z" fill="white"/>
<path d="M8.33885 2.65207H8.27905V2.56468H8.31125C8.35494 2.56468 8.36644 2.53248 8.37794 2.49339L8.39174 2.43359H8.48143V2.55548H8.59872V2.65667H8.48143V2.84065C8.48143 2.87744 8.49983 2.89354 8.53202 2.89354C8.55683 2.89261 8.58115 2.88633 8.60331 2.87514V2.96943C8.56726 2.99732 8.52233 3.01121 8.47683 3.00853C8.45882 3.01108 8.44046 3.00949 8.42315 3.00387C8.40585 2.99826 8.39005 2.98877 8.37697 2.97613C8.36388 2.96349 8.35386 2.94803 8.34765 2.93093C8.34144 2.91382 8.33922 2.89553 8.34115 2.87744L8.33885 2.65207Z" fill="white"/>
<path d="M8.67232 2.65207H8.61023V2.56468H8.64243C8.68612 2.56468 8.69992 2.53248 8.71142 2.49339L8.72522 2.43359H8.81261V2.55548H8.92989V2.65667H8.81261V2.84065C8.81141 2.84786 8.81195 2.85526 8.81419 2.86222C8.81642 2.86919 8.82029 2.87552 8.82546 2.88069C8.83063 2.88586 8.83696 2.88972 8.84392 2.89196C8.85089 2.89419 8.85828 2.89474 8.8655 2.89354C8.89023 2.89209 8.91445 2.88584 8.93679 2.87514V2.96943C8.89984 2.9973 8.85421 3.01115 8.80801 3.00853C8.78999 3.01108 8.77164 3.00949 8.75433 3.00387C8.73703 2.99826 8.72123 2.98877 8.70814 2.97613C8.69506 2.96349 8.68503 2.94803 8.67882 2.93093C8.67262 2.91382 8.67039 2.89553 8.67232 2.87744V2.65207Z" fill="white"/>
<path d="M9.19897 3.00389C9.13797 3.00389 9.07948 2.97966 9.03635 2.93653C8.99322 2.89341 8.96899 2.83491 8.96899 2.77392C8.96899 2.71293 8.99322 2.65443 9.03635 2.6113C9.07948 2.56817 9.13797 2.54395 9.19897 2.54395C9.25996 2.54395 9.31845 2.56817 9.36158 2.6113C9.40471 2.65443 9.42894 2.71293 9.42894 2.77392C9.42894 2.83491 9.40471 2.89341 9.36158 2.93653C9.31845 2.97966 9.25996 3.00389 9.19897 3.00389ZM9.19897 2.8958C9.26106 2.8958 9.29096 2.84521 9.29096 2.77162C9.29096 2.69803 9.26106 2.64743 9.19897 2.64743C9.13687 2.64743 9.10698 2.69803 9.10698 2.77162C9.10698 2.84521 9.13917 2.8958 9.19897 2.8958Z" fill="white"/>
<path d="M10.0706 2.52931C10.1902 2.52931 10.227 2.6121 10.227 2.70639V2.98925H10.0844V2.75928C10.0844 2.69489 10.0683 2.66039 10.0177 2.66039C9.96709 2.66039 9.93719 2.70639 9.93719 2.77538V3.00535H9.79231V2.75928C9.79231 2.69489 9.77621 2.66039 9.72332 2.66039C9.67042 2.66039 9.64283 2.70639 9.64283 2.77538V3.00535H9.50024V2.55001H9.64283V2.619C9.65624 2.59372 9.67653 2.57275 9.70135 2.55851C9.72618 2.54427 9.75452 2.53734 9.78311 2.53851C9.81254 2.53572 9.84207 2.54279 9.86704 2.55861C9.89202 2.57443 9.91103 2.5981 9.92109 2.6259C9.93375 2.59688 9.95469 2.57225 9.98128 2.55507C10.0079 2.53789 10.0389 2.52893 10.0706 2.52931V2.52931Z" fill="white"/>
<path d="M10.3996 2.84436C10.3996 2.88805 10.4387 2.91105 10.4939 2.91105C10.5491 2.91105 10.5583 2.89725 10.5583 2.87196C10.5583 2.84666 10.5445 2.83976 10.5077 2.83286L10.441 2.82136C10.3398 2.80756 10.2846 2.77077 10.2846 2.68338C10.2846 2.59599 10.349 2.5293 10.4778 2.5293C10.6066 2.5293 10.6755 2.58449 10.6847 2.67878H10.5675C10.5675 2.63968 10.5307 2.61899 10.4755 2.61899C10.4203 2.61899 10.418 2.63278 10.418 2.65578C10.418 2.67878 10.4318 2.68568 10.4525 2.68798L10.5376 2.70408C10.6341 2.71787 10.6893 2.76157 10.6893 2.84436C10.6893 2.92715 10.6112 2.98924 10.4916 2.98924C10.372 2.98924 10.2823 2.94095 10.2754 2.83286L10.3996 2.84436Z" fill="white"/>
<path d="M10.917 2.74567V2.36621H11.0665V2.72267C11.0665 2.82386 11.101 2.87675 11.193 2.87675C11.2849 2.87675 11.3217 2.82386 11.3217 2.72497V2.36621H11.4712V2.74567C11.4649 2.81481 11.433 2.87909 11.3817 2.9259C11.3305 2.97271 11.2635 2.99866 11.1941 2.99866C11.1247 2.99866 11.0578 2.97271 11.0065 2.9259C10.9552 2.87909 10.9233 2.81481 10.917 2.74567V2.74567Z" fill="white"/>
<path d="M11.6964 3.15337H11.5538V2.55084H11.6964V2.63133C11.7083 2.60258 11.7289 2.57827 11.7553 2.56178C11.7817 2.54529 11.8125 2.53745 11.8436 2.53934C11.9747 2.53934 12.0414 2.64283 12.0414 2.76931C12.0414 2.8958 11.9747 2.99929 11.8436 2.99929C11.8128 3.00136 11.7821 2.99385 11.7558 2.97779C11.7294 2.96173 11.7087 2.93791 11.6964 2.9096V3.15337ZM11.6964 2.77621C11.6964 2.8475 11.7355 2.8935 11.7953 2.8935C11.8551 2.8935 11.8965 2.8452 11.8965 2.77161C11.8965 2.69802 11.8643 2.65203 11.7953 2.65203C11.7263 2.65203 11.6964 2.69572 11.6964 2.76701V2.77621Z" fill="white"/>
<path d="M12.0829 2.83789H12.237V2.98967C12.237 3.08166 12.1864 3.12766 12.0829 3.12996V3.05866C12.1266 3.05866 12.1519 3.04027 12.1519 2.99887H12.0829V2.83789Z" fill="white"/>
<path d="M12.844 2.9071C12.844 2.93009 12.8578 2.93929 12.8785 2.93929C12.8906 2.94222 12.9032 2.94222 12.9153 2.93929V2.98529C12.9067 2.99408 12.8963 3.00089 12.8847 3.00526C12.8732 3.00963 12.8609 3.01145 12.8486 3.01058C12.8268 3.00941 12.8064 2.99992 12.7914 2.98409C12.7764 2.96826 12.7681 2.94729 12.7681 2.92549C12.7526 2.95299 12.7297 2.97567 12.7022 2.99108C12.6746 3.00649 12.6433 3.01404 12.6117 3.01288C12.5266 3.01288 12.4738 2.96689 12.4738 2.8933C12.4738 2.81971 12.5427 2.77601 12.6485 2.75531L12.7658 2.73232V2.71622C12.7669 2.70327 12.7651 2.69025 12.7606 2.67806C12.7561 2.66587 12.749 2.6548 12.7398 2.64561C12.7307 2.63643 12.7196 2.62935 12.7074 2.62486C12.6952 2.62037 12.6822 2.61859 12.6692 2.61963C12.6436 2.61818 12.6183 2.62633 12.5983 2.64248C12.5784 2.65863 12.5651 2.68164 12.5611 2.70702L12.4876 2.69552C12.4959 2.65373 12.5191 2.61641 12.553 2.59058C12.5869 2.56475 12.629 2.55218 12.6715 2.55524C12.6943 2.55198 12.7176 2.55395 12.7395 2.56102C12.7615 2.56808 12.7815 2.58004 12.7981 2.596C12.8147 2.61196 12.8275 2.63149 12.8355 2.65312C12.8434 2.67474 12.8463 2.69789 12.844 2.72082V2.9071ZM12.7658 2.77831L12.6669 2.79901C12.5979 2.81281 12.5542 2.82661 12.5542 2.8795C12.5542 2.93239 12.5795 2.94389 12.6301 2.94389C12.6488 2.94394 12.6672 2.94015 12.6843 2.93276C12.7014 2.92537 12.7168 2.91455 12.7295 2.90096C12.7422 2.88737 12.752 2.8713 12.7583 2.85376C12.7645 2.83622 12.7671 2.81759 12.7658 2.79901V2.77831Z" fill="white"/>
<path d="M13.1085 2.61647V2.55668H13.1729V2.50608C13.1709 2.48624 13.1732 2.4662 13.1797 2.44733C13.1861 2.42847 13.1966 2.41123 13.2104 2.3968C13.2241 2.38237 13.2409 2.3711 13.2594 2.36377C13.278 2.35643 13.2979 2.3532 13.3178 2.3543C13.3487 2.35081 13.3798 2.35903 13.4049 2.37734C13.43 2.39565 13.4473 2.42272 13.4535 2.45319L13.3983 2.47159C13.3937 2.45499 13.3838 2.44035 13.3701 2.42996C13.3564 2.41956 13.3396 2.41399 13.3224 2.41409C13.2764 2.41409 13.2557 2.44629 13.2557 2.49688V2.55668H13.3776V2.61647H13.2557V2.98903H13.1729V2.61647H13.1085Z" fill="white"/>
<path d="M13.7363 2.55664H13.8168V2.98899H13.7363V2.9131C13.7235 2.93985 13.7032 2.96232 13.6779 2.97782C13.6526 2.99332 13.6234 3.00119 13.5938 3.00049C13.4811 3.00049 13.4374 2.9269 13.4374 2.82571V2.55664H13.5202V2.81881C13.5202 2.8924 13.5524 2.9384 13.6214 2.9384C13.6377 2.93784 13.6537 2.93395 13.6685 2.92696C13.6833 2.91997 13.6964 2.91002 13.7072 2.89774C13.718 2.88545 13.7261 2.87109 13.7311 2.85554C13.7362 2.83999 13.7379 2.82357 13.7363 2.80731V2.55664Z" fill="white"/>
<path d="M14.0147 2.98882H13.9319V2.55647H14.0147V2.63467C14.0269 2.60731 14.047 2.58419 14.0724 2.56823C14.0978 2.55226 14.1273 2.54417 14.1573 2.54498C14.2699 2.54498 14.3159 2.62087 14.3159 2.72206V2.98882H14.2331V2.72895C14.2331 2.65536 14.1987 2.60937 14.132 2.60937C14.1154 2.60961 14.0991 2.61327 14.0841 2.62013C14.0691 2.62699 14.0556 2.63689 14.0446 2.6492C14.0336 2.66152 14.0252 2.67599 14.0201 2.69169C14.0149 2.7074 14.0131 2.724 14.0147 2.74045V2.98882Z" fill="white"/>
<path d="M14.9299 2.90205C14.9175 2.93304 14.8959 2.95943 14.8678 2.97756C14.8398 2.99568 14.8069 3.00466 14.7735 3.00324C14.7448 3.00285 14.7166 2.99638 14.6906 2.98424C14.6646 2.9721 14.6415 2.95458 14.6228 2.93284C14.6041 2.91109 14.5902 2.88562 14.5821 2.85811C14.574 2.8306 14.5718 2.80168 14.5757 2.77326C14.5718 2.74485 14.574 2.71593 14.5821 2.68842C14.5902 2.66091 14.6041 2.63544 14.6228 2.61369C14.6415 2.59195 14.6646 2.57442 14.6906 2.56229C14.7166 2.55015 14.7448 2.54367 14.7735 2.54329C14.8071 2.54238 14.8401 2.55183 14.8681 2.57035C14.896 2.58886 14.9176 2.61555 14.9299 2.64678V2.36621H15.0127V2.98944H14.9299V2.90205ZM14.9299 2.76176C14.9319 2.74263 14.9297 2.72329 14.9237 2.70504C14.9176 2.68679 14.9077 2.67004 14.8946 2.6559C14.8816 2.64176 14.8657 2.63057 14.848 2.62304C14.8303 2.61552 14.8112 2.61186 14.7919 2.61228C14.7068 2.61228 14.6585 2.67667 14.6585 2.77556C14.6585 2.87445 14.7068 2.93884 14.7919 2.93884C14.8113 2.93894 14.8304 2.93497 14.8481 2.92719C14.8658 2.91941 14.8817 2.90799 14.8947 2.89368C14.9077 2.87937 14.9176 2.86248 14.9236 2.84411C14.9297 2.82574 14.9318 2.80631 14.9299 2.78706V2.76176Z" fill="white"/>
<path d="M15.3829 2.63938C15.3632 2.62641 15.3399 2.61997 15.3162 2.62098C15.2542 2.62098 15.2059 2.67847 15.2059 2.76127V2.99124H15.1254V2.55659H15.2059V2.64628C15.2135 2.61859 15.2295 2.59396 15.2518 2.57582C15.274 2.55768 15.3014 2.54694 15.33 2.54509C15.3526 2.54369 15.3749 2.55111 15.3921 2.56579L15.3829 2.63938Z" fill="white"/>
<path d="M15.452 2.36621H15.5371V2.4582H15.452V2.36621ZM15.5348 2.55709V2.98944H15.4543V2.55709H15.5348Z" fill="white"/>
<path d="M15.7302 2.98885H15.6382V2.5565H15.721V2.63469C15.7336 2.60715 15.7541 2.58395 15.7799 2.56799C15.8057 2.55204 15.8356 2.54404 15.8659 2.545C15.9785 2.545 16.0245 2.62089 16.0245 2.72208V2.98885H15.9417V2.72898C15.9417 2.65539 15.9073 2.60939 15.8383 2.60939C15.8218 2.60996 15.8057 2.61385 15.7908 2.62082C15.7759 2.62778 15.7626 2.63769 15.7517 2.64993C15.7407 2.66217 15.7324 2.67651 15.7271 2.69207C15.7218 2.70763 15.7197 2.72409 15.721 2.74048L15.7302 2.98885Z" fill="white"/>
<path d="M16.2223 2.98944H16.1418V2.36621H16.2223V2.75947L16.4408 2.56169H16.5443L16.3465 2.73877L16.5581 2.98944H16.4615L16.289 2.77786L16.2269 2.83306L16.2223 2.98944Z" fill="white"/>
<path d="M16.6156 2.36621H16.7007V2.4582H16.6156V2.36621ZM16.6984 2.55709V2.98944H16.6156V2.55709H16.6984Z" fill="white"/>
<path d="M16.8939 2.98885H16.8112V2.5565H16.8939V2.63469C16.9066 2.60715 16.9271 2.58395 16.9529 2.56799C16.9786 2.55204 17.0085 2.54404 17.0388 2.545C17.1515 2.545 17.1975 2.62089 17.1975 2.72208V2.98885H17.1147V2.72898C17.1147 2.65539 17.0802 2.60939 17.0112 2.60939C16.9947 2.60963 16.9784 2.6133 16.9634 2.62015C16.9483 2.62701 16.9349 2.63691 16.9239 2.64923C16.9128 2.66154 16.9045 2.67601 16.8993 2.69172C16.8942 2.70742 16.8924 2.72402 16.8939 2.74048V2.98885Z" fill="white"/>
<path d="M17.478 2.84039C17.4455 2.8421 17.4131 2.83578 17.3837 2.82199C17.3751 2.82581 17.3678 2.83191 17.3625 2.83962C17.3573 2.84733 17.3542 2.85636 17.3538 2.86569C17.3538 2.88869 17.3699 2.90249 17.4067 2.90249H17.5768C17.6711 2.90249 17.7194 2.95308 17.7194 3.01977C17.7194 3.12786 17.5998 3.17155 17.4711 3.17155C17.3423 3.17155 17.2549 3.13476 17.2549 3.05427C17.2554 3.03044 17.265 3.0077 17.2816 2.99063C17.2983 2.97357 17.3208 2.96343 17.3446 2.96228C17.3282 2.95818 17.3136 2.94871 17.3032 2.93537C17.2927 2.92204 17.2871 2.90561 17.2871 2.88869C17.2883 2.86968 17.2953 2.85151 17.3073 2.83668C17.3192 2.82185 17.3355 2.8111 17.3538 2.8059C17.3355 2.79349 17.3206 2.77665 17.3105 2.75695C17.3005 2.73724 17.2956 2.71532 17.2963 2.69321C17.2963 2.60352 17.3722 2.54603 17.478 2.54603C17.5269 2.54426 17.5749 2.55973 17.6136 2.58972C17.626 2.57189 17.6425 2.55733 17.6617 2.54731C17.681 2.53729 17.7023 2.53212 17.724 2.53223V2.60352C17.6957 2.60374 17.6676 2.60919 17.6412 2.61962C17.6543 2.64198 17.6614 2.66731 17.6619 2.69321C17.6619 2.7852 17.586 2.84039 17.478 2.84039ZM17.478 3.11636C17.5768 3.11636 17.6481 3.09106 17.6481 3.02897C17.6481 2.96688 17.6159 2.97608 17.5653 2.97608H17.4251C17.3791 2.97608 17.34 2.98987 17.34 3.03817C17.34 3.08646 17.3906 3.11636 17.478 3.11636V3.11636ZM17.478 2.59892C17.4649 2.59746 17.4517 2.59895 17.4393 2.60329C17.4269 2.60762 17.4157 2.61469 17.4064 2.62397C17.3971 2.63325 17.3901 2.6445 17.3857 2.65688C17.3814 2.66927 17.3799 2.68247 17.3814 2.69551C17.3802 2.70828 17.3819 2.72116 17.3865 2.73317C17.391 2.74517 17.3981 2.75601 17.4074 2.76485C17.4167 2.7737 17.4279 2.78033 17.4401 2.78425C17.4523 2.78818 17.4653 2.78929 17.478 2.7875C17.4909 2.78917 17.504 2.78802 17.5164 2.78412C17.5288 2.78023 17.5402 2.77367 17.5498 2.76492C17.5595 2.75617 17.5671 2.74543 17.5721 2.73344C17.5772 2.72146 17.5796 2.70851 17.5791 2.69551C17.5803 2.68213 17.5784 2.66867 17.5737 2.65611C17.5689 2.64355 17.5614 2.63222 17.5517 2.62295C17.542 2.61368 17.5303 2.60671 17.5176 2.60255C17.5048 2.59839 17.4913 2.59715 17.478 2.59892V2.59892Z" fill="white"/>
<path d="M18.1334 2.84039C18.1009 2.84192 18.0686 2.83561 18.0391 2.82199C18.0305 2.82581 18.0232 2.83191 18.0179 2.83962C18.0127 2.84733 18.0096 2.85636 18.0092 2.86569C18.0092 2.88869 18.0253 2.90249 18.0621 2.90249H18.2322C18.3265 2.90249 18.3771 2.95308 18.3771 3.01977C18.3771 3.12786 18.2552 3.17155 18.1265 3.17155C17.9977 3.17155 17.9103 3.13476 17.9103 3.05427C17.9108 3.03044 17.9204 3.0077 17.937 2.99063C17.9537 2.97357 17.9762 2.96343 18 2.96228C17.9836 2.95818 17.969 2.94871 17.9586 2.93537C17.9481 2.92204 17.9425 2.90561 17.9425 2.88869C17.9437 2.86968 17.9507 2.85151 17.9627 2.83668C17.9746 2.82185 17.9908 2.8111 18.0092 2.8059C17.9909 2.79349 17.976 2.77665 17.9659 2.75695C17.9559 2.73724 17.951 2.71532 17.9517 2.69321C17.9517 2.60352 18.0276 2.54603 18.1334 2.54603C18.1823 2.54426 18.2303 2.55973 18.269 2.58972C18.2814 2.57189 18.2979 2.55733 18.3171 2.54731C18.3363 2.53729 18.3577 2.53212 18.3794 2.53223V2.60352C18.3511 2.60374 18.323 2.60919 18.2966 2.61962C18.3107 2.64155 18.3179 2.66717 18.3173 2.69321C18.3173 2.7852 18.2414 2.84039 18.1334 2.84039ZM18.1334 3.11636C18.2322 3.11636 18.3035 3.09106 18.3035 3.02897C18.3035 2.96688 18.2713 2.97608 18.2207 2.97608H18.0805C18.0345 2.97608 17.9977 2.98987 17.9977 3.03817C17.9977 3.08646 18.046 3.11636 18.1265 3.11636H18.1334ZM18.1334 2.59892C18.1202 2.59752 18.1069 2.59904 18.0945 2.60336C18.082 2.60769 18.0706 2.61472 18.0612 2.62394C18.0517 2.63317 18.0444 2.64437 18.0398 2.65674C18.0352 2.66911 18.0334 2.68235 18.0345 2.69551C18.0337 2.7084 18.0357 2.72131 18.0405 2.7333C18.0453 2.7453 18.0527 2.75608 18.0622 2.76488C18.0716 2.77367 18.0829 2.78026 18.0952 2.78418C18.1075 2.78809 18.1206 2.78922 18.1334 2.7875C18.1462 2.78922 18.1592 2.78809 18.1715 2.78418C18.1838 2.78026 18.1951 2.77367 18.2045 2.76488C18.214 2.75608 18.2214 2.7453 18.2262 2.7333C18.231 2.72131 18.233 2.7084 18.2322 2.69551C18.2333 2.68256 18.2315 2.66954 18.227 2.65735C18.2225 2.64516 18.2154 2.63409 18.2063 2.6249C18.1971 2.61572 18.186 2.60864 18.1738 2.60415C18.1616 2.59966 18.1486 2.59788 18.1357 2.59892H18.1334Z" fill="white"/>
<path d="M18.782 2.9071C18.782 2.93009 18.7958 2.93929 18.8165 2.93929C18.8286 2.94222 18.8412 2.94222 18.8533 2.93929V2.98529C18.8447 2.99408 18.8342 3.00089 18.8227 3.00526C18.8112 3.00963 18.7989 3.01145 18.7866 3.01058C18.7648 3.00941 18.7444 2.99992 18.7294 2.98409C18.7144 2.96826 18.7061 2.94729 18.7061 2.92549C18.6907 2.95316 18.668 2.97599 18.6403 2.99143C18.6127 3.00687 18.5813 3.0143 18.5497 3.01288C18.4646 3.01288 18.4117 2.96689 18.4117 2.8933C18.4117 2.81971 18.4807 2.77601 18.5865 2.75531L18.7038 2.73232V2.71622C18.7053 2.70318 18.7038 2.68998 18.6994 2.67759C18.6951 2.66521 18.688 2.65396 18.6788 2.64468C18.6695 2.6354 18.6582 2.62833 18.6458 2.624C18.6335 2.61966 18.6203 2.61817 18.6072 2.61963C18.5816 2.61818 18.5563 2.62633 18.5363 2.64248C18.5163 2.65863 18.5031 2.68164 18.4991 2.70702L18.4255 2.69552C18.4338 2.65373 18.4571 2.61641 18.491 2.59058C18.5249 2.56475 18.567 2.55218 18.6095 2.55524C18.6323 2.55198 18.6556 2.55395 18.6775 2.56102C18.6994 2.56808 18.7195 2.58004 18.7361 2.596C18.7527 2.61196 18.7655 2.63149 18.7735 2.65312C18.7814 2.67474 18.7843 2.69789 18.782 2.72082V2.9071ZM18.7038 2.77831L18.6049 2.79901C18.5382 2.81281 18.4945 2.82661 18.4945 2.8795C18.4945 2.93239 18.5175 2.94389 18.5681 2.94389C18.5867 2.94394 18.6052 2.94015 18.6223 2.93276C18.6394 2.92537 18.6547 2.91455 18.6675 2.90096C18.6802 2.88737 18.69 2.8713 18.6962 2.85376C18.7025 2.83622 18.7051 2.81759 18.7038 2.79901V2.77831Z" fill="white"/>
<path d="M19.4281 2.54556C19.5408 2.54556 19.5799 2.62375 19.5799 2.72264V2.98941H19.4971V2.72954C19.4971 2.65595 19.4672 2.60995 19.4005 2.60995C19.3846 2.61111 19.3691 2.61544 19.3548 2.62269C19.3406 2.62995 19.328 2.63998 19.3177 2.6522C19.3074 2.66442 19.2997 2.67858 19.2949 2.69383C19.2902 2.70909 19.2886 2.72514 19.2902 2.74104V2.98941H19.2074V2.72954C19.2074 2.65595 19.1775 2.60995 19.1108 2.60995C19.0947 2.61079 19.079 2.61491 19.0646 2.62206C19.0502 2.62921 19.0375 2.63924 19.0271 2.65154C19.0168 2.66383 19.0091 2.67811 19.0045 2.69351C18.9999 2.70891 18.9985 2.72508 19.0004 2.74104V2.98941H18.9176V2.55706H19.0004V2.63525C19.0113 2.60787 19.0304 2.58455 19.0551 2.56849C19.0798 2.55243 19.1089 2.54442 19.1384 2.54556C19.1694 2.54254 19.2004 2.55026 19.2264 2.56743C19.2523 2.5846 19.2716 2.61017 19.281 2.63985C19.2933 2.61127 19.3139 2.58702 19.3401 2.57022C19.3664 2.55342 19.397 2.54484 19.4281 2.54556Z" fill="white"/>
<path d="M20.0858 2.84438C20.0779 2.89129 20.0528 2.93356 20.0154 2.96291C19.9779 2.99227 19.9309 3.00658 19.8834 3.00306C19.8525 3.00589 19.8214 3.00188 19.7922 2.99132C19.763 2.98076 19.7365 2.96392 19.7146 2.94197C19.6926 2.92002 19.6758 2.89352 19.6652 2.86433C19.6546 2.83514 19.6506 2.80399 19.6535 2.77308C19.6535 2.71209 19.6777 2.6536 19.7208 2.61047C19.764 2.56734 19.8224 2.54311 19.8834 2.54311C19.9117 2.54204 19.9399 2.54698 19.9661 2.55759C19.9923 2.5682 20.016 2.58425 20.0355 2.60468C20.0551 2.62511 20.0701 2.64945 20.0795 2.6761C20.089 2.70275 20.0927 2.7311 20.0904 2.75929V2.79148H19.7455C19.7455 2.82951 19.7604 2.86602 19.7871 2.89313C19.8138 2.92023 19.85 2.93576 19.888 2.93637C19.9188 2.93865 19.9493 2.92963 19.9739 2.911C19.9984 2.89237 20.0153 2.8654 20.0214 2.83518L20.0858 2.84438ZM20.0076 2.74089C20.0086 2.7239 20.0061 2.7069 20.0003 2.6909C19.9945 2.6749 19.9855 2.66024 19.9739 2.64778C19.9623 2.63533 19.9483 2.62534 19.9328 2.61842C19.9172 2.6115 19.9005 2.60779 19.8834 2.6075C19.8482 2.60862 19.8147 2.62296 19.7895 2.64768C19.7644 2.67239 19.7495 2.70567 19.7478 2.74089H20.0076Z" fill="white"/>
<path d="M20.3687 2.61716H20.302V2.57347H20.3296C20.371 2.57347 20.3802 2.54357 20.3894 2.50218L20.4032 2.44238H20.4492V2.56197H20.5711V2.62176H20.4492V2.88623C20.4492 2.92303 20.4653 2.94142 20.5044 2.94142C20.5329 2.93969 20.5605 2.93101 20.5849 2.91613V2.97132C20.5533 2.99567 20.5144 3.00864 20.4745 3.00812C20.4124 3.00812 20.3687 2.98052 20.3687 2.89543V2.61716Z" fill="white"/>
<path d="M20.8472 3.00389C20.8017 3.00389 20.7572 2.9904 20.7194 2.96513C20.6816 2.93986 20.6521 2.90395 20.6347 2.86193C20.6173 2.8199 20.6127 2.77366 20.6216 2.72905C20.6305 2.68444 20.6524 2.64347 20.6845 2.6113C20.7167 2.57914 20.7577 2.55724 20.8023 2.54836C20.8469 2.53949 20.8931 2.54404 20.9352 2.56145C20.9772 2.57886 21.0131 2.60833 21.0384 2.64615C21.0636 2.68397 21.0771 2.72843 21.0771 2.77392C21.0792 2.80465 21.0746 2.83545 21.0638 2.86427C21.0529 2.8931 21.0361 2.91927 21.0143 2.94105C20.9925 2.96282 20.9663 2.97969 20.9375 2.99053C20.9087 3.00137 20.8779 3.00592 20.8472 3.00389V3.00389ZM20.8472 2.9395C20.9346 2.9395 20.9851 2.87281 20.9851 2.77622C20.9851 2.67963 20.9346 2.61064 20.8472 2.61064C20.7598 2.61064 20.7092 2.67733 20.7092 2.77622C20.7092 2.87511 20.7598 2.9395 20.8472 2.9395V2.9395Z" fill="white"/>
<path d="M21.4151 2.36621V2.98944H21.3323V2.36621H21.4151Z" fill="white"/>
<path d="M21.9257 2.84448C21.9178 2.89139 21.8926 2.93366 21.8552 2.96301C21.8178 2.99237 21.7707 3.00668 21.7233 3.00316C21.6924 3.00599 21.6612 3.00198 21.632 2.99142C21.6029 2.98087 21.5763 2.96402 21.5544 2.94207C21.5325 2.92012 21.5156 2.89362 21.505 2.86443C21.4945 2.83524 21.4905 2.80409 21.4933 2.77319C21.4933 2.71219 21.5175 2.6537 21.5607 2.61057C21.6038 2.56744 21.6623 2.54321 21.7233 2.54321C21.7517 2.54181 21.7802 2.54649 21.8066 2.55696C21.8331 2.56742 21.8571 2.58342 21.8769 2.60388C21.8967 2.62435 21.9119 2.64881 21.9215 2.67562C21.9311 2.70244 21.9349 2.731 21.9326 2.75939V2.79158H21.5876C21.5873 2.81031 21.5907 2.82891 21.5976 2.84633C21.6045 2.86374 21.6147 2.87963 21.6277 2.89308C21.6408 2.90654 21.6563 2.91729 21.6735 2.92474C21.6907 2.93218 21.7092 2.93617 21.7279 2.93647C21.7588 2.93982 21.7899 2.93121 21.8147 2.9124C21.8395 2.89358 21.8562 2.86599 21.8613 2.83528L21.9257 2.84448ZM21.8475 2.74099C21.8487 2.72392 21.8465 2.70678 21.8408 2.69064C21.8351 2.67449 21.8262 2.65969 21.8145 2.64717C21.8029 2.63464 21.7887 2.62466 21.773 2.61786C21.7573 2.61105 21.7404 2.60756 21.7233 2.6076C21.6883 2.60875 21.655 2.62318 21.6302 2.64794C21.6055 2.67271 21.591 2.70598 21.5899 2.74099H21.8475Z" fill="white"/>
<path d="M22.0292 2.61716H21.9625V2.57347H21.9901C22.0315 2.57347 22.0407 2.54357 22.0499 2.50218L22.0637 2.44238H22.1097V2.56197H22.2316V2.62176H22.1097V2.88623C22.1097 2.92303 22.1258 2.94142 22.1626 2.94142C22.1919 2.94007 22.2204 2.93137 22.2454 2.91613V2.97132C22.2131 2.996 22.1734 3.00898 22.1327 3.00812C22.0729 3.00812 22.0292 2.98052 22.0292 2.89543V2.61716Z" fill="white"/>
<path d="M22.6708 2.84039C22.6376 2.84184 22.6046 2.83555 22.5742 2.82199C22.5663 2.82631 22.5596 2.83259 22.5547 2.84024C22.5499 2.84789 22.5471 2.85665 22.5466 2.86569C22.5466 2.88869 22.5604 2.90249 22.5995 2.90249H22.7674C22.8617 2.90249 22.91 2.95308 22.91 3.01977C22.91 3.12786 22.7881 3.17155 22.6593 3.17155C22.5305 3.17155 22.4454 3.13476 22.4454 3.05427C22.446 3.03044 22.4555 3.0077 22.4722 2.99063C22.4888 2.97357 22.5113 2.96343 22.5351 2.96228C22.5187 2.95818 22.5041 2.94871 22.4937 2.93537C22.4833 2.92204 22.4776 2.90561 22.4776 2.88869C22.4783 2.87052 22.4843 2.85297 22.495 2.83823C22.5056 2.8235 22.5204 2.81225 22.5374 2.8059C22.5198 2.79294 22.5056 2.77594 22.496 2.75632C22.4864 2.7367 22.4817 2.71505 22.4822 2.69321C22.4822 2.60352 22.5581 2.54603 22.6639 2.54603C22.7129 2.54426 22.7609 2.55973 22.7996 2.58972C22.8119 2.57189 22.8284 2.55733 22.8477 2.54731C22.8669 2.53729 22.8883 2.53212 22.91 2.53223V2.60352C22.8816 2.60374 22.8536 2.60919 22.8272 2.61962C22.8403 2.64198 22.8474 2.66731 22.8479 2.69321C22.8548 2.7852 22.7674 2.84039 22.6708 2.84039ZM22.6708 3.11636C22.7697 3.11636 22.8433 3.09106 22.8433 3.02897C22.8433 2.96688 22.8088 2.97608 22.7582 2.97608H22.6179C22.5742 2.97608 22.5351 2.98987 22.5351 3.03817C22.5351 3.08646 22.5811 3.11636 22.6616 3.11636H22.6708ZM22.6708 2.59892C22.6577 2.59752 22.6444 2.59904 22.6319 2.60336C22.6194 2.60769 22.6081 2.61472 22.5986 2.62394C22.5892 2.63317 22.5819 2.64437 22.5773 2.65674C22.5727 2.66911 22.5708 2.68235 22.5719 2.69551C22.5711 2.7084 22.5732 2.72131 22.578 2.7333C22.5828 2.7453 22.5902 2.75608 22.5996 2.76488C22.6091 2.77367 22.6204 2.78026 22.6327 2.78418C22.645 2.78809 22.658 2.78922 22.6708 2.7875C22.6836 2.78922 22.6966 2.78809 22.7089 2.78418C22.7212 2.78026 22.7325 2.77367 22.742 2.76488C22.7515 2.75608 22.7588 2.7453 22.7636 2.7333C22.7684 2.72131 22.7705 2.7084 22.7697 2.69551C22.7708 2.68235 22.769 2.66911 22.7643 2.65674C22.7597 2.64437 22.7524 2.63317 22.743 2.62394C22.7335 2.61472 22.7222 2.60769 22.7097 2.60336C22.6972 2.59904 22.6839 2.59752 22.6708 2.59892V2.59892Z" fill="white"/>
<path d="M23.1606 3.00389C23.1152 3.00389 23.0707 2.9904 23.0329 2.96513C22.9951 2.93986 22.9656 2.90395 22.9482 2.86193C22.9308 2.8199 22.9262 2.77366 22.9351 2.72905C22.944 2.68444 22.9659 2.64347 22.998 2.6113C23.0302 2.57914 23.0712 2.55724 23.1158 2.54836C23.1604 2.53949 23.2066 2.54404 23.2486 2.56145C23.2907 2.57886 23.3266 2.60833 23.3519 2.64615C23.3771 2.68397 23.3906 2.72843 23.3906 2.77392C23.3926 2.80465 23.3881 2.83545 23.3772 2.86427C23.3664 2.8931 23.3495 2.91927 23.3278 2.94105C23.306 2.96282 23.2798 2.97969 23.251 2.99053C23.2222 3.00137 23.1914 3.00592 23.1606 3.00389V3.00389ZM23.1606 2.9395C23.248 2.9395 23.2986 2.87281 23.2986 2.77622C23.2986 2.67963 23.248 2.61064 23.1606 2.61064C23.0732 2.61064 23.025 2.67733 23.025 2.77622C23.025 2.87511 23.0732 2.9395 23.1606 2.9395V2.9395Z" fill="white"/>
<path d="M23.9955 2.9071C23.9955 2.93009 24.0093 2.93929 24.03 2.93929C24.0429 2.94202 24.0562 2.94202 24.0691 2.93929V2.98529C24.051 3.00213 24.0271 3.01121 24.0024 3.01058C23.9802 3.00999 23.9592 3.00076 23.9437 2.98486C23.9283 2.96897 23.9196 2.94767 23.9196 2.92549C23.9042 2.95316 23.8815 2.97599 23.8538 2.99143C23.8262 3.00687 23.7948 3.0143 23.7632 3.01288C23.7461 3.01517 23.7287 3.01379 23.7122 3.00884C23.6956 3.00389 23.6803 2.99548 23.6673 2.98417C23.6543 2.97287 23.6438 2.95892 23.6365 2.94325C23.6293 2.92759 23.6254 2.91056 23.6252 2.8933C23.6252 2.81051 23.6965 2.77601 23.8 2.75531L23.9173 2.73232V2.71622C23.9188 2.70318 23.9173 2.68998 23.9129 2.67759C23.9086 2.66521 23.9015 2.65396 23.8923 2.64468C23.883 2.6354 23.8717 2.62833 23.8593 2.624C23.847 2.61966 23.8338 2.61817 23.8207 2.61963C23.7952 2.61869 23.7702 2.62702 23.7503 2.64308C23.7304 2.65915 23.7171 2.68186 23.7126 2.70702L23.639 2.69552C23.6473 2.65373 23.6706 2.61641 23.7045 2.59058C23.7384 2.56475 23.7805 2.55218 23.823 2.55524C23.8458 2.55198 23.8691 2.55395 23.891 2.56102C23.9129 2.56808 23.933 2.58004 23.9496 2.596C23.9662 2.61196 23.979 2.63149 23.987 2.65312C23.9949 2.67474 23.9978 2.69789 23.9955 2.72082V2.9071ZM23.9173 2.77831L23.8207 2.79901C23.7517 2.81281 23.708 2.82661 23.708 2.8795C23.708 2.93239 23.7333 2.94389 23.7816 2.94389C23.8002 2.94394 23.8187 2.94015 23.8358 2.93276C23.8529 2.92537 23.8682 2.91455 23.881 2.90096C23.8937 2.88737 23.9035 2.8713 23.9097 2.85376C23.916 2.83622 23.9186 2.81759 23.9173 2.79901V2.77831Z" fill="white"/>
<path d="M24.2162 2.98882H24.1334V2.55647H24.2162V2.63467C24.2285 2.60731 24.2485 2.58419 24.2739 2.56823C24.2993 2.55226 24.3288 2.54417 24.3588 2.54498C24.4715 2.54498 24.5175 2.62087 24.5175 2.72206V2.98882H24.4347V2.72895C24.4347 2.65536 24.4002 2.60937 24.3335 2.60937C24.317 2.60961 24.3007 2.61327 24.2856 2.62013C24.2706 2.62699 24.2571 2.63689 24.2461 2.6492C24.2351 2.66152 24.2268 2.67599 24.2216 2.69169C24.2165 2.7074 24.2146 2.724 24.2162 2.74045V2.98882Z" fill="white"/>
<path d="M24.9521 2.90205C24.9398 2.93304 24.9181 2.95943 24.8901 2.97756C24.862 2.99568 24.8291 3.00466 24.7957 3.00324C24.7671 3.00285 24.7388 2.99638 24.7128 2.98424C24.6868 2.9721 24.6637 2.95458 24.645 2.93284C24.6263 2.91109 24.6124 2.88562 24.6043 2.85811C24.5962 2.8306 24.594 2.80168 24.598 2.77326C24.594 2.74485 24.5962 2.71593 24.6043 2.68842C24.6124 2.66091 24.6263 2.63544 24.645 2.61369C24.6637 2.59195 24.6868 2.57442 24.7128 2.56229C24.7388 2.55015 24.7671 2.54367 24.7957 2.54329C24.8293 2.54238 24.8623 2.55183 24.8903 2.57035C24.9182 2.58886 24.9398 2.61555 24.9521 2.64678V2.36621H25.0349V2.98944H24.9521V2.90205ZM24.9521 2.76176C24.9541 2.74263 24.952 2.72329 24.9459 2.70504C24.9398 2.68679 24.9299 2.67004 24.9168 2.6559C24.9038 2.64176 24.8879 2.63057 24.8702 2.62304C24.8525 2.61552 24.8334 2.61186 24.8141 2.61228C24.729 2.61228 24.6831 2.67667 24.6831 2.77556C24.6831 2.87445 24.729 2.93884 24.8141 2.93884C24.8335 2.93894 24.8526 2.93497 24.8703 2.92719C24.888 2.91941 24.9039 2.90799 24.9169 2.89368C24.9299 2.87937 24.9398 2.86248 24.9459 2.84411C24.9519 2.82574 24.9541 2.80631 24.9521 2.78706V2.76176Z" fill="white"/>
<path d="M7.29007 3.47949V4.10502H7.20728V3.47949H7.29007Z" fill="white"/>
<path d="M7.80068 3.95776C7.79231 4.00444 7.76706 4.04641 7.72974 4.07567C7.69242 4.10493 7.64564 4.11944 7.59831 4.11644C7.56749 4.11886 7.53651 4.11457 7.50751 4.10387C7.47851 4.09317 7.45218 4.07631 7.43032 4.05445C7.40846 4.0326 7.3916 4.00626 7.3809 3.97726C7.3702 3.94826 7.36591 3.91728 7.36833 3.88647C7.36833 3.82547 7.39256 3.76698 7.43569 3.72385C7.47882 3.68072 7.53731 3.65649 7.59831 3.65649C7.62676 3.65509 7.65518 3.65977 7.68167 3.67024C7.70816 3.6807 7.73211 3.6967 7.75192 3.71716C7.77174 3.73763 7.78695 3.76209 7.79655 3.7889C7.80615 3.81572 7.80991 3.84428 7.80758 3.87267V3.90946H7.45572C7.45572 3.94749 7.47067 3.984 7.49734 4.01111C7.52402 4.03821 7.56028 4.05374 7.59831 4.05435C7.62915 4.05715 7.65994 4.04833 7.68461 4.02961C7.70929 4.01089 7.72608 3.98362 7.73169 3.95316L7.80068 3.95776ZM7.71789 3.85427C7.71916 3.83721 7.71689 3.82006 7.71122 3.80392C7.70555 3.78777 7.6966 3.77297 7.68494 3.76045C7.67328 3.74792 7.65915 3.73795 7.64346 3.73114C7.62776 3.72433 7.61082 3.72084 7.59371 3.72089C7.55847 3.722 7.52494 3.73634 7.4998 3.76106C7.47465 3.78578 7.45974 3.81905 7.45802 3.85427H7.71789Z" fill="white"/>
<path d="M7.90192 3.73016H7.83752V3.67957H7.86512C7.90652 3.67957 7.91341 3.65197 7.92491 3.61057V3.55078H7.97321V3.67957H8.09509V3.73936H7.97321V4.00153C7.97321 4.04062 7.98931 4.05902 8.0261 4.05902C8.05467 4.05768 8.0824 4.04897 8.10659 4.03373V4.08892C8.07536 4.11395 8.03621 4.127 7.99621 4.12571C7.93411 4.12571 7.89042 4.09582 7.89042 4.01303L7.90192 3.73016Z" fill="white"/>
<path d="M8.45388 3.47949V4.10502H8.37109V3.47949H8.45388Z" fill="white"/>
<path d="M8.75744 4.1162C8.71195 4.1162 8.66749 4.10271 8.62967 4.07744C8.59185 4.05217 8.56238 4.01625 8.54497 3.97423C8.52757 3.93221 8.52301 3.88597 8.53188 3.84136C8.54076 3.79675 8.56266 3.75577 8.59482 3.72361C8.62699 3.69145 8.66796 3.66954 8.71257 3.66067C8.75718 3.6518 8.80342 3.65635 8.84545 3.67376C8.88747 3.69116 8.92338 3.72064 8.94865 3.75846C8.97392 3.79628 8.98741 3.84074 8.98741 3.88622C8.98945 3.91695 8.98489 3.94776 8.97405 3.97658C8.96321 4.0054 8.94634 4.03158 8.92457 4.05335C8.90279 4.07513 8.87662 4.092 8.84779 4.10284C8.81897 4.11367 8.78817 4.11823 8.75744 4.1162V4.1162ZM8.75744 4.0518C8.84713 4.0518 8.89542 3.98281 8.89542 3.88852C8.89542 3.79423 8.84713 3.72294 8.75744 3.72294C8.66775 3.72294 8.62176 3.78963 8.62176 3.88852C8.62176 3.98741 8.67005 4.0518 8.75744 4.0518V4.0518Z" fill="white"/>
<path d="M9.26098 4.1162C9.21549 4.1162 9.17103 4.10271 9.13321 4.07744C9.09539 4.05217 9.06592 4.01625 9.04851 3.97423C9.03111 3.93221 9.02655 3.88597 9.03542 3.84136C9.0443 3.79675 9.0662 3.75577 9.09836 3.72361C9.13053 3.69145 9.1715 3.66954 9.21611 3.66067C9.26072 3.6518 9.30696 3.65635 9.34899 3.67376C9.39101 3.69116 9.42693 3.72064 9.4522 3.75846C9.47747 3.79628 9.49095 3.84074 9.49095 3.88622C9.49299 3.91695 9.48843 3.94776 9.47759 3.97658C9.46675 4.0054 9.44988 4.03158 9.42811 4.05335C9.40633 4.07513 9.38016 4.092 9.35134 4.10284C9.32251 4.11367 9.29171 4.11823 9.26098 4.1162V4.1162ZM9.26098 4.0518C9.35067 4.0518 9.39896 3.98281 9.39896 3.88852C9.39896 3.79423 9.35067 3.72294 9.26098 3.72294C9.17129 3.72294 9.1253 3.78963 9.1253 3.88852C9.1253 3.98741 9.17359 4.0518 9.26098 4.0518V4.0518Z" fill="white"/>
<path d="M9.6083 3.95326C9.61001 3.96871 9.61477 3.98366 9.6223 3.99725C9.62984 4.01084 9.64 4.02279 9.6522 4.03242C9.66439 4.04205 9.67838 4.04916 9.69335 4.05333C9.70832 4.05751 9.72396 4.05867 9.73938 4.05675C9.79688 4.05675 9.83827 4.03605 9.83827 3.99006C9.83827 3.94406 9.81067 3.93716 9.75548 3.92567L9.68189 3.90957C9.6014 3.89577 9.55311 3.86127 9.55311 3.78768C9.55311 3.71409 9.6198 3.6543 9.71869 3.6543C9.81757 3.6543 9.90266 3.70719 9.90956 3.80838H9.84287C9.84177 3.79351 9.83761 3.77903 9.83065 3.76584C9.82369 3.75266 9.81407 3.74106 9.80241 3.73177C9.79074 3.72249 9.77728 3.71571 9.76288 3.71188C9.74847 3.70804 9.73342 3.70723 9.71869 3.70949C9.66579 3.70949 9.629 3.73479 9.629 3.77388C9.629 3.81298 9.65199 3.82678 9.69569 3.83598L9.77618 3.84747C9.86357 3.86357 9.91646 3.89577 9.91646 3.97396C9.91646 4.05215 9.84057 4.10734 9.73938 4.10734C9.71575 4.11055 9.69172 4.10895 9.66872 4.10263C9.64572 4.09632 9.62424 4.08543 9.60555 4.07061C9.58687 4.05579 9.57137 4.03735 9.55998 4.0164C9.5486 3.99544 9.54157 3.9724 9.53931 3.94866L9.6083 3.95326Z" fill="white"/>
<path d="M10.4017 3.95776C10.3938 4.00467 10.3687 4.04694 10.3313 4.0763C10.2938 4.10565 10.2468 4.11996 10.1994 4.11644C10.1685 4.11927 10.1373 4.11526 10.1081 4.1047C10.0789 4.09415 10.0524 4.0773 10.0305 4.05535C10.0085 4.0334 9.99168 4.0069 9.98112 3.97771C9.97056 3.94853 9.96656 3.91737 9.96939 3.88647C9.96931 3.82741 9.99196 3.7706 10.0326 3.72779C10.0733 3.68497 10.1289 3.65945 10.1879 3.65649C10.2163 3.65509 10.2447 3.65977 10.2712 3.67024C10.2977 3.6807 10.3217 3.6967 10.3415 3.71716C10.3613 3.73763 10.3765 3.76209 10.3861 3.78891C10.3957 3.81572 10.3995 3.84428 10.3971 3.87267V3.90946H10.0522C10.0522 3.94749 10.0671 3.984 10.0938 4.01111C10.1205 4.03821 10.1567 4.05374 10.1948 4.05435C10.2253 4.05709 10.2558 4.04819 10.2801 4.02943C10.3044 4.01067 10.3208 3.98343 10.3258 3.95316L10.4017 3.95776ZM10.3189 3.85427C10.3202 3.83721 10.3179 3.82006 10.3123 3.80392C10.3066 3.78777 10.2977 3.77297 10.286 3.76045C10.2743 3.74792 10.2602 3.73795 10.2445 3.73114C10.2288 3.72433 10.2119 3.72084 10.1948 3.72089C10.1597 3.72203 10.1265 3.73646 10.1017 3.76123C10.0769 3.786 10.0625 3.81926 10.0614 3.85427H10.3189Z" fill="white"/>
<path d="M11.0618 3.99878L11.1653 3.67912H11.2434L11.1055 4.11377H11.025L10.933 3.78951L10.841 4.11377H10.7628L10.6179 3.67912H10.7007L10.8088 3.99878L10.9008 3.66992H10.9698L11.0618 3.99878Z" fill="white"/>
<path d="M11.3055 3.47949H11.3906V3.57148H11.3055V3.47949ZM11.3883 3.67037V4.10502H11.3055V3.67957L11.3883 3.67037Z" fill="white"/>
<path d="M11.5171 3.73016H11.4504V3.67957H11.478C11.5194 3.67957 11.5286 3.65197 11.5378 3.61057L11.5516 3.55078H11.5976V3.67957H11.7287V3.73936H11.6068V4.00153C11.6068 4.04062 11.6229 4.05902 11.6597 4.05902C11.6849 4.05259 11.7084 4.04083 11.7287 4.02453V4.07972C11.6964 4.1044 11.6567 4.11737 11.616 4.11652C11.5562 4.11652 11.5125 4.08662 11.5125 4.00383L11.5171 3.73016Z" fill="white"/>
<path d="M11.8874 4.10502H11.8046V3.47949H11.8874V3.74856C11.9 3.72102 11.9205 3.69782 11.9463 3.68187C11.972 3.66591 12.0019 3.65791 12.0322 3.65887C12.1449 3.65887 12.1909 3.73476 12.1909 3.83595V4.10502H12.1081V3.84285C12.1081 3.76926 12.0736 3.72326 12.0046 3.72326C11.9882 3.72384 11.9721 3.72772 11.9572 3.73469C11.9423 3.74166 11.929 3.75156 11.9181 3.7638C11.9071 3.77605 11.8987 3.79038 11.8935 3.80594C11.8882 3.8215 11.8861 3.83797 11.8874 3.85435V4.10502Z" fill="white"/>
<path d="M12.2875 4.00613H12.3864V4.10502H12.2875V4.00613ZM12.3795 3.47949V3.65427L12.3565 3.93944H12.3174L12.2921 3.65427V3.47949H12.3795Z" fill="white"/>
<path d="M12.9521 4.11715C12.9104 4.11724 12.8692 4.10876 12.8309 4.09223C12.7927 4.0757 12.7583 4.05147 12.7298 4.02105C12.7013 3.99063 12.6794 3.95467 12.6654 3.91542C12.6514 3.87617 12.6457 3.83446 12.6485 3.79289C12.6485 3.71055 12.6812 3.63158 12.7395 3.57335C12.7977 3.51513 12.8767 3.48242 12.959 3.48242C13.0413 3.48242 13.1203 3.51513 13.1785 3.57335C13.2368 3.63158 13.2695 3.71055 13.2695 3.79289C13.2724 3.83564 13.2663 3.87855 13.2515 3.91877C13.2367 3.959 13.2136 3.99563 13.1836 4.02626C13.1536 4.0569 13.1175 4.08083 13.0776 4.0965C13.0377 4.11216 12.9949 4.1192 12.9521 4.11715V4.11715ZM12.9521 3.53992C12.9199 3.53975 12.888 3.54637 12.8584 3.55934C12.8289 3.57231 12.8025 3.59133 12.7808 3.61519C12.7591 3.63904 12.7427 3.66719 12.7326 3.6978C12.7225 3.72841 12.7189 3.76081 12.7221 3.79289C12.7129 3.82699 12.7116 3.86278 12.7184 3.89746C12.7252 3.93214 12.7399 3.96479 12.7614 3.99287C12.7828 4.02095 12.8105 4.0437 12.8422 4.05936C12.8738 4.07502 12.9087 4.08317 12.944 4.08317C12.9794 4.08317 13.0143 4.07502 13.0459 4.05936C13.0776 4.0437 13.1053 4.02095 13.1267 3.99287C13.1482 3.96479 13.1629 3.93214 13.1697 3.89746C13.1765 3.86278 13.1752 3.82699 13.166 3.79289C13.1691 3.76212 13.1661 3.73104 13.1569 3.70149C13.1478 3.67194 13.1328 3.64454 13.1128 3.62093C13.0929 3.59731 13.0683 3.57796 13.0407 3.56404C13.0131 3.55013 12.983 3.54192 12.9521 3.53992V3.53992Z" fill="white"/>
<path d="M13.6098 3.75316C13.59 3.74046 13.5667 3.73405 13.5432 3.73476C13.4811 3.73476 13.4328 3.79226 13.4328 3.87505V4.10502H13.35V3.67957H13.4328V3.76696C13.4408 3.7397 13.457 3.71557 13.4792 3.69787C13.5014 3.68017 13.5286 3.66976 13.557 3.66807C13.5791 3.66706 13.601 3.67354 13.619 3.68647L13.6098 3.75316Z" fill="white"/>
<path d="M13.8973 3.95326C13.8984 3.96873 13.9027 3.98381 13.9099 3.99754C13.9171 4.01128 13.9271 4.02339 13.9392 4.0331C13.9512 4.04281 13.9652 4.04993 13.9802 4.054C13.9951 4.05807 14.0108 4.059 14.0261 4.05675C14.0836 4.05675 14.125 4.03605 14.125 3.99006C14.125 3.94406 14.0974 3.93716 14.0445 3.92567L13.9709 3.90957C13.8881 3.89577 13.8398 3.86127 13.8398 3.78768C13.8398 3.71409 13.9065 3.6543 14.0077 3.6543C14.1089 3.6543 14.1894 3.70719 14.1963 3.80838H14.1319C14.1305 3.79363 14.1261 3.77933 14.1191 3.76631C14.112 3.75329 14.1024 3.74182 14.0908 3.73259C14.0792 3.72337 14.0659 3.71656 14.0516 3.7126C14.0373 3.70863 14.0224 3.70757 14.0077 3.70949C13.9525 3.70949 13.9157 3.73479 13.9157 3.77388C13.9157 3.81298 13.9387 3.82678 13.9824 3.83598L14.0652 3.84747C14.1526 3.86357 14.2032 3.89577 14.2032 3.97396C14.2032 4.05215 14.1273 4.10734 14.0261 4.10734C14.0025 4.11055 13.9785 4.10895 13.9555 4.10263C13.9325 4.09632 13.911 4.08543 13.8923 4.07061C13.8736 4.05579 13.8581 4.03735 13.8467 4.0164C13.8353 3.99544 13.8283 3.9724 13.826 3.94866L13.8973 3.95326Z" fill="white"/>
<path d="M14.4883 4.1162C14.4428 4.1162 14.3983 4.10271 14.3605 4.07744C14.3227 4.05217 14.2932 4.01625 14.2758 3.97423C14.2584 3.93221 14.2538 3.88597 14.2627 3.84136C14.2716 3.79675 14.2935 3.75577 14.3257 3.72361C14.3578 3.69145 14.3988 3.66954 14.4434 3.66067C14.488 3.6518 14.5343 3.65635 14.5763 3.67376C14.6183 3.69116 14.6542 3.72064 14.6795 3.75846C14.7048 3.79628 14.7182 3.84074 14.7182 3.88622C14.7203 3.91695 14.7157 3.94776 14.7049 3.97658C14.694 4.0054 14.6772 4.03158 14.6554 4.05335C14.6336 4.07513 14.6075 4.092 14.5786 4.10284C14.5498 4.11367 14.519 4.11823 14.4883 4.1162V4.1162ZM14.4883 4.0518C14.5757 4.0518 14.6263 3.98281 14.6263 3.88852C14.6263 3.79423 14.5757 3.72294 14.4883 3.72294C14.4009 3.72294 14.3526 3.78963 14.3526 3.88852C14.3526 3.98741 14.3963 4.0518 14.4883 4.0518V4.0518Z" fill="white"/>
<path d="M15.3001 3.6582C15.4128 3.6582 15.4542 3.73639 15.4542 3.83528V4.10435H15.3714V3.84218C15.3714 3.76859 15.3415 3.7226 15.2748 3.7226C15.2587 3.72345 15.2429 3.72757 15.2284 3.73469C15.2139 3.74182 15.201 3.75181 15.1905 3.76406C15.1799 3.77631 15.172 3.79057 15.1671 3.80597C15.1622 3.82137 15.1606 3.8376 15.1621 3.85368V4.10435H15.0816V3.84218C15.0816 3.76859 15.0517 3.7226 14.985 3.7226C14.969 3.72343 14.9533 3.72755 14.9389 3.7347C14.9245 3.74185 14.9118 3.75189 14.9014 3.76418C14.891 3.77647 14.8833 3.79076 14.8787 3.80615C14.8741 3.82155 14.8727 3.83773 14.8747 3.85368V4.10435H14.7919V3.6789H14.8747V3.75709C14.8856 3.72971 14.9047 3.70639 14.9294 3.69033C14.9541 3.67427 14.9832 3.66626 15.0126 3.6674C15.0435 3.66481 15.0744 3.6727 15.1003 3.68981C15.1262 3.70692 15.1455 3.73224 15.1552 3.76169C15.1657 3.73157 15.1853 3.70544 15.2112 3.6869C15.2372 3.66837 15.2682 3.65834 15.3001 3.6582V3.6582Z" fill="white"/>
<path d="M15.9601 3.95776C15.9517 4.00444 15.9265 4.04641 15.8891 4.07567C15.8518 4.10493 15.805 4.11944 15.7577 4.11644C15.7268 4.11927 15.6957 4.11526 15.6665 4.1047C15.6373 4.09415 15.6108 4.0773 15.5888 4.05535C15.5669 4.0334 15.55 4.0069 15.5395 3.97771C15.5289 3.94853 15.5249 3.91737 15.5277 3.88647C15.5277 3.82547 15.552 3.76698 15.5951 3.72385C15.6382 3.68072 15.6967 3.65649 15.7577 3.65649C15.7862 3.65509 15.8146 3.65977 15.8411 3.67024C15.8676 3.6807 15.8915 3.6967 15.9113 3.71716C15.9311 3.73763 15.9464 3.76209 15.956 3.78891C15.9655 3.81572 15.9693 3.84428 15.967 3.87267V3.90946H15.6151C15.6151 3.94749 15.6301 3.984 15.6567 4.01111C15.6834 4.03821 15.7197 4.05374 15.7577 4.05435C15.7886 4.05715 15.8193 4.04833 15.844 4.02961C15.8687 4.01089 15.8855 3.98362 15.8911 3.95316L15.9601 3.95776ZM15.8681 3.85427C15.8694 3.83721 15.8671 3.82006 15.8614 3.80392C15.8557 3.78777 15.8468 3.77297 15.8351 3.76045C15.8235 3.74792 15.8094 3.73795 15.7937 3.73114C15.778 3.72433 15.761 3.72084 15.7439 3.72089C15.7088 3.72251 15.6756 3.73702 15.6506 3.76164C15.6255 3.78625 15.6105 3.81923 15.6082 3.85427H15.8681Z" fill="white"/>
<path d="M16.0615 3.73016H15.9971V3.67957H16.0247C16.0661 3.67957 16.0753 3.65197 16.0845 3.61057L16.0983 3.55078H16.1443V3.67957H16.2661V3.73936H16.1443V4.00153C16.1443 4.04062 16.1604 4.05902 16.1971 4.05902C16.2264 4.05738 16.2548 4.04871 16.2799 4.03373V4.08892C16.2476 4.1136 16.2079 4.12657 16.1673 4.12571C16.1052 4.12571 16.0615 4.09582 16.0615 4.01303V3.73016Z" fill="white"/>
<path d="M16.434 4.10502H16.3512V3.47949H16.434V3.74856C16.4466 3.72102 16.4671 3.69782 16.4929 3.68187C16.5187 3.66591 16.5486 3.65791 16.5789 3.65887C16.6916 3.65887 16.7376 3.73476 16.7376 3.83595V4.10502H16.6548V3.84285C16.6548 3.76926 16.6203 3.72326 16.5513 3.72326C16.5347 3.7235 16.5184 3.72717 16.5034 3.73402C16.4884 3.74088 16.4749 3.75078 16.4639 3.7631C16.4529 3.77541 16.4445 3.78988 16.4394 3.80559C16.4342 3.82129 16.4324 3.8379 16.434 3.85435V4.10502Z" fill="white"/>
<path d="M16.8433 3.47949H16.9284V3.57148H16.8433V3.47949ZM16.9261 3.67037V4.10502H16.8433V3.67957L16.9261 3.67037Z" fill="white"/>
<path d="M17.1216 4.10499H17.0388V3.67954H17.1216V3.75774C17.1343 3.73019 17.1548 3.70699 17.1805 3.69104C17.2063 3.67509 17.2362 3.66709 17.2665 3.66805C17.3792 3.66805 17.4252 3.74394 17.4252 3.84512V4.11419H17.3424V3.84283C17.3424 3.76923 17.3079 3.72324 17.2389 3.72324C17.2224 3.72348 17.2061 3.72714 17.191 3.734C17.176 3.74086 17.1625 3.75076 17.1515 3.76307C17.1405 3.77539 17.1322 3.78986 17.127 3.80556C17.1219 3.82127 17.12 3.83787 17.1216 3.85432V4.10499Z" fill="white"/>
<path d="M17.7079 3.95304C17.6755 3.95475 17.6431 3.94843 17.6136 3.93464C17.6051 3.93846 17.5978 3.94456 17.5925 3.95227C17.5873 3.95998 17.5842 3.969 17.5838 3.97834C17.5838 4.00134 17.5976 4.01513 17.6366 4.01513H17.8068C17.9011 4.01513 17.9494 4.06573 17.9494 4.13242C17.9494 4.24051 17.8298 4.2819 17.701 4.2819C17.5723 4.2819 17.4849 4.24511 17.4849 4.16692C17.4854 4.14309 17.495 4.12035 17.5116 4.10328C17.5283 4.08622 17.5507 4.07608 17.5746 4.07493C17.558 4.07037 17.5433 4.06046 17.5329 4.04674C17.5225 4.03302 17.517 4.01625 17.5171 3.99904C17.5187 3.98044 17.5259 3.96277 17.5379 3.9484C17.5498 3.93402 17.5658 3.92361 17.5838 3.91855C17.5654 3.90614 17.5506 3.8893 17.5405 3.8696C17.5305 3.84989 17.5256 3.82797 17.5263 3.80586C17.5263 3.71387 17.6021 3.65868 17.7079 3.65868C17.7569 3.65691 17.8049 3.67238 17.8436 3.70237C17.8558 3.68425 17.8723 3.66935 17.8915 3.65894C17.9107 3.64853 17.9322 3.64292 17.954 3.64258V3.71387C17.9255 3.71482 17.8974 3.72106 17.8712 3.73227C17.8843 3.75463 17.8914 3.77996 17.8919 3.80586C17.8896 3.89555 17.8137 3.95304 17.7079 3.95304ZM17.7079 4.22901C17.8068 4.22901 17.8781 4.20371 17.8781 4.14162C17.8781 4.07953 17.8459 4.08873 17.7953 4.08873H17.655C17.609 4.08873 17.57 4.10252 17.57 4.15082C17.57 4.19911 17.6182 4.22901 17.7079 4.22901ZM17.7079 3.71157C17.6949 3.71011 17.6817 3.7116 17.6693 3.71594C17.6569 3.72027 17.6457 3.72734 17.6364 3.73662C17.6271 3.7459 17.6201 3.75715 17.6157 3.76953C17.6114 3.78192 17.6099 3.79512 17.6113 3.80816C17.6086 3.82163 17.6091 3.83557 17.6129 3.84878C17.6167 3.862 17.6237 3.8741 17.6331 3.88405C17.6426 3.89399 17.6544 3.90149 17.6674 3.9059C17.6805 3.9103 17.6944 3.91149 17.7079 3.90935C17.7208 3.91102 17.734 3.90987 17.7464 3.90597C17.7588 3.90207 17.7702 3.89552 17.7798 3.88677C17.7894 3.87802 17.7971 3.86728 17.8021 3.85529C17.8072 3.8433 17.8096 3.83036 17.8091 3.81736C17.8119 3.80328 17.8112 3.78876 17.8071 3.775C17.8031 3.76124 17.7958 3.74866 17.7859 3.7383C17.776 3.72794 17.7637 3.7201 17.7502 3.71545C17.7366 3.7108 17.7221 3.70947 17.7079 3.71157V3.71157Z" fill="white"/>
<path d="M18.0001 4.00586H18.099V4.10475H18.0001V4.00586Z" fill="white"/>
<path d="M25.6972 12.692C25.1269 11.6548 22.9789 8.50879 17.9563 8.50879C12.9337 8.50879 10.8088 11.618 10.2246 12.6736C10.1654 12.7789 10.1343 12.8977 10.1343 13.0186C10.1343 13.1394 10.1654 13.2582 10.2246 13.3635C10.8088 14.4168 12.9636 17.5352 17.9563 17.5352C22.949 17.5352 25.1269 14.3777 25.6972 13.3382C25.7518 13.2393 25.7804 13.1281 25.7804 13.0151C25.7804 12.9021 25.7518 12.791 25.6972 12.692V12.692ZM19.9042 13.3198H18.6899L19.5477 14.1776L19.1177 14.6077L18.2599 13.7499V14.9641H17.6528V13.7499L16.7881 14.6077L16.358 14.1776L17.2181 13.3198H16.0108V12.7127H17.225L16.3649 11.8549L16.7881 11.4271L17.6459 12.2849V11.0707H18.2599V12.2849L19.1177 11.4271L19.5477 11.8549L18.6899 12.7127H19.9042V13.3198Z" fill="#B6F57A"/>
</g>
<defs>
<clipPath id="clip0_741_12429">
<rect width="35.9149" height="48" fill="white"/>
</clipPath>
</defs>
</svg>
