<svg width="36" height="48" viewBox="0 0 36 48" fill="none" xmlns="http://www.w3.org/2000/svg">
<g clip-path="url(#clip0_741_12249)">
<path d="M30.9499 29.3009H27.222C25.8932 29.3008 24.6144 29.8079 23.6468 30.7187C22.6792 31.6295 22.0957 32.8752 22.0154 34.2016L21.8475 37.0901L21.4543 42.3151L21.0541 47.7286C19.0069 48.1058 16.9081 48.1058 14.8609 47.7286L14.4608 42.3151L14.0744 37.0901L13.8996 34.2016C13.8194 32.8752 13.2359 31.6295 12.2683 30.7187C11.3006 29.8079 10.0219 29.3008 8.69305 29.3009H4.96749C4.60564 29.301 4.24772 29.2258 3.91654 29.08C3.58535 28.9343 3.28816 28.7211 3.04391 28.4541C2.79965 28.1871 2.61368 27.8722 2.49784 27.5294C2.382 27.1866 2.33883 26.8234 2.37109 26.463L4.62253 1.18896C4.65128 0.864226 4.80063 0.562038 5.04114 0.34196C5.28165 0.121882 5.59587 -0.000120013 5.92188 8.85885e-08H29.9955C30.3215 -0.000120013 30.6357 0.121882 30.8762 0.34196C31.1167 0.562038 31.2661 0.864226 31.2948 1.18896L33.5463 26.463C33.5785 26.8234 33.5353 27.1866 33.4195 27.5294C33.3037 27.8722 33.1177 28.1871 32.8734 28.4541C32.6292 28.7211 32.332 28.9343 32.0008 29.08C31.6696 29.2258 31.3117 29.301 30.9499 29.3009Z" fill="#1B2D2A"/>
<path d="M21.8407 37.0898L21.4543 42.3033H14.4608L14.0745 37.0898H21.8407Z" fill="#B6F57A"/>
<path d="M25.6972 12.692C25.1269 11.6548 22.9789 8.50879 17.9563 8.50879C12.9337 8.50879 10.8088 11.618 10.2246 12.6736C10.1654 12.7789 10.1343 12.8977 10.1343 13.0186C10.1343 13.1394 10.1654 13.2582 10.2246 13.3635C10.8088 14.4168 12.9636 17.5352 17.9563 17.5352C22.949 17.5352 25.1269 14.3777 25.6972 13.3382C25.7518 13.2393 25.7804 13.1281 25.7804 13.0151C25.7804 12.9021 25.7518 12.791 25.6972 12.692ZM19.9042 13.3198H18.6899L19.5477 14.1776L19.1177 14.6077L18.2599 13.7499V14.9641H17.6528V13.7499L16.7881 14.6077L16.358 14.1776L17.2181 13.3198H16.0108V12.7127H17.225L16.3649 11.8549L16.7881 11.4271L17.6459 12.2849V11.0707H18.2599V12.2849L19.1177 11.4271L19.5477 11.8549L18.6899 12.7127H19.9042V13.3198Z" fill="#B6F57A"/>
</g>
<defs>
<clipPath id="clip0_741_12249">
<rect width="35.9149" height="48" fill="white"/>
</clipPath>
</defs>
</svg>
