<svg width="278" height="251" viewBox="0 0 278 251" fill="none" xmlns="http://www.w3.org/2000/svg">
<g clip-path="url(#clip0_797_2819)">
<path d="M276.517 74.5179C266.384 56.0976 228.203 0 138.963 0C50.2501 0 11.9945 55.4388 1.59451 74.1871C0.548979 76.0559 0 78.1616 0 80.3031C0 82.4445 0.548979 84.5502 1.59451 86.4191C11.9945 105.167 50.2445 160.606 138.963 160.606C228.201 160.606 266.384 104.509 276.517 86.0883C277.492 84.3159 278.003 82.3259 278.003 80.3031C278.003 78.2803 277.492 76.2903 276.517 74.5179V74.5179ZM173.557 85.6963H151.99L167.241 100.947L159.61 108.576L144.359 93.3274V114.895H133.569V93.3274L118.318 108.576L110.687 100.947L125.936 85.6963H104.371V74.9043H125.936L110.685 59.6532L118.316 52.0249L133.569 67.276V45.706H144.359V67.276L159.61 52.0249L167.241 59.6532L151.99 74.9043H173.557V85.6963Z" fill="#F4F449"/>
<path d="M17.516 160.601V234.335H40.868V248.91H21.0493C15.4672 248.91 10.1137 246.693 6.16659 242.746C2.21944 238.799 0.00195313 233.445 0.00195312 227.863L0.00195313 160.601H17.516Z" fill="white"/>
<path d="M89.5977 187.094H106.417V248.91H89.5977V238.819C86.3729 245.966 79.0837 250.595 69.6929 250.595C53.2909 250.595 47.6836 239.519 47.6836 225.783V187.094H64.497V222.417C64.497 231.81 67.9998 237.429 76.2703 237.429C84.5408 237.429 89.5893 230.701 89.5893 220.193L89.5977 187.094Z" fill="white"/>
<path d="M146.898 185.426C165.26 185.426 175.354 197.483 176.755 212.339L162.596 213.321C161.337 204.069 156.15 198.322 146.898 198.322C137.646 198.322 131.199 205.189 131.199 218.085C131.199 230.843 137.646 237.712 146.898 237.712C156.15 237.712 161.337 231.824 162.596 222.422L176.755 223.687C175.365 238.543 165.26 250.6 146.898 250.6C127.832 250.6 114.238 237.704 114.238 218.074C114.238 198.445 127.832 185.426 146.898 185.426Z" fill="white"/>
<path d="M261.179 237.134C258.377 244.562 250.807 250.592 239.873 250.592C221.511 250.592 211.979 236.292 211.979 218.066C211.979 199.841 221.511 185.426 239.873 185.426C250.807 185.426 258.377 191.453 261.179 199.023V160.601H278.001V248.91H261.179V237.134ZM261.321 216.812C261.321 205.598 254.451 198.587 244.919 198.587C234.405 198.587 228.937 206.298 228.937 218.072C228.937 229.709 234.405 237.415 244.919 237.415C254.449 237.415 261.321 230.548 261.321 219.195V216.812Z" fill="white"/>
<path d="M201.931 212.326H185.109V248.91H201.931V212.326Z" fill="white"/>
<path d="M206.245 184.325H200.143L204.458 180.008L200.538 176.088L196.223 180.406V174.303H190.68V180.406L186.366 176.088L182.446 180.008L186.76 184.325H180.658V189.866H186.76L182.446 194.183L186.366 198.1L190.68 193.786V199.888H196.223V193.786L200.538 198.1L204.458 194.183L200.143 189.866H206.245V184.325Z" fill="white"/>
</g>
<defs>
<clipPath id="clip0_797_2819">
<rect width="278" height="250.595" fill="white"/>
</clipPath>
</defs>
</svg>
