<svg width="399" height="178" viewBox="0 0 399 178" fill="none" xmlns="http://www.w3.org/2000/svg">
<path d="M376.901 63.8054C385.698 50.9554 392.997 37.1418 398.656 22.6336L358.682 0.320218C351.213 21.7722 338.567 44.2708 317.578 63.577C272.562 104.971 217.262 105.135 199.086 105.166L197.307 105.2C180.65 105.2 130 105.2 86.7037 68.7856C61.7505 47.8276 47.8012 22.0809 40.0701 0.159668L0.000488281 22.507C5.97636 37.8201 13.7495 52.3695 23.1568 65.8494L4.94049 85.2698C3.7426 86.5497 3.10217 88.253 3.16008 90.0051C3.21798 91.7572 3.96946 93.4145 5.24924 94.6125L28.6093 116.558C29.8892 117.756 31.5925 118.397 33.3446 118.339C35.0967 118.281 36.754 117.53 37.9521 116.25L53.3896 99.8057C54.7635 101.041 56.1405 102.248 57.57 103.449C67.8044 112.047 78.9037 119.559 90.6897 125.864L83.2272 144.877C82.5868 146.508 82.6207 148.327 83.3213 149.933C84.0219 151.539 85.3319 152.801 86.9631 153.442L116.807 165.156C118.435 165.791 120.249 165.754 121.851 165.054C123.453 164.355 124.712 163.049 125.353 161.423L132.763 142.534C147.525 146.495 162.647 148.964 177.902 149.904L178.023 171.241C178.033 172.994 178.738 174.671 179.984 175.904C181.23 177.136 182.914 177.824 184.667 177.815L216.725 177.635C217.593 177.631 218.451 177.455 219.251 177.118C220.052 176.781 220.778 176.29 221.388 175.673C221.998 175.056 222.481 174.324 222.809 173.521C223.137 172.717 223.303 171.856 223.298 170.988L223.177 149.558C238.376 148.339 253.416 145.625 268.082 141.456L275.841 160.599C276.499 162.222 277.776 163.518 279.39 164.201C281.003 164.883 282.822 164.897 284.446 164.239L314.157 152.198C315.781 151.538 317.076 150.261 317.759 148.647C318.442 147.033 318.455 145.214 317.797 143.59L309.986 124.317C323.303 117.029 335.716 108.2 346.971 98.0119L362.745 114.447C363.346 115.073 364.064 115.575 364.858 115.924C365.653 116.272 366.508 116.461 367.376 116.479C368.244 116.497 369.106 116.344 369.915 116.029C370.723 115.713 371.461 115.242 372.088 114.641L395.219 92.4451C396.484 91.2311 397.214 89.5648 397.251 87.8124C397.287 86.06 396.626 84.3648 395.414 83.0992L376.901 63.8054Z" fill="#FFC654"/>
</svg>
