<svg width="56" height="50" viewBox="0 0 56 50" fill="none" xmlns="http://www.w3.org/2000/svg">
<g clip-path="url(#clip0_797_2861)">
<path d="M55.1722 14.8682C53.1503 11.1929 45.5324 0 27.7266 0C10.0262 0 2.39321 11.0614 0.318146 14.8022C0.109535 15.1751 0 15.5952 0 16.0225C0 16.4498 0.109535 16.8699 0.318146 17.2428C2.39321 20.9836 10.0251 32.045 27.7266 32.045C45.5318 32.045 53.1503 20.8521 55.1722 17.1768C55.3667 16.8232 55.4687 16.4261 55.4687 16.0225C55.4687 15.6189 55.3667 15.2218 55.1722 14.8682V14.8682ZM34.629 17.0986H30.3258L33.3688 20.1416L31.8462 21.6636L28.8032 18.6212V22.9244H26.6505V18.6212L23.6075 21.6636L22.0849 20.1416L25.1273 17.0986H20.8247V14.9453H25.1273L22.0844 11.9023L23.607 10.3803L26.6505 13.4233V9.1195H28.8032V13.4233L31.8462 10.3803L33.3688 11.9023L30.3258 14.9453H34.629V17.0986Z" fill="#F4F449"/>
<path d="M3.49449 32.0439V46.7557H8.1538V49.6639H4.19948C3.08571 49.6639 2.01756 49.2215 1.23 48.4339C0.442444 47.6464 0 46.5782 0 45.4644L0 32.0439H3.49449Z" fill="#1B2D2A"/>
<path d="M17.8766 37.3301H21.2324V49.6639H17.8766V47.6505C17.2332 49.0765 15.7788 50.0001 13.9051 50.0001C10.6325 50.0001 9.51367 47.7902 9.51367 45.0496V37.3301H12.8684V44.3778C12.8684 46.2521 13.5673 47.3731 15.2174 47.3731C16.8676 47.3731 17.8749 46.0308 17.8749 43.9341L17.8766 37.3301Z" fill="#1B2D2A"/>
<path d="M29.3094 36.9971C32.973 36.9971 34.9871 39.4027 35.2666 42.3669L32.4416 42.5627C32.1904 40.7168 31.1553 39.5702 29.3094 39.5702C27.4634 39.5702 26.1771 40.9403 26.1771 43.5135C26.1771 46.0589 27.4634 47.4295 29.3094 47.4295C31.1553 47.4295 32.1904 46.2547 32.4416 44.3788L35.2666 44.6311C34.9893 47.5953 32.973 50.001 29.3094 50.001C25.5054 50.001 22.793 47.4278 22.793 43.5112C22.793 39.5946 25.5054 36.9971 29.3094 36.9971Z" fill="#1B2D2A"/>
<path d="M52.1117 47.3143C51.5525 48.7964 50.0421 49.9995 47.8606 49.9995C44.1969 49.9995 42.2949 47.1462 42.2949 43.5097C42.2949 39.8733 44.1969 36.9972 47.8606 36.9972C50.0421 36.9972 51.5525 38.1998 52.1117 39.7102V32.0439H55.468V49.6639H52.1117V47.3143ZM52.1399 43.2596C52.1399 41.022 50.7693 39.6231 48.8673 39.6231C46.7695 39.6231 45.6785 41.1618 45.6785 43.5109C45.6785 45.8327 46.7695 47.3703 48.8673 47.3703C50.7688 47.3703 52.1399 46.0003 52.1399 43.7349V43.2596Z" fill="#1B2D2A"/>
<path d="M40.29 42.3643H36.9336V49.6639H40.29V42.3643Z" fill="#1B2D2A"/>
<path d="M41.1502 36.7775H39.9327L40.7935 35.916L40.0114 35.1339L39.1506 35.9954V34.7778H38.0445V35.9954L37.1837 35.1339L36.4016 35.916L37.2624 36.7775H36.0449V37.8829H37.2624L36.4016 38.7444L37.1837 39.5259L38.0445 38.665V39.8826H39.1506V38.665L40.0114 39.5259L40.7935 38.7444L39.9327 37.8829H41.1502V36.7775Z" fill="#1B2D2A"/>
</g>
<defs>
<clipPath id="clip0_797_2861">
<rect width="55.468" height="50" fill="white"/>
</clipPath>
</defs>
</svg>
