<svg width="16" height="16" viewBox="0 0 16 16" fill="none" xmlns="http://www.w3.org/2000/svg">
<path fill-rule="evenodd" clip-rule="evenodd" d="M8.00033 4.3335C6.71166 4.3335 5.66699 5.37817 5.66699 6.66683C5.66699 7.95549 6.71166 9.00016 8.00033 9.00016C9.28899 9.00016 10.3337 7.95549 10.3337 6.66683C10.3337 5.37817 9.28899 4.3335 8.00033 4.3335ZM7.00033 6.66683C7.00033 6.11454 7.44804 5.66683 8.00033 5.66683C8.55261 5.66683 9.00033 6.11454 9.00033 6.66683C9.00033 7.21911 8.55261 7.66683 8.00033 7.66683C7.44804 7.66683 7.00033 7.21911 7.00033 6.66683Z" fill="#1B2D2A"/>
<path fill-rule="evenodd" clip-rule="evenodd" d="M8.00033 1.3335C5.05481 1.3335 2.66699 3.72131 2.66699 6.66683C2.66699 7.64825 3.0077 8.6323 3.47099 9.52579C3.93728 10.4251 4.55126 11.2774 5.15237 12.0073C5.75511 12.7392 6.35599 13.3614 6.80547 13.8001C7.03062 14.0199 7.21881 14.1947 7.35161 14.3153C7.41803 14.3756 7.47067 14.4225 7.50723 14.4547C7.52551 14.4708 7.53978 14.4832 7.54975 14.4919C7.55286 14.4946 7.55555 14.4969 7.55782 14.4989L7.56144 14.502L7.56621 14.5061C7.56635 14.5062 7.56646 14.5063 8.00033 14.0002L7.56646 14.5063L8.00033 14.8782L8.43419 14.5063L8.00033 14.0002C8.43419 14.5063 8.43431 14.5062 8.43444 14.5061L8.43922 14.502L8.4435 14.4983C8.44563 14.4965 8.44809 14.4943 8.45091 14.4919C8.46087 14.4832 8.47514 14.4708 8.49342 14.4547C8.52998 14.4225 8.58262 14.3756 8.64904 14.3153C8.78185 14.1947 8.97003 14.0199 9.19518 13.8001C9.64466 13.3614 10.2455 12.7392 10.8483 12.0073C11.4494 11.2774 12.0634 10.4251 12.5297 9.52579C12.993 8.6323 13.3337 7.64825 13.3337 6.66683C13.3337 3.72131 10.9458 1.3335 8.00033 1.3335ZM8.2638 12.846C8.16813 12.9394 8.07975 13.024 8.00033 13.0989C7.9209 13.024 7.83252 12.9394 7.73685 12.846C7.31133 12.4306 6.74554 11.8445 6.18161 11.1597C5.61606 10.4729 5.06337 9.70026 4.65466 8.91203C4.24295 8.11803 4.00033 7.35208 4.00033 6.66683C4.00033 4.45769 5.79119 2.66683 8.00033 2.66683C10.2095 2.66683 12.0003 4.45769 12.0003 6.66683C12.0003 7.35208 11.7577 8.11803 11.346 8.91203C10.9373 9.70026 10.3846 10.4729 9.81904 11.1597C9.25511 11.8445 8.68932 12.4306 8.2638 12.846Z" fill="#1B2D2A"/>
</svg>
