<svg width="433" height="247" viewBox="0 0 433 247" fill="none" xmlns="http://www.w3.org/2000/svg">
<path d="M216.536 0C52.3298 0 0.524658 123.5 0.524658 123.5C0.524658 123.5 52.3298 247 216.536 247C380.741 247 432.543 123.5 432.543 123.5C432.543 123.5 380.744 0 216.536 0ZM359.796 156.722C322.764 190.876 274.562 208.193 216.536 208.193C113.058 208.193 63.2504 151.717 44.8705 123.596C52.9601 111.385 62.4977 100.198 73.2755 90.2785C110.307 56.1246 158.509 38.8068 216.536 38.8068C320.013 38.8068 369.818 95.2834 388.201 123.404C380.115 135.615 370.581 146.802 359.808 156.722H359.796Z" fill="#FFC654"/>
<path d="M269.134 85.0947L254.941 70.8983L226.57 99.2694V59.1504H206.498V99.2694L178.13 70.8983L163.937 85.0947L192.305 113.463H152.183V133.538H192.305L163.937 161.906L178.13 176.099L206.498 147.731V187.85H226.57V147.731L254.941 176.099L269.134 161.906L240.766 133.538H280.885V113.463H240.766L269.134 85.0947Z" fill="#FFC654"/>
</svg>
