<svg width="449" height="260" viewBox="0 0 449 260" fill="none" xmlns="http://www.w3.org/2000/svg">
<path d="M446.602 120.354C430.236 90.6037 368.571 0 224.437 0C81.1566 0 19.3697 89.5396 2.57263 119.82C0.883975 122.839 -0.00268555 126.239 -0.00268555 129.698C-0.00268555 133.157 0.883975 136.558 2.57263 139.576C19.3697 169.857 81.1476 259.396 224.437 259.396C368.566 259.396 430.236 168.793 446.602 139.042C448.177 136.179 449.002 132.965 449.002 129.698C449.002 126.431 448.177 123.217 446.602 120.354ZM280.311 138.409H245.477L270.109 163.041L257.784 175.361L233.152 150.734V185.567H215.726V150.734L191.094 175.361L178.769 163.041L203.397 138.409H168.568V120.979H203.397L178.765 96.3464L191.09 84.0259L215.726 108.658V73.8201H233.152V108.658L257.784 84.0259L270.109 96.3464L245.477 120.979H280.311V138.409Z" fill="#F4F449"/>
</svg>
