<svg width="16" height="16" viewBox="0 0 16 16" fill="none" xmlns="http://www.w3.org/2000/svg">
<path fill-rule="evenodd" clip-rule="evenodd" d="M8.00033 1.3335C6.34347 1.3335 5.00033 2.67664 5.00033 4.3335C5.00033 5.99035 6.34347 7.3335 8.00033 7.3335C9.65718 7.3335 11.0003 5.99035 11.0003 4.3335C11.0003 2.67664 9.65718 1.3335 8.00033 1.3335ZM6.33366 4.3335C6.33366 3.41302 7.07985 2.66683 8.00033 2.66683C8.9208 2.66683 9.66699 3.41302 9.66699 4.3335C9.66699 5.25397 8.9208 6.00016 8.00033 6.00016C7.07985 6.00016 6.33366 5.25397 6.33366 4.3335Z" fill="#1B2D2A"/>
<path fill-rule="evenodd" clip-rule="evenodd" d="M8.00033 8.3335C5.05481 8.3335 2.66699 10.7213 2.66699 13.6668V14.6668H13.3337V13.6668C13.3337 10.7213 10.9458 8.3335 8.00033 8.3335ZM8.00033 9.66683C10.0972 9.66683 11.8173 11.2803 11.9866 13.3335H4.01402C4.1834 11.2803 5.90344 9.66683 8.00033 9.66683Z" fill="#1B2D2A"/>
</svg>
