<svg width="32" height="32" viewBox="0 0 32 32" fill="none" xmlns="http://www.w3.org/2000/svg">
<path d="M4.21072 13.7752C3.66565 16.6439 4.18645 19.613 5.67534 22.125L4.00034 27.9999L9.87534 26.325C12.3873 27.8139 15.3564 28.3347 18.2252 27.7896C21.0939 27.2445 23.6651 25.6711 25.4559 23.3646C27.2468 21.0582 28.1342 18.1774 27.9516 15.263C27.7689 12.3486 26.5288 9.60115 24.464 7.53634C22.3992 5.47153 19.6517 4.2314 16.7373 4.04875C13.823 3.86611 10.9421 4.75352 8.63569 6.54438C6.32925 8.33525 4.75579 10.9064 4.21072 13.7752Z" stroke="#B6F57A" stroke-width="2" stroke-linecap="round"/>
<path d="M15.177 22.2449C16.3933 22.7469 17.6967 23.0037 19.0125 23.0004C19.9376 22.9938 20.8227 22.6225 21.4757 21.9672C22.1287 21.3119 22.4968 19.9254 22.5 19.0003L19 17.0003L17.5188 17.8879L16.5375 18.4754C15.1987 17.8735 14.1269 16.8017 13.525 15.4629L15 13.0002L12.7875 10.0127C11.8614 10.0127 10.6856 9.86739 10.0296 10.5211C9.37355 11.1747 9.00334 12.0618 9.00003 12.9879C8.99673 14.3036 9.25346 15.6071 9.75547 16.8234C10.2575 18.0396 10.9949 19.1447 11.9253 20.0751C12.8557 21.0055 13.9608 21.7429 15.177 22.2449Z" stroke="#B6F57A" stroke-width="2" stroke-linecap="round"/>
</svg>
